<?xml version="1.0" standalone="no"?>
<!DOCTYPE svg PUBLIC "-//W3C//DTD SVG 20010904//EN"
 "http://www.w3.org/TR/2001/REC-SVG-20010904/DTD/svg10.dtd">
<svg version="1.0" xmlns="http://www.w3.org/2000/svg"
 width="1232.000000pt" height="472.000000pt" viewBox="0 0 1232.000000 472.000000"
 preserveAspectRatio="xMidYMid meet">
<metadata>
Created by potrace 1.16, written by Peter Selinger 2001-2019
</metadata>
<g transform="translate(0.000000,472.000000) scale(0.100000,-0.100000)"
fill="#000000" stroke="none">
<path d="M1960 4400 c-179 -49 -335 -91 -347 -94 l-23 -6 0 -879 c0 -546 -4
-899 -10 -932 -14 -73 -63 -171 -105 -207 -97 -86 -182 -111 -397 -119 l-158
-6 0 -310 0 -310 213 6 c230 7 311 16 452 52 349 88 573 298 668 626 51 174
50 155 54 1247 3 832 1 1022 -9 1021 -7 -1 -159 -41 -338 -89z"/>
<path d="M5740 4067 l0 -422 -191 4 c-282 5 -440 -20 -594 -94 -287 -137 -432
-413 -452 -855 -24 -553 163 -926 536 -1069 259 -98 546 -111 1186 -52 l180
16 3 1448 2 1447 -335 0 -335 0 0 -423z m0 -1467 l0 -620 -104 0 c-245 0 -369
100 -437 355 -19 67 -22 109 -23 265 -1 270 32 404 125 505 78 84 160 113 327
114 l112 1 0 -620z"/>
<path d="M6580 4150 l0 -340 340 0 340 0 0 340 0 340 -340 0 -340 0 0 -340z"/>
<path d="M3205 3659 c-44 -5 -114 -18 -156 -28 -353 -88 -537 -316 -600 -742
-16 -108 -16 -460 0 -568 62 -420 244 -650 586 -736 244 -62 597 -55 815 16
219 72 381 228 459 444 64 177 75 260 75 560 0 242 -2 281 -22 372 -48 220
-107 339 -226 459 -67 67 -97 89 -176 127 -189 92 -469 127 -755 96z m341
-457 c45 -24 95 -74 118 -119 39 -77 48 -152 53 -420 7 -352 -10 -476 -80
-579 -49 -73 -107 -99 -222 -99 -77 0 -98 4 -140 26 -63 32 -109 92 -135 177
-46 146 -48 654 -5 817 30 113 102 191 198 216 53 14 170 3 213 -19z"/>
<path d="M6580 2600 l0 -1020 335 0 335 0 0 1020 0 1020 -335 0 -335 0 0
-1020z"/>
<path d="M7577 1763 c-4 -27 -9 -78 -13 -115 -6 -65 -6 -68 15 -68 18 0 21 6
22 43 0 23 3 59 7 80 7 38 7 36 25 -42 17 -74 20 -81 42 -81 25 0 33 17 51
109 9 43 24 21 24 -36 0 -55 8 -73 31 -73 18 0 19 5 14 48 -4 26 -9 76 -13
112 -7 64 -8 65 -38 68 -29 3 -32 0 -38 -35 -3 -21 -11 -56 -18 -78 l-11 -40
-9 40 c-23 107 -27 115 -57 115 -26 0 -29 -3 -34 -47z"/>
<path d="M2211 809 c-61 -12 -110 -54 -146 -124 -29 -58 -30 -65 -30 -196 0
-131 1 -137 30 -194 90 -176 336 -165 415 18 28 64 38 214 21 299 -31 146
-148 226 -290 197z m117 -89 c64 -39 94 -170 73 -310 -18 -113 -57 -160 -132
-160 -50 0 -89 27 -112 78 -17 38 -21 67 -22 152 0 129 8 170 42 211 45 52 96
62 151 29z"/>
<path d="M1558 793 l-38 -16 0 -63 0 -64 -40 0 c-39 0 -40 -1 -40 -35 0 -34 1
-35 40 -35 l40 0 0 -159 c0 -87 5 -172 10 -188 14 -39 46 -53 125 -53 l65 0 0
35 c0 33 -2 35 -34 35 -68 0 -66 -4 -66 171 l0 159 55 0 55 0 0 35 0 35 -55 0
-55 0 0 80 c0 88 0 88 -62 63z"/>
<path d="M5303 794 c-32 -14 -33 -15 -33 -79 l0 -65 -40 0 c-39 0 -40 -1 -40
-35 0 -34 1 -35 40 -35 l40 0 0 -178 c0 -218 -2 -215 121 -221 l79 -3 0 36 c0
35 -1 36 -36 36 -73 0 -74 2 -74 175 l0 155 55 0 55 0 0 35 0 35 -55 0 -55 0
0 80 c0 87 -1 89 -57 64z"/>
<path d="M8308 793 l-38 -16 0 -63 0 -64 -40 0 c-39 0 -40 -1 -40 -35 0 -34 1
-35 40 -35 l40 0 0 -159 c0 -87 5 -172 10 -188 14 -39 46 -53 125 -53 l65 0 0
35 c0 33 -2 35 -34 35 -68 0 -66 -4 -66 171 l0 159 55 0 55 0 0 35 0 35 -55 0
-55 0 0 80 c0 88 0 88 -62 63z"/>
<path d="M10183 794 c-32 -14 -33 -15 -33 -79 l0 -65 -40 0 c-39 0 -40 -1 -40
-35 0 -34 1 -35 40 -35 l40 0 0 -178 c0 -218 -2 -215 121 -221 l79 -3 0 36 c0
35 -1 36 -36 36 -73 0 -74 2 -74 175 l0 155 55 0 55 0 0 35 0 35 -55 0 -55 0
0 80 c0 87 -1 89 -57 64z"/>
<path d="M11123 794 c-32 -14 -33 -15 -33 -79 l0 -65 -40 0 c-39 0 -40 -1 -40
-35 0 -34 1 -35 40 -35 l40 0 0 -174 c0 -219 0 -219 119 -224 l81 -4 0 36 c0
35 -1 36 -36 36 -73 0 -74 2 -74 175 l0 155 55 0 55 0 0 35 0 35 -55 0 -55 0
0 80 c0 87 -1 89 -57 64z"/>
<path d="M148 554 l-3 -246 -29 -25 c-23 -20 -38 -24 -73 -21 l-43 3 0 -41 c0
-47 9 -54 68 -54 91 0 151 41 171 115 6 24 11 138 11 278 l0 237 -50 0 -49 0
-3 -246z"/>
<path d="M7280 489 l0 -311 138 4 c116 3 143 7 179 26 84 44 114 107 120 258
6 132 -10 204 -60 261 -53 61 -93 73 -244 73 l-133 0 0 -311z m271 216 c45
-40 63 -101 63 -215 0 -178 -39 -230 -169 -230 l-65 0 0 236 0 236 74 -4 c56
-2 80 -8 97 -23z"/>
<path d="M9240 490 l0 -310 45 0 45 0 0 310 0 310 -45 0 -45 0 0 -310z"/>
<path d="M450 638 c-32 -16 -52 -36 -70 -68 -22 -40 -25 -57 -25 -150 0 -90 3
-112 23 -152 29 -58 74 -88 144 -95 156 -16 239 87 226 279 -10 138 -77 208
-198 208 -38 0 -70 -7 -100 -22z m160 -76 c34 -34 45 -92 37 -189 -5 -73 -27
-112 -71 -127 -35 -13 -73 2 -100 37 -25 34 -35 167 -17 228 23 77 99 103 151
51z"/>
<path d="M1185 640 c-60 -24 -55 -23 -55 -5 0 11 -12 15 -45 15 l-45 0 0 -235
0 -235 45 0 45 0 0 185 0 184 52 16 c64 19 73 19 92 -1 13 -13 16 -46 16 -200
l0 -184 50 0 50 0 0 193 c0 163 -3 197 -18 227 -31 62 -95 75 -187 40z"/>
<path d="M2985 644 c-72 -25 -101 -76 -93 -170 4 -42 11 -61 33 -84 l28 -29
-27 -31 c-28 -33 -35 -85 -16 -120 13 -24 69 -40 145 -40 99 0 144 -41 94 -86
-23 -21 -114 -26 -196 -11 l-43 7 0 -40 0 -40 125 0 c136 0 160 7 205 55 20
21 25 37 25 80 0 85 -44 115 -167 115 -71 0 -108 13 -108 39 0 30 28 46 86 48
101 4 154 55 154 150 0 28 -4 63 -10 77 -9 25 -8 26 30 26 38 0 40 1 40 33 l0
32 -134 1 c-84 1 -148 -4 -171 -12z m139 -97 c33 -68 -1 -147 -63 -147 -42 0
-71 40 -71 99 0 67 21 93 73 89 37 -3 44 -7 61 -41z"/>
<path d="M3373 653 c-30 -4 -33 -8 -33 -38 l0 -34 93 6 c112 7 136 -6 144 -77
l5 -45 -59 3 c-73 4 -134 -11 -170 -42 -23 -20 -27 -33 -31 -88 -9 -137 58
-179 259 -163 l89 7 0 188 c0 209 -7 242 -54 267 -31 17 -173 26 -243 16z
m207 -333 l0 -80 -54 0 c-72 0 -106 26 -106 81 0 59 26 79 100 79 l60 0 0 -80z"/>
<path d="M3940 646 c-19 -7 -43 -17 -52 -21 -13 -5 -18 -3 -18 9 0 12 -10 16
-45 16 l-45 0 0 -235 0 -235 45 0 45 0 0 185 0 184 52 16 c65 19 71 19 91 -3
15 -16 17 -45 17 -200 l0 -182 50 0 50 0 0 193 c0 163 -3 197 -18 227 -28 58
-94 75 -172 46z"/>
<path d="M4506 650 c-83 -25 -121 -135 -71 -207 8 -11 51 -35 95 -53 95 -38
115 -65 82 -109 -19 -25 -24 -26 -111 -25 l-92 2 3 -37 c3 -36 4 -36 58 -44
160 -22 250 32 250 150 0 70 -29 105 -114 133 -75 25 -101 48 -92 84 8 33 60
49 131 41 l55 -7 0 35 c0 31 -3 35 -31 41 -43 8 -128 6 -163 -4z"/>
<path d="M4833 653 c-30 -4 -33 -8 -33 -38 l0 -34 94 6 c92 6 95 5 120 -20 19
-19 26 -37 26 -64 l0 -38 -58 3 c-72 4 -133 -11 -169 -42 -23 -20 -27 -33 -31
-88 -9 -137 58 -179 259 -163 l89 7 0 188 c0 209 -7 242 -54 267 -31 17 -173
26 -243 16z m207 -333 l0 -80 -54 0 c-72 0 -106 26 -106 81 0 59 26 79 100 79
l60 0 0 -80z"/>
<path d="M5834 641 c-78 -35 -110 -115 -102 -254 5 -96 32 -157 81 -187 76
-46 204 -34 255 25 43 49 57 98 57 201 -1 117 -27 175 -94 211 -55 29 -138 31
-197 4z m156 -79 c22 -22 30 -42 35 -86 10 -77 -1 -165 -24 -196 -41 -56 -126
-47 -155 15 -22 45 -22 195 0 240 28 60 98 73 144 27z"/>
<path d="M6360 640 c-30 -11 -56 -19 -57 -20 -2 0 -3 7 -3 15 0 11 -12 15 -45
15 l-45 0 0 -235 0 -235 50 0 50 0 0 185 0 185 24 10 c59 22 93 23 115 1 20
-20 21 -32 21 -201 l0 -180 51 0 51 0 -4 198 c-4 214 -10 242 -59 268 -38 19
-83 17 -149 -6z"/>
<path d="M6724 641 c-55 -25 -74 -54 -74 -114 0 -80 20 -104 114 -136 33 -12
67 -28 78 -37 24 -23 23 -59 -3 -85 -20 -20 -29 -21 -105 -16 l-84 5 0 -38 0
-38 73 -6 c118 -10 184 16 219 85 35 67 15 144 -43 175 -18 9 -53 22 -80 30
-59 18 -87 51 -69 84 17 31 57 42 128 35 l62 -7 0 35 c0 32 -3 35 -37 41 -68
11 -137 6 -179 -13z"/>
<path d="M7843 653 c-30 -4 -33 -8 -33 -38 l0 -34 90 6 c116 8 140 -5 140 -75
l0 -47 -85 -1 c-69 0 -90 -4 -113 -20 -43 -32 -64 -81 -58 -138 12 -111 80
-144 263 -131 l93 7 0 185 c0 265 -12 286 -174 289 -50 1 -106 0 -123 -3z
m197 -334 l0 -81 -60 4 c-74 5 -95 22 -95 79 0 57 29 79 101 79 l54 0 0 -81z"/>
<path d="M8593 653 c-30 -4 -33 -8 -33 -37 l0 -32 101 0 c115 1 129 -7 129
-78 l0 -41 -83 -1 c-55 0 -92 -6 -113 -17 -44 -23 -67 -77 -62 -144 9 -105 83
-141 265 -128 l95 8 -4 198 c-3 182 -5 200 -24 226 -11 15 -36 33 -55 40 -32
11 -147 14 -216 6z m197 -333 l0 -80 -55 0 c-46 0 -60 4 -80 25 -31 30 -32 73
-4 109 18 23 28 26 80 26 l59 0 0 -80z"/>
<path d="M9590 640 c-65 -24 -60 -23 -60 -5 0 11 -11 15 -40 15 l-40 0 0 -235
0 -235 45 0 45 0 0 184 0 184 28 10 c56 23 82 25 107 8 l25 -16 0 -185 0 -185
50 0 50 0 0 183 c0 210 -8 250 -53 277 -40 25 -87 25 -157 0z"/>
<path d="M10658 653 c-24 -4 -28 -9 -28 -37 l0 -32 99 0 c65 1 104 -3 112 -11
6 -6 14 -33 16 -60 l5 -48 -84 -1 c-132 -1 -178 -38 -178 -144 0 -119 70 -159
258 -145 l92 7 0 194 c0 224 -5 242 -70 268 -38 15 -150 20 -222 9z m202 -333
l0 -80 -54 0 c-72 0 -106 26 -106 81 0 59 26 79 100 79 l60 0 0 -80z"/>
<path d="M12069 650 c-86 -26 -123 -93 -122 -224 0 -127 31 -192 108 -234 32
-17 177 -23 228 -9 23 6 27 13 27 43 0 34 -1 35 -30 29 -56 -12 -135 -8 -169
9 -33 17 -61 66 -61 106 0 19 6 20 135 20 l135 0 0 72 c0 96 -27 153 -84 179
-42 19 -120 24 -167 9z m111 -70 c20 -10 40 -59 40 -96 0 -23 -2 -24 -85 -24
-95 0 -100 5 -71 74 21 51 70 71 116 46z"/>
<path d="M840 415 l0 -235 45 0 45 0 0 235 0 235 -45 0 -45 0 0 -235z"/>
<path d="M2600 415 l0 -235 50 0 50 0 0 179 0 179 28 10 c15 6 46 14 70 17 41
7 42 8 42 46 0 38 -1 39 -35 39 -20 0 -52 -7 -72 -15 -19 -8 -37 -15 -39 -15
-2 0 -4 7 -4 15 0 11 -12 15 -45 15 l-45 0 0 -235z"/>
<path d="M4230 415 l0 -235 50 0 50 0 0 235 0 235 -50 0 -50 0 0 -235z"/>
<path d="M5540 415 l0 -235 50 0 50 0 0 235 0 235 -50 0 -50 0 0 -235z"/>
<path d="M9900 415 l0 -235 50 0 50 0 0 235 0 235 -50 0 -50 0 0 -235z"/>
<path d="M10420 415 l0 -235 50 0 50 0 0 235 0 235 -50 0 -50 0 0 -235z"/>
<path d="M11370 415 l0 -235 45 0 45 0 0 235 0 235 -45 0 -45 0 0 -235z"/>
<path d="M11544 543 c18 -60 50 -166 71 -236 l39 -128 60 3 60 3 63 205 c87
285 84 260 29 260 -52 0 -41 25 -102 -222 -21 -87 -41 -158 -44 -158 -3 0 -27
86 -54 190 l-50 190 -52 0 -52 0 32 -107z"/>
</g>
</svg>
