<?xml version="1.0" standalone="no"?>
<!DOCTYPE svg PUBLIC "-//W3C//DTD SVG 20010904//EN"
 "http://www.w3.org/TR/2001/REC-SVG-20010904/DTD/svg10.dtd">
<svg version="1.0" xmlns="http://www.w3.org/2000/svg"
 width="1042.000000pt" height="1042.000000pt" viewBox="0 0 1042.000000 1042.000000"
 preserveAspectRatio="xMidYMid meet">

<g transform="translate(0.000000,1042.000000) scale(0.100000,-0.100000)"
fill="#000000" stroke="none">
<path d="M4860 10410 c-935 -68 -1813 -371 -2581 -891 -519 -352 -1016 -848
-1373 -1371 -788 -1156 -1077 -2576 -805 -3958 147 -747 476 -1484 938 -2100
285 -381 668 -763 1058 -1056 673 -505 1487 -845 2333 -973 495 -75 1050 -75
1549 -1 381 57 780 164 1146 307 177 70 521 237 696 338 775 449 1439 1112
1889 1885 800 1376 927 3059 344 4534 -272 687 -683 1303 -1211 1817 -404 392
-823 689 -1328 939 -567 280 -1151 449 -1790 515 -179 19 -688 27 -865 15z
m360 -580 l0 -40 -64 0 c-35 0 -84 -3 -110 -6 -46 -7 -46 -7 -46 -45 l0 -39
105 0 105 0 0 -34 c0 -32 -2 -34 -46 -40 -26 -3 -71 -6 -100 -6 l-54 0 0 -50
0 -49 118 -3 117 -3 0 -35 0 -35 -155 -6 c-85 -4 -158 -4 -161 0 -4 3 -10 99
-14 213 l-7 207 83 4 c46 1 117 4 157 5 l72 2 0 -40z m334 -52 c83 -276 103
-349 97 -352 -4 -3 -26 -2 -49 1 -41 5 -43 8 -54 49 l-12 44 -77 0 -77 0 -16
-40 c-15 -38 -18 -40 -61 -40 -25 0 -45 4 -45 9 0 9 156 386 167 404 2 4 26 7
53 7 l49 0 25 -82z m-723 40 c0 -18 8 -113 18 -210 19 -195 20 -188 -43 -188
l-33 0 -18 206 c-20 228 -21 224 43 224 29 0 32 -3 33 -32z m-290 -37 c8 -38
9 -38 -109 -60 l-87 -17 1 -32 c3 -61 4 -62 86 -46 102 19 105 19 113 -17 9
-39 4 -42 -95 -58 -44 -8 -80 -16 -80 -20 0 -3 7 -41 15 -84 8 -43 15 -80 15
-82 0 -6 -81 -17 -86 -12 -7 6 -74 365 -74 392 0 18 15 23 138 46 75 15 141
26 147 24 5 -1 12 -16 16 -34z m1404 27 c2 -2 -9 -91 -25 -198 -17 -107 -30
-201 -30 -209 0 -10 -10 -12 -42 -7 -23 4 -44 9 -47 11 -3 4 43 340 55 394 4
21 9 23 45 18 23 -3 42 -7 44 -9z m260 -46 l130 -27 -3 -30 c-2 -17 -7 -33
-11 -38 -4 -4 -53 2 -110 14 -56 11 -104 19 -106 17 -2 -1 -6 -20 -10 -40 -7
-36 -6 -37 32 -47 21 -5 64 -15 96 -21 50 -10 57 -14 57 -35 0 -53 -3 -54
-106 -33 -53 11 -98 17 -101 15 -6 -7 -25 -89 -20 -93 1 -2 52 -14 112 -27
l110 -23 -3 -30 c-2 -16 -7 -33 -12 -38 -8 -8 -296 47 -308 58 -5 5 14 106 70
368 8 42 12 47 31 43 12 -3 81 -18 152 -33z m-2115 -52 c42 -12 105 -72 97
-93 -3 -8 -22 -18 -42 -21 -30 -6 -41 -3 -56 13 -37 40 -98 35 -133 -12 -43
-59 -7 -202 59 -234 56 -27 125 8 125 62 0 25 8 31 69 50 23 7 24 6 19 -45 -8
-83 -68 -143 -155 -156 -100 -15 -179 42 -213 154 -25 79 -25 125 -1 177 24
52 59 83 112 100 54 17 74 18 119 5z m2490 -46 c69 -20 127 -38 128 -40 4 -2
-17 -74 -21 -74 -1 0 -45 14 -97 30 -52 16 -98 30 -101 30 -4 0 -10 -12 -13
-27 -4 -16 -9 -36 -12 -45 -5 -17 4 -20 157 -64 14 -4 15 -10 6 -39 -6 -19
-15 -35 -21 -35 -6 0 -46 11 -89 24 l-78 24 -8 -21 c-5 -12 -16 -50 -26 -84
-10 -35 -21 -63 -25 -63 -8 0 -73 21 -78 26 -2 1 11 49 28 106 17 56 45 147
61 201 25 80 33 97 47 93 9 -3 73 -22 142 -42z m-2833 -78 l10 -34 -101 -37
c-55 -21 -102 -39 -104 -40 -7 -6 28 -75 37 -75 5 0 45 14 88 30 42 17 83 30
89 30 6 0 15 -15 21 -33 l10 -34 -89 -32 c-48 -19 -91 -37 -93 -42 -7 -10 25
-89 36 -89 5 0 50 16 101 35 51 19 98 35 103 35 11 0 38 -60 31 -67 -13 -13
-292 -111 -297 -105 -9 9 -151 384 -147 387 8 8 265 104 279 104 9 1 20 -12
26 -33z m3361 -105 c112 -57 142 -173 78 -299 -50 -99 -131 -143 -222 -123
-152 34 -208 166 -135 316 61 123 167 163 279 106z m-3758 -72 c33 -20 49 -37
50 -50 0 -3 -16 -13 -36 -22 -32 -16 -37 -16 -57 -2 -38 26 -85 19 -123 -19
-44 -44 -45 -90 -6 -167 32 -63 79 -93 130 -83 57 11 105 76 88 119 -5 14 -11
13 -47 -5 -22 -12 -42 -20 -44 -18 -8 10 -25 48 -25 58 0 10 148 85 155 78 8
-8 95 -189 95 -196 0 -5 -11 -14 -24 -20 -18 -8 -27 -7 -38 4 -12 13 -17 10
-39 -23 -47 -74 -151 -102 -235 -64 -99 45 -162 205 -120 304 43 103 188 159
276 106z m4041 -76 c16 -10 29 -21 29 -26 0 -5 -34 -70 -76 -145 -41 -75 -76
-141 -77 -146 -1 -5 36 -31 83 -57 83 -47 90 -55 75 -93 -7 -16 111 66 286
200 l55 42 42 -26 c23 -15 42 -31 42 -35 0 -20 -102 -413 -109 -420 -5 -5 -25
2 -45 15 -28 17 -35 28 -31 43 20 73 21 70 -45 115 l-61 42 -36 -28 c-34 -26
-37 -26 -62 -11 -14 10 -92 54 -174 98 l-147 81 34 62 c18 33 64 116 101 184
37 67 72 122 77 122 5 0 23 -8 39 -17z m-4547 -158 c9 -13 16 -28 16 -32 0 -4
-20 -21 -45 -36 -25 -16 -45 -33 -45 -39 0 -5 38 -68 85 -140 47 -71 87 -135
88 -140 1 -5 -14 -20 -34 -33 l-37 -24 -88 136 c-49 75 -92 141 -95 146 -4 5
-28 -5 -53 -23 -52 -35 -65 -35 -86 5 -13 24 -13 28 2 36 9 5 70 45 135 88 65
44 123 80 129 80 7 1 19 -10 28 -24z m2696 -175 c736 -67 1435 -348 2017 -812
153 -122 387 -349 515 -499 785 -926 1075 -2165 783 -3340 -133 -533 -370
-1011 -719 -1449 -190 -238 -503 -532 -759 -713 -537 -381 -1157 -609 -1827
-673 -204 -20 -611 -14 -800 11 -903 119 -1680 518 -2297 1177 -539 577 -881
1318 -980 2128 -24 202 -24 648 0 850 76 616 299 1214 633 1696 450 649 1068
1132 1794 1402 304 113 639 190 960 220 135 13 544 14 680 2z m-2917 -183
l188 -124 -37 -28 -37 -28 -42 23 -42 23 -57 -43 c-46 -35 -56 -48 -51 -64 19
-67 18 -71 -19 -100 -26 -20 -38 -24 -41 -14 -3 7 -34 103 -69 213 l-64 200
36 32 c21 18 39 32 42 33 3 0 90 -56 193 -123z m5506 30 c115 -97 133 -145 87
-242 -49 -106 -171 -181 -251 -155 -29 10 -121 76 -204 146 -8 7 265 331 274
326 6 -3 48 -37 94 -75z m-5854 -83 c17 -26 17 -27 -25 -69 l-43 -44 113 -126
113 -127 -32 -31 -32 -32 -42 45 c-23 25 -76 83 -118 129 l-76 84 -46 -43 -47
-43 -19 24 c-10 13 -20 28 -21 33 -4 12 230 225 246 226 7 0 19 -12 29 -26z
m6282 -361 l-27 -28 -78 78 -78 77 -29 -30 -29 -30 72 -73 72 -72 -27 -28 -28
-27 -72 72 -73 73 -37 -38 -38 -37 83 -83 82 -83 -28 -27 -28 -27 -112 113
-113 113 147 153 147 153 111 -111 111 -111 -28 -27z m-6535 61 l30 -16 -32
-33 c-27 -28 -36 -32 -50 -23 -13 9 -26 8 -50 -2 -40 -16 -62 -50 -58 -87 5
-42 39 -42 101 0 109 71 145 81 197 51 79 -47 80 -153 1 -237 -58 -64 -155
-86 -202 -48 l-24 19 29 31 c24 25 32 28 48 20 29 -16 62 -3 97 36 33 38 40
75 16 95 -19 15 -47 6 -115 -40 -73 -49 -113 -62 -148 -49 -67 26 -102 93 -81
157 37 111 152 172 241 126z m6788 -296 c51 -26 105 -99 116 -154 11 -57 -14
-123 -65 -174 -63 -63 -112 -85 -187 -85 -51 0 -66 4 -98 28 -118 90 -126 229
-20 327 87 80 172 99 254 58z m-7053 -3 c96 -29 192 -140 193 -223 0 -67 -56
-153 -124 -189 -72 -37 -176 -9 -256 68 -48 47 -70 93 -70 146 1 79 68 171
146 198 50 18 51 18 111 0z m7349 -387 c51 -81 59 -99 59 -141 0 -43 -4 -52
-37 -82 -84 -78 -156 -67 -228 36 l-41 59 -42 -28 c-81 -56 -83 -56 -107 -16
-13 20 -19 39 -14 44 18 18 329 219 340 219 5 1 37 -41 70 -91z m-7593 -8 c15
-17 27 -41 27 -53 0 -20 4 -23 35 -19 25 3 48 -3 81 -23 26 -15 57 -30 70 -34
l24 -6 -29 -43 -28 -43 -57 31 c-32 16 -67 30 -77 30 -19 0 -79 -72 -79 -95 0
-6 30 -30 66 -53 l66 -42 -21 -33 c-11 -17 -27 -31 -35 -31 -16 2 -333 201
-342 215 -7 12 96 176 133 211 49 46 118 41 166 -12z m7817 -369 l72 -134 -23
-18 c-36 -28 -46 -23 -75 34 -15 28 -37 71 -51 94 l-24 42 -35 -16 c-19 -9
-34 -20 -34 -25 0 -4 21 -46 46 -93 l45 -84 -32 -16 c-17 -9 -35 -13 -39 -8
-5 4 -27 43 -50 86 -23 42 -44 77 -46 77 -13 0 -84 -42 -84 -49 0 -4 23 -49
50 -100 28 -51 50 -95 50 -100 0 -4 -15 -14 -33 -23 l-33 -16 -31 57 c-17 31
-51 95 -77 142 l-46 86 188 100 c103 56 188 100 189 100 0 -1 34 -62 73 -136z
m-8034 17 c155 -79 194 -116 194 -181 0 -54 -38 -135 -79 -170 -26 -21 -43
-27 -82 -27 -42 0 -71 11 -187 71 -75 39 -138 73 -140 74 -2 2 6 22 18 44 l21
42 135 -71 c74 -38 145 -70 158 -70 25 0 60 33 71 68 12 41 -19 68 -155 137
-71 37 -130 70 -130 75 0 15 33 81 40 78 3 -2 64 -33 136 -70z m8158 -311 c77
-60 104 -175 57 -250 -12 -20 -31 -42 -42 -47 -16 -9 -21 -5 -36 25 -16 33
-16 37 0 64 27 45 22 88 -13 123 -28 27 -36 30 -76 25 -68 -7 -136 -46 -157
-89 -16 -33 -17 -40 -3 -71 16 -39 41 -57 80 -57 20 0 29 -8 41 -36 21 -51 20
-54 -27 -54 -85 1 -149 48 -176 129 -17 50 -15 89 9 138 56 116 248 172 343
100z m-8449 -19 c14 -6 25 -14 25 -18 0 -4 -18 -50 -39 -103 l-40 -97 36 -15
c19 -8 38 -13 42 -11 4 3 22 43 41 90 36 89 45 97 87 73 l21 -12 -34 -84 c-19
-47 -34 -90 -34 -96 0 -6 20 -18 45 -28 l46 -16 10 25 c16 43 72 179 75 182 7
9 75 -21 71 -32 -87 -218 -110 -272 -117 -279 -6 -7 -374 134 -389 148 -2 2
18 57 44 122 26 65 51 128 56 141 10 25 18 27 54 10z m8665 -499 c6 -23 9 -43
6 -46 -2 -3 -66 -22 -141 -43 -76 -22 -146 -47 -156 -56 -38 -34 -8 -134 40
-134 10 0 82 18 161 40 78 23 144 39 145 38 6 -6 24 -82 21 -85 -11 -12 -288
-83 -321 -83 -70 0 -115 44 -141 137 -16 59 -16 65 0 107 11 29 29 52 50 65
24 16 282 97 318 100 4 1 12 -17 18 -40z m-8774 -71 c-9 -53 -12 -58 -41 -58
-53 0 -84 -89 -49 -139 36 -50 181 -82 225 -48 46 35 51 98 11 135 -26 25 -27
30 -18 64 6 20 14 39 17 42 11 12 88 -65 99 -100 26 -78 -8 -179 -73 -222 -84
-56 -258 -22 -322 61 -48 64 -47 168 2 235 23 32 97 72 131 72 23 0 24 -2 18
-42z m8879 -330 c15 -67 15 -67 -108 -171 -65 -55 -116 -102 -113 -104 2 -2
55 5 117 16 150 28 147 28 155 -14 3 -20 4 -38 2 -41 -8 -7 -407 -78 -412 -73
-3 3 -8 23 -11 45 l-7 40 125 104 c69 58 122 106 119 107 -4 2 -65 -8 -137
-21 -71 -13 -132 -22 -133 -21 -2 2 -7 20 -12 40 -6 25 -5 38 3 41 15 5 366
71 389 73 11 1 20 -8 23 -21z m-9046 -44 c2 -2 -3 -49 -13 -105 -9 -55 -14
-104 -11 -109 3 -5 71 -20 76 -15 0 0 8 43 17 95 17 93 18 95 46 98 45 5 49
-7 31 -108 -9 -51 -14 -94 -12 -96 2 -2 25 -8 50 -13 54 -10 47 -22 72 123 8
49 17 91 19 94 3 2 21 1 41 -2 31 -6 36 -10 32 -29 -3 -12 -15 -80 -27 -152
-13 -71 -25 -133 -29 -137 -6 -6 -400 58 -409 67 -5 5 36 268 45 293 4 9 15
11 37 6 17 -3 33 -8 35 -10z m8815 -460 c-39 -27 -44 -36 -44 -83 0 -63 25
-97 63 -87 21 5 27 14 33 44 33 196 48 222 129 222 90 0 134 -48 142 -153 5
-74 -14 -120 -66 -154 -50 -33 -61 -30 -61 18 0 32 6 46 25 61 20 15 25 29 25
62 0 47 -22 86 -49 86 -29 0 -38 -19 -51 -105 -16 -110 -32 -143 -74 -160 -49
-21 -78 -19 -116 8 -54 36 -74 80 -74 162 -1 89 19 129 77 155 l42 19 9 -41
c8 -35 7 -43 -10 -54z m-8729 46 c33 -31 46 -80 38 -150 l-6 -57 48 -6 c26 -4
61 -7 78 -7 29 0 30 -1 24 -41 -3 -22 -8 -43 -11 -46 -5 -6 -215 8 -360 24
l-58 6 6 91 c10 124 21 160 58 191 29 24 38 27 95 23 48 -3 68 -9 88 -28z
m175 -388 c0 -47 0 -48 -42 -62 l-43 -15 -3 -77 -3 -78 46 -12 45 -12 0 -49
c0 -35 -4 -48 -12 -45 -7 3 -104 35 -216 73 l-203 67 3 51 3 52 205 77 c113
42 208 77 213 78 4 0 7 -22 7 -48z m8885 -87 c0 -107 -3 -124 -23 -157 -32
-51 -91 -78 -173 -78 -81 0 -130 14 -170 47 -48 41 -59 78 -59 203 l0 110 213
-2 212 -3 0 -120z m-429 -727 c1 -2 -8 -53 -21 -113 -13 -61 -24 -115 -25
-122 0 -13 92 -36 101 -25 3 4 14 48 23 97 24 128 22 122 57 117 17 -2 33 -10
36 -18 2 -7 -5 -59 -16 -115 -12 -56 -20 -103 -19 -104 8 -5 120 -26 122 -23
2 1 14 59 27 128 l25 125 29 -3 c17 -2 34 -8 39 -12 5 -5 -5 -81 -25 -179 -27
-139 -36 -170 -49 -167 -8 3 -109 23 -225 47 -115 23 -213 44 -216 48 -4 3 8
78 27 166 18 88 33 162 34 164 0 4 71 -6 76 -11z m-8666 -32 c0 -7 3 -27 6
-43 6 -28 4 -31 -29 -37 -49 -9 -73 -39 -61 -74 13 -38 43 -39 229 -3 87 17
164 31 170 31 12 0 31 -78 22 -87 -13 -12 -366 -73 -396 -68 -51 10 -87 52
-100 117 -19 89 5 130 94 165 41 16 65 16 65 -1z m305 -337 c101 -30 168 -205
117 -305 -42 -81 -124 -130 -235 -141 -146 -13 -235 67 -245 222 -4 66 -2 73
29 120 66 97 209 142 334 104z m8417 -130 c100 -73 187 -135 191 -139 5 -4 3
-26 -4 -48 l-12 -41 -61 -5 c-132 -11 -436 -14 -436 -4 0 6 5 29 12 51 l12 40
191 -7 c121 -5 186 -4 180 2 -5 6 -76 53 -157 106 -82 53 -148 99 -148 102 0
27 25 84 36 80 7 -3 95 -64 196 -137z m-8195 -353 c-2 -5 -100 -47 -218 -92
l-214 -82 -17 36 c-10 20 -16 41 -15 46 2 5 100 46 218 91 l214 82 17 -36 c10
-20 16 -40 15 -45z m8077 -7 c116 -44 212 -82 214 -83 8 -8 -32 -87 -42 -83
-170 62 -426 164 -426 170 0 15 29 77 36 77 4 0 102 -36 218 -81z m-224 -44
c17 -9 30 -17 30 -19 0 -2 -12 -29 -26 -61 -15 -32 -23 -60 -18 -65 5 -5 83
-43 173 -85 91 -41 166 -77 168 -79 3 -3 -16 -51 -33 -84 -1 -1 -81 34 -179
78 -98 44 -179 79 -181 77 -2 -2 -16 -30 -31 -64 l-28 -60 -37 16 -36 16 55
120 c30 66 65 144 78 173 13 28 27 52 30 52 3 0 19 -7 35 -15z m-7806 -60 c10
-25 16 -51 13 -58 -3 -6 -50 -75 -105 -152 -55 -77 -99 -142 -97 -144 2 -2 68
26 146 63 77 36 143 66 146 66 10 0 34 -73 26 -80 -4 -5 -100 -51 -213 -103
l-205 -96 -17 37 c-9 20 -17 42 -17 48 -1 6 46 77 104 159 58 82 105 152 105
157 0 4 -57 -20 -127 -53 -185 -88 -171 -85 -190 -44 -11 22 -13 39 -7 44 8 8
401 198 414 200 3 1 13 -19 24 -44z m251 -490 l94 -159 -27 -18 c-15 -10 -31
-18 -37 -18 -5 0 -23 22 -38 50 -15 27 -32 52 -38 55 -5 4 -84 -37 -175 -91
-90 -53 -166 -95 -168 -93 -1 2 -13 21 -25 41 l-22 37 170 100 170 101 -36 60
c-20 34 -34 62 -32 64 25 19 55 36 62 33 4 -1 50 -74 102 -162z m7570 79 c121
-21 221 -39 223 -40 2 -1 -7 -21 -20 -43 -23 -41 -23 -41 -77 -39 l-54 3 -39
-65 c-20 -36 -38 -72 -38 -80 0 -8 14 -28 31 -46 l31 -32 -23 -41 c-12 -23
-25 -41 -28 -40 -3 0 -78 84 -167 187 l-161 187 26 48 c22 41 30 47 51 43 14
-2 124 -21 245 -42z m-225 -354 c102 -67 187 -123 189 -125 6 -6 -40 -75 -50
-75 -8 0 -361 231 -382 250 -11 10 35 81 48 76 6 -2 94 -59 195 -126z m-227 7
l29 -23 -41 -52 c-23 -28 -41 -55 -41 -59 1 -4 70 -60 154 -123 l154 -115 -26
-35 c-14 -19 -27 -37 -28 -39 -2 -2 -74 49 -161 114 l-157 118 -25 -33 c-14
-19 -35 -44 -46 -57 l-20 -22 -29 24 -29 23 112 151 c62 83 116 151 120 151 3
0 19 -10 34 -23z m-6890 -118 c21 -5 53 -24 73 -41 119 -105 119 -251 -1 -356
-122 -107 -254 -109 -345 -6 -100 115 -77 252 61 357 68 51 138 67 212 46z
m6795 -343 c89 -76 162 -141 162 -145 -1 -3 -13 -21 -29 -39 l-28 -32 -159
136 c-222 190 -203 166 -170 209 33 42 9 55 224 -129z m-6332 -158 c20 -38 17
-97 -6 -136 -24 -39 -81 -66 -122 -58 -26 5 -28 3 -22 -18 7 -30 -14 -72 -61
-116 -20 -19 -40 -43 -44 -53 -6 -15 -12 -12 -44 21 l-38 39 50 55 c31 34 51
65 51 79 0 14 -18 42 -47 71 l-46 47 -69 -61 -69 -61 -32 32 -32 31 168 167
167 167 91 -89 c50 -50 97 -102 105 -117z m6214 37 l165 -165 -35 -34 -35 -34
-180 48 c-99 27 -182 47 -184 44 -3 -3 46 -56 109 -119 l115 -115 -30 -30 -30
-30 -168 168 -167 168 35 34 35 34 173 -47 c96 -26 178 -47 183 -47 5 0 -43
52 -106 115 l-114 115 29 30 c16 16 31 30 34 30 4 0 80 -74 171 -165z m-330
-324 l152 -175 -31 -28 c-17 -15 -35 -28 -39 -28 -4 0 -76 79 -160 175 l-153
175 33 29 c18 17 36 29 39 28 3 -1 75 -81 159 -176z m-5643 87 c84 -39 142
-137 128 -217 -11 -63 -19 -68 -58 -35 -28 24 -33 34 -29 60 9 62 -56 134
-121 134 -58 0 -135 -60 -176 -137 -26 -50 -6 -122 45 -162 32 -25 100 -28
132 -5 l23 16 -41 36 -41 37 23 28 23 28 72 -58 c40 -32 72 -61 73 -65 0 -4
-35 -50 -77 -103 l-77 -95 -23 22 c-17 16 -20 25 -13 39 14 26 14 26 -41 31
-101 10 -179 98 -179 204 0 29 5 66 12 81 24 55 81 124 125 150 80 46 138 50
220 11z m5551 -452 c10 -10 5 -18 -29 -40 l-41 -28 -42 30 -41 30 -69 -49
c-38 -26 -70 -50 -72 -52 -2 -2 3 -26 11 -52 8 -27 13 -50 12 -50 -1 -1 -19
-14 -39 -29 -28 -21 -39 -25 -43 -15 -2 8 -33 117 -68 244 l-65 230 46 31 46
30 190 -134 c105 -74 197 -140 204 -146z m-5145 148 c23 -15 43 -28 45 -29 3
-3 -109 -478 -114 -484 -1 -1 -21 7 -44 20 -32 18 -40 28 -37 44 21 89 24 79
-42 124 -84 57 -87 58 -130 23 l-38 -30 -42 27 -41 28 197 151 c109 84 199
152 201 152 1 0 21 -12 45 -26z m4591 -35 c10 -17 16 -32 14 -33 -1 -1 -28
-17 -58 -35 -30 -19 -56 -35 -58 -36 -2 -1 42 -78 96 -171 l100 -169 -37 -22
c-20 -12 -39 -23 -42 -23 -4 0 -51 74 -104 165 -53 91 -100 165 -103 165 -4 0
-29 -14 -57 -30 -27 -16 -54 -30 -60 -30 -13 0 -49 64 -38 67 4 2 76 44 158
93 83 49 155 89 160 90 6 0 19 -14 29 -31z m-4292 -153 c4 -6 8 -51 9 -101 1
-49 4 -130 8 -180 l6 -90 72 135 c40 74 74 139 76 145 2 5 21 2 44 -8 l40 -19
-105 -206 c-58 -114 -106 -209 -108 -211 -2 -2 -22 4 -43 14 -49 21 -48 19
-57 238 -3 92 -9 167 -13 167 -4 0 -38 -63 -76 -141 -39 -77 -73 -143 -77
-145 -6 -4 -63 20 -76 31 -2 2 45 98 105 213 l108 210 40 -20 c22 -12 43 -26
47 -32z m4017 -230 l174 -174 -43 -22 -42 -22 -37 36 -37 36 -82 -37 -82 -37
6 -52 7 -52 -43 -22 c-23 -12 -43 -20 -44 -18 -2 2 -13 104 -25 228 -12 124
-24 234 -26 246 -4 16 5 25 38 42 23 11 47 21 52 21 6 1 88 -77 184 -173z
m-3646 65 l25 -10 -90 -213 c-49 -117 -91 -215 -93 -216 -6 -6 -74 18 -80 28
-3 4 31 95 76 202 45 106 85 203 90 216 7 19 12 21 28 12 11 -5 31 -14 44 -19z
m236 -77 c33 -9 69 -30 94 -53 36 -34 41 -44 45 -95 5 -58 4 -58 -19 -51 -61
19 -69 25 -69 49 0 46 -89 97 -140 81 -25 -8 -43 -40 -36 -63 3 -10 46 -44 95
-75 102 -66 121 -90 121 -147 0 -56 -23 -96 -70 -120 -46 -24 -89 -25 -154 -6
-98 30 -156 92 -156 168 0 45 5 49 48 34 29 -10 38 -19 43 -44 8 -41 24 -60
67 -78 49 -20 95 -18 117 6 31 35 13 62 -83 124 -102 66 -127 99 -119 159 7
50 33 87 78 109 42 22 70 22 138 2z m2966 -18 c80 -61 126 -227 90 -321 -23
-61 -59 -86 -190 -133 l-111 -39 -73 207 c-40 114 -74 215 -74 225 -2 13 23
26 103 56 131 48 196 50 255 5z m-2539 -117 c24 -6 44 -14 44 -18 0 -3 12
-113 26 -244 15 -131 25 -239 23 -241 -2 -3 -25 1 -52 7 l-47 10 0 49 c0 55 5
51 -103 77 l-77 18 -26 -44 c-24 -41 -28 -44 -57 -37 -71 15 -71 12 -14 99 29
44 89 138 134 208 46 70 88 127 93 127 6 0 31 -5 56 -11z m1929 -28 c29 -17
72 -77 62 -87 -3 -3 -22 -10 -43 -14 -32 -8 -40 -6 -55 15 -24 30 -60 38 -109
25 -45 -12 -72 -45 -64 -78 8 -28 57 -42 152 -42 117 0 170 -34 179 -113 12
-104 -80 -177 -222 -177 -73 0 -120 25 -148 80 l-17 35 27 6 c52 12 71 10 78
-10 14 -44 99 -50 164 -10 32 19 40 49 22 78 -10 16 -89 29 -179 30 -100 2
-148 51 -140 143 4 33 13 57 29 74 64 69 186 90 264 45z m-1585 -36 c95 -14
174 -25 176 -25 7 0 4 -55 -5 -68 -6 -10 -21 -11 -71 -3 -35 6 -65 9 -67 8 -1
-2 -15 -89 -30 -193 l-28 -189 -45 3 c-25 2 -46 5 -48 6 -1 2 10 84 24 184 14
100 24 188 21 196 -4 9 -28 17 -69 21 l-63 7 3 39 c3 23 9 39 17 39 7 0 90
-11 185 -25z m1220 -7 c7 -62 47 -463 46 -464 0 -1 -22 -4 -47 -7 l-46 -6
-108 152 c-60 84 -110 154 -112 156 -10 13 -10 -17 3 -134 21 -198 22 -192
-26 -197 -38 -3 -40 -2 -45 27 -5 28 -45 420 -45 437 0 4 24 8 53 8 l52 0 105
-150 c58 -82 107 -149 110 -150 3 0 -2 71 -11 158 -9 86 -14 160 -12 165 4 6
83 11 83 5z m-924 -31 c5 -5 -24 -404 -32 -446 -5 -21 -8 -23 -47 -17 -23 4
-43 8 -44 10 -4 4 25 386 33 435 5 33 6 33 46 28 22 -3 42 -7 44 -10z m386
-13 c129 -67 159 -292 55 -411 -42 -47 -82 -63 -162 -63 -108 0 -162 31 -201
115 -27 57 -33 169 -12 239 17 57 84 122 139 135 55 13 141 5 181 -15z"/>
<path d="M5447 9687 c-15 -37 -27 -72 -27 -77 0 -6 20 -10 45 -10 52 0 52 0
27 89 l-18 65 -27 -67z"/>
<path d="M6957 9400 c-37 -29 -67 -98 -67 -154 0 -98 99 -142 174 -76 53 47
80 143 55 193 -30 58 -112 76 -162 37z"/>
<path d="M7688 8943 c-32 -24 -58 -47 -58 -51 0 -9 71 -55 76 -49 6 5 44 140
41 143 -1 1 -28 -18 -59 -43z"/>
<path d="M2460 8814 c0 -11 43 -128 49 -136 3 -4 23 7 44 25 l37 32 -65 43
c-36 23 -65 39 -65 36z"/>
<path d="M7963 8708 l-83 -102 26 -27 c34 -35 77 -53 109 -45 56 14 135 112
135 167 0 19 -83 109 -100 109 -3 0 -42 -46 -87 -102z"/>
<path d="M8673 8084 c-18 -9 -49 -34 -68 -55 -29 -33 -35 -47 -35 -85 0 -61
40 -104 97 -104 49 0 125 46 153 92 63 104 -36 206 -147 152z"/>
<path d="M1654 8080 c-35 -14 -64 -59 -64 -99 0 -53 39 -104 104 -136 66 -32
103 -28 141 17 56 67 18 156 -90 208 -44 21 -59 23 -91 10z"/>
<path d="M8978 7728 c-27 -16 -48 -33 -48 -37 0 -5 14 -27 30 -49 33 -46 60
-53 98 -26 29 20 28 50 -6 100 l-27 41 -47 -29z"/>
<path d="M1354 7665 c-21 -30 -35 -57 -33 -59 27 -22 84 -54 90 -50 4 2 22 29
39 59 33 57 31 85 -6 99 -37 14 -54 5 -90 -49z"/>
<path d="M681 5661 c-7 -5 -17 -33 -22 -62 -10 -63 -5 -69 62 -69 44 0 47 2
53 31 10 52 7 75 -12 92 -20 18 -59 22 -81 8z"/>
<path d="M741 5209 c-30 -10 -56 -21 -58 -23 -5 -5 115 -46 134 -46 9 0 13 15
13 45 0 53 -5 54 -89 24z"/>
<path d="M9530 5234 c0 -30 4 -64 10 -74 16 -30 92 -53 156 -48 79 7 104 35
104 119 l0 59 -135 0 -135 0 0 -56z"/>
<path d="M913 4064 c-55 -20 -113 -84 -113 -124 0 -106 82 -157 200 -124 109
30 157 98 129 178 -27 78 -113 106 -216 70z"/>
<path d="M8980 3093 c1 -5 29 -39 64 -76 l63 -68 31 53 c16 29 28 55 27 56 -4
4 -164 41 -177 42 -5 0 -8 -3 -8 -7z"/>
<path d="M1712 2584 c-61 -30 -107 -80 -121 -131 -20 -72 43 -153 119 -153 84
0 200 108 200 186 0 54 -71 124 -125 124 -12 0 -44 -12 -73 -26z"/>
<path d="M2068 2223 l-48 -49 53 -52 c59 -59 91 -66 125 -29 34 36 28 63 -30
123 l-53 55 -47 -48z"/>
<path d="M7714 1673 c3 -10 15 -49 27 -88 12 -38 23 -72 24 -73 5 -6 95 58 95
66 0 8 -135 112 -145 112 -4 0 -4 -8 -1 -17z"/>
<path d="M2801 1528 l-73 -61 53 -34 c30 -18 55 -30 56 -26 19 55 50 183 45
183 -4 -1 -40 -28 -81 -62z"/>
<path d="M7080 1299 c0 -31 19 -162 24 -167 2 -2 27 8 56 23 l51 26 -39 47
c-22 26 -52 58 -66 71 l-26 24 0 -24z"/>
<path d="M6621 1169 c-30 -10 -56 -20 -58 -22 -2 -3 95 -285 102 -294 6 -8
111 36 130 55 44 42 39 134 -11 219 -40 68 -69 76 -163 42z"/>
<path d="M4187 934 c-26 -42 -47 -80 -47 -84 0 -4 17 -11 38 -15 20 -3 47 -9
59 -12 21 -5 21 -3 16 79 -3 45 -9 89 -12 96 -5 8 -24 -14 -54 -64z"/>
<path d="M5145 936 c-37 -17 -59 -41 -74 -85 -25 -74 -11 -159 34 -207 28 -30
38 -34 82 -34 89 0 133 57 133 172 0 77 -23 126 -71 150 -40 21 -63 22 -104 4z"/>
</g>
</svg>
