<svg id="svg" version="1.1" xmlns="http://www.w3.org/2000/svg" xmlns:xlink="http://www.w3.org/1999/xlink" width="400" height="125.51319648093842" viewBox="0, 0, 400,125.51319648093842"><g id="svgg"><path id="path0" d="M61.167 0.316 C 60.938 0.484,60.438 0.800,60.057 1.019 C 58.104 2.139,57.343 2.591,56.583 3.085 C 56.125 3.383,55.439 3.804,55.058 4.022 C 54.334 4.435,52.464 5.542,51.645 6.042 C 50.419 6.790,50.048 7.010,49.583 7.269 C 49.308 7.421,49.046 7.592,49.000 7.648 C 48.954 7.704,48.579 7.930,48.167 8.150 C 47.754 8.370,47.304 8.642,47.167 8.755 C 47.029 8.869,46.617 9.122,46.250 9.320 C 45.883 9.517,45.246 9.899,44.833 10.170 C 44.421 10.440,43.971 10.713,43.833 10.776 C 43.696 10.838,43.208 11.126,42.750 11.413 C 42.292 11.701,41.804 11.989,41.667 12.053 C 41.529 12.117,41.152 12.337,40.829 12.543 C 40.506 12.748,39.805 13.179,39.272 13.500 C 38.739 13.821,38.028 14.253,37.693 14.461 C 37.358 14.669,36.933 14.914,36.750 15.005 C 36.567 15.097,36.217 15.302,35.973 15.461 C 35.729 15.620,35.091 16.004,34.556 16.314 C 34.021 16.624,33.208 17.121,32.750 17.419 C 32.292 17.716,31.605 18.138,31.225 18.355 C 30.530 18.752,28.738 19.811,27.770 20.398 C 27.484 20.571,27.025 20.850,26.750 21.016 C 26.475 21.183,26.006 21.443,25.708 21.595 C 25.410 21.747,25.167 21.938,25.167 22.019 C 25.167 22.100,25.101 22.167,25.021 22.167 C 24.896 22.167,24.003 22.655,23.029 23.256 C 22.876 23.351,22.450 23.596,22.083 23.802 C 21.717 24.008,21.215 24.305,20.969 24.463 C 20.722 24.621,19.822 25.157,18.969 25.655 C 18.115 26.153,17.379 26.609,17.333 26.668 C 17.287 26.726,17.137 26.824,17.000 26.884 C 16.862 26.944,16.450 27.181,16.083 27.412 C 15.717 27.642,15.173 27.958,14.875 28.113 C 14.577 28.268,14.333 28.447,14.333 28.511 C 14.333 28.575,14.202 28.671,14.042 28.723 C 13.881 28.776,13.450 29.009,13.083 29.242 C 12.717 29.474,12.322 29.711,12.206 29.767 C 12.091 29.824,11.153 30.387,10.123 31.018 C 9.093 31.649,7.912 32.353,7.500 32.583 C 7.087 32.813,5.907 33.518,4.877 34.149 C 3.847 34.780,2.909 35.342,2.794 35.399 C 2.678 35.456,2.283 35.692,1.917 35.925 C 1.550 36.157,1.119 36.391,0.958 36.443 C 0.798 36.496,0.667 36.600,0.667 36.675 C 0.667 36.750,0.517 36.858,0.333 36.917 C 0.117 36.985,0.000 37.169,0.000 37.438 L 0.000 37.853 2.042 37.756 C 3.165 37.702,6.108 37.512,8.583 37.333 C 11.058 37.154,14.433 36.923,16.083 36.819 C 17.733 36.715,19.216 36.559,19.379 36.473 C 19.638 36.337,24.894 31.909,26.250 30.685 C 26.525 30.437,27.650 29.476,28.750 28.549 C 29.850 27.623,31.958 25.827,33.435 24.558 C 34.911 23.288,37.309 21.237,38.762 20.000 C 41.140 17.976,53.808 7.152,54.833 6.269 C 55.063 6.072,56.769 4.610,58.625 3.021 C 60.481 1.432,62.000 0.102,62.000 0.066 C 62.000 -0.098,61.546 0.038,61.167 0.316 M102.843 18.458 C 102.852 18.891,103.141 19.060,107.968 21.469 C 113.507 24.232,116.226 25.598,116.750 25.878 C 116.933 25.977,117.458 26.239,117.917 26.462 C 118.375 26.685,118.862 26.932,119.000 27.012 C 119.138 27.092,121.313 28.203,123.833 29.481 C 126.354 30.759,130.329 32.778,132.667 33.969 C 144.775 40.138,145.000 40.240,145.000 39.584 C 145.000 39.280,142.827 36.789,139.917 33.758 C 139.550 33.376,138.466 32.206,137.509 31.157 C 135.208 28.637,132.882 26.333,132.638 26.333 C 132.531 26.333,132.325 26.227,132.180 26.096 C 131.884 25.829,130.712 25.372,129.833 25.179 C 129.512 25.109,128.837 24.933,128.333 24.789 C 127.484 24.544,125.947 24.124,123.917 23.580 C 123.458 23.457,122.641 23.232,122.100 23.079 C 121.559 22.926,120.434 22.631,119.600 22.423 C 118.766 22.216,117.671 21.928,117.167 21.784 C 116.662 21.640,115.763 21.400,115.167 21.252 C 114.571 21.103,113.596 20.840,113.000 20.668 C 111.938 20.361,110.492 19.970,108.333 19.407 C 107.249 19.123,105.898 18.754,104.152 18.262 C 102.911 17.913,102.832 17.925,102.843 18.458 M87.917 40.189 C 80.760 46.214,79.791 47.029,77.332 49.083 C 76.016 50.183,74.592 51.383,74.167 51.750 C 73.743 52.117,72.126 53.479,70.573 54.777 C 62.106 61.859,59.912 63.728,59.870 63.899 C 59.812 64.139,61.185 65.667,61.460 65.667 C 61.574 65.667,61.667 65.738,61.667 65.825 C 61.667 66.056,63.251 66.817,64.500 67.186 C 65.096 67.362,66.071 67.651,66.667 67.829 C 67.262 68.007,68.200 68.275,68.750 68.426 C 69.300 68.576,70.219 68.842,70.792 69.016 C 72.976 69.681,73.949 69.971,74.917 70.247 C 75.467 70.404,76.367 70.665,76.917 70.827 C 77.467 70.989,78.367 71.253,78.917 71.413 C 79.467 71.573,80.367 71.839,80.917 72.003 C 81.467 72.166,82.367 72.425,82.917 72.578 C 83.467 72.730,84.254 72.971,84.667 73.113 C 85.079 73.255,85.679 73.432,86.000 73.506 C 86.640 73.653,89.505 74.480,91.083 74.974 C 91.633 75.146,92.571 75.417,93.167 75.577 C 93.763 75.736,94.587 75.985,95.000 76.130 C 95.412 76.275,96.013 76.450,96.333 76.519 C 96.654 76.588,97.292 76.767,97.750 76.916 C 98.208 77.065,98.996 77.305,99.500 77.450 C 100.004 77.594,100.867 77.849,101.417 78.016 C 101.967 78.183,102.867 78.442,103.417 78.592 C 103.967 78.741,104.829 79.001,105.333 79.170 C 108.749 80.314,109.046 79.335,106.830 74.250 C 106.750 74.067,106.488 73.392,106.249 72.750 C 105.837 71.648,105.424 70.614,104.898 69.369 C 104.771 69.068,104.667 68.746,104.667 68.653 C 104.667 68.560,104.517 68.173,104.333 67.794 C 104.150 67.415,104.000 67.005,104.000 66.883 C 104.000 66.762,103.928 66.532,103.839 66.373 C 103.750 66.214,103.483 65.558,103.246 64.917 C 103.008 64.275,102.676 63.413,102.508 63.000 C 102.340 62.587,102.074 61.913,101.917 61.500 C 101.760 61.087,101.496 60.413,101.330 60.000 C 101.164 59.587,100.750 58.500,100.410 57.583 C 100.069 56.667,99.688 55.680,99.562 55.391 C 99.436 55.103,99.333 54.814,99.333 54.750 C 99.333 54.686,99.224 54.397,99.091 54.109 C 98.957 53.820,98.740 53.283,98.608 52.917 C 98.476 52.550,98.207 51.837,98.009 51.333 C 97.355 49.662,97.203 49.262,96.681 47.833 C 96.396 47.054,96.093 46.267,96.007 46.083 C 95.921 45.900,95.654 45.225,95.414 44.583 C 94.896 43.198,94.570 42.350,94.167 41.333 C 94.003 40.921,93.754 40.283,93.613 39.917 C 92.605 37.294,92.377 36.765,92.239 36.726 C 92.153 36.701,90.208 38.259,87.917 40.189 " stroke="none" fill="#fbd304" fill-rule="evenodd"></path><path id="path1" d="M58.413 0.327 C 57.365 0.690,56.478 0.973,53.667 1.839 C 52.429 2.220,51.117 2.630,50.750 2.751 C 50.383 2.872,49.183 3.248,48.083 3.586 C 46.983 3.925,45.671 4.334,45.167 4.495 C 44.663 4.657,43.837 4.910,43.333 5.059 C 42.829 5.207,41.592 5.598,40.583 5.927 C 39.575 6.256,38.577 6.559,38.366 6.601 C 38.155 6.642,37.705 6.776,37.366 6.897 C 37.027 7.018,36.225 7.277,35.583 7.473 C 34.942 7.669,33.592 8.089,32.583 8.407 C 31.575 8.725,29.850 9.257,28.750 9.589 C 27.650 9.921,26.337 10.332,25.833 10.502 C 25.329 10.672,24.017 11.086,22.917 11.422 C 21.817 11.758,20.617 12.131,20.250 12.251 C 19.397 12.529,15.826 13.644,13.250 14.436 C 12.150 14.774,10.463 15.300,9.500 15.605 C 8.537 15.910,7.375 16.272,6.917 16.409 C 6.458 16.545,5.183 16.952,4.083 17.311 C 2.983 17.670,1.840 18.016,1.542 18.079 C 0.795 18.236,0.795 18.759,1.542 18.895 C 2.401 19.051,19.119 19.355,20.239 19.235 C 21.386 19.112,22.148 18.832,24.750 17.579 C 25.758 17.094,26.958 16.517,27.417 16.296 C 27.875 16.076,28.400 15.814,28.583 15.714 C 28.896 15.542,29.793 15.106,36.833 11.703 C 38.346 10.972,40.896 9.737,42.500 8.958 C 44.104 8.180,45.717 7.397,46.083 7.220 C 46.450 7.042,46.900 6.815,47.083 6.715 C 47.267 6.614,48.504 6.011,49.833 5.373 C 51.946 4.359,56.868 1.975,58.958 0.954 C 60.203 0.345,59.777 -0.145,58.413 0.327 M59.833 2.107 C 57.467 4.148,54.035 7.086,45.833 14.090 C 39.977 19.090,29.601 27.967,24.509 32.333 C 22.103 34.396,20.015 36.177,19.868 36.292 C 19.631 36.478,19.681 36.615,20.329 37.542 C 21.691 39.494,23.581 42.168,25.335 44.627 C 26.298 45.978,28.873 49.615,31.057 52.708 C 33.240 55.802,35.071 58.333,35.126 58.333 C 35.793 58.333,37.964 55.101,39.173 52.307 C 39.742 50.992,40.302 49.729,40.417 49.500 C 40.531 49.271,40.791 48.708,40.994 48.250 C 41.681 46.697,41.882 46.251,42.027 45.956 C 42.107 45.795,42.817 44.182,43.605 42.373 C 44.393 40.564,45.095 39.008,45.164 38.917 C 45.233 38.825,45.723 37.737,46.253 36.500 C 46.783 35.262,47.512 33.612,47.872 32.833 C 48.233 32.054,48.645 31.154,48.789 30.833 C 48.932 30.512,49.113 30.119,49.192 29.959 C 49.271 29.799,50.017 28.112,50.850 26.209 C 52.454 22.546,52.994 21.330,53.492 20.250 C 53.661 19.883,53.931 19.283,54.091 18.917 C 54.251 18.550,54.453 18.109,54.540 17.936 C 54.627 17.763,55.095 16.713,55.580 15.603 C 56.448 13.616,56.956 12.479,57.785 10.667 C 58.319 9.497,58.668 8.713,58.935 8.083 C 59.051 7.808,59.419 6.983,59.753 6.250 C 60.679 4.214,60.779 3.992,61.251 2.917 C 61.492 2.367,61.788 1.729,61.909 1.500 C 62.121 1.096,62.416 -0.011,62.305 0.011 C 62.275 0.017,61.163 0.960,59.833 2.107 M64.598 0.625 C 64.858 0.969,66.049 2.525,67.247 4.083 C 68.444 5.642,70.997 8.970,72.920 11.480 C 74.843 13.990,77.919 18.002,79.756 20.397 C 83.822 25.697,88.537 31.850,90.713 34.695 L 92.329 36.806 93.456 36.903 C 94.076 36.957,95.971 37.153,97.667 37.339 C 99.362 37.525,101.763 37.785,103.000 37.915 C 104.237 38.046,106.300 38.280,107.583 38.435 C 108.867 38.589,110.592 38.770,111.417 38.835 C 112.974 38.959,116.362 39.338,119.667 39.757 C 120.721 39.891,121.885 40.000,122.255 40.000 C 122.624 40.000,123.974 40.149,125.255 40.331 C 128.298 40.763,129.667 40.776,129.667 40.373 C 129.667 40.096,129.495 39.945,128.493 39.339 C 128.260 39.199,127.635 38.821,127.103 38.500 C 126.572 38.179,125.959 37.804,125.741 37.667 C 123.853 36.474,122.771 35.833,122.647 35.833 C 122.566 35.833,122.500 35.772,122.500 35.698 C 122.500 35.623,122.256 35.435,121.958 35.279 C 121.660 35.124,121.192 34.858,120.917 34.688 C 120.642 34.517,119.779 33.983,119.000 33.500 C 118.221 33.017,117.378 32.501,117.127 32.353 C 116.178 31.792,112.399 29.453,112.000 29.180 C 111.771 29.023,111.246 28.712,110.834 28.489 C 110.422 28.266,110.010 28.026,109.918 27.956 C 109.409 27.570,105.528 25.167,105.413 25.167 C 105.367 25.167,104.971 24.923,104.532 24.625 C 103.780 24.114,103.532 23.962,102.625 23.458 C 102.419 23.344,102.212 23.204,102.167 23.148 C 102.121 23.092,101.858 22.921,101.583 22.768 C 101.308 22.615,100.881 22.361,100.633 22.203 C 100.385 22.046,98.967 21.167,97.482 20.250 C 95.997 19.333,94.400 18.342,93.933 18.047 C 93.466 17.751,92.746 17.318,92.333 17.083 C 91.921 16.848,91.269 16.452,90.886 16.203 C 90.502 15.954,89.577 15.375,88.829 14.917 C 88.082 14.458,87.295 13.971,87.080 13.833 C 86.865 13.696,86.028 13.186,85.219 12.699 C 84.411 12.213,83.225 11.480,82.583 11.070 C 81.942 10.661,81.304 10.276,81.167 10.215 C 81.029 10.154,80.579 9.870,80.167 9.583 C 79.754 9.297,79.304 9.012,79.167 8.949 C 79.029 8.887,78.392 8.496,77.750 8.081 C 77.108 7.666,76.433 7.252,76.250 7.162 C 76.067 7.071,75.227 6.566,74.384 6.040 C 73.540 5.514,72.120 4.633,71.228 4.083 C 70.336 3.533,69.226 2.843,68.761 2.550 C 68.297 2.257,67.258 1.628,66.454 1.152 C 65.649 0.676,64.951 0.222,64.902 0.143 C 64.854 0.064,64.659 -0.000,64.470 -0.000 C 64.147 -0.000,64.154 0.035,64.598 0.625 M192.769 48.244 C 192.621 48.470,192.500 48.698,192.500 48.751 C 192.500 48.804,192.420 48.938,192.323 49.049 C 192.225 49.159,191.456 50.308,190.614 51.602 C 189.772 52.895,189.008 54.065,188.917 54.202 C 188.319 55.091,186.915 57.225,181.917 64.833 C 178.566 69.934,176.257 73.446,175.138 75.143 C 174.512 76.093,174.000 76.937,174.000 77.018 C 174.000 77.100,173.934 77.167,173.854 77.167 C 173.643 77.167,173.281 78.113,173.410 78.323 C 173.574 78.588,180.833 78.553,181.181 78.286 C 181.402 78.117,183.221 75.471,183.499 74.914 C 183.545 74.821,184.173 73.865,184.894 72.789 L 186.204 70.833 193.477 70.840 L 200.750 70.846 202.167 73.013 C 202.946 74.204,203.660 75.308,203.753 75.465 C 204.206 76.228,205.270 77.791,205.562 78.125 C 205.886 78.493,205.959 78.500,209.696 78.500 C 214.085 78.500,214.006 78.538,212.940 76.929 C 212.632 76.464,212.014 75.523,211.565 74.837 C 211.117 74.152,210.690 73.514,210.618 73.420 C 210.545 73.327,209.777 72.162,208.911 70.833 C 208.045 69.504,207.259 68.304,207.164 68.167 C 206.957 67.865,205.318 65.392,205.083 65.026 C 204.992 64.883,204.673 64.407,204.375 63.968 C 204.077 63.529,203.833 63.129,203.833 63.078 C 203.833 63.027,203.757 62.895,203.663 62.785 C 203.570 62.674,203.101 61.983,202.622 61.250 C 202.142 60.517,201.694 59.892,201.625 59.861 C 201.556 59.831,201.500 59.736,201.500 59.651 C 201.500 59.566,201.250 59.141,200.944 58.706 C 200.638 58.271,200.357 57.840,200.319 57.749 C 200.281 57.658,199.059 55.783,197.602 53.583 C 196.146 51.383,194.698 49.190,194.385 48.708 C 193.733 47.707,193.218 47.559,192.769 48.244 M306.728 48.876 C 302.796 54.824,302.000 56.050,302.000 56.162 C 302.000 56.234,301.879 56.393,301.731 56.515 C 301.584 56.638,301.414 56.854,301.355 56.994 C 301.178 57.414,299.278 60.245,299.134 60.306 C 299.060 60.336,299.000 60.431,299.000 60.516 C 299.000 60.601,298.750 61.026,298.444 61.461 C 298.138 61.896,297.857 62.326,297.819 62.417 C 297.781 62.509,296.700 64.158,295.417 66.083 C 294.133 68.008,293.046 69.659,293.000 69.751 C 292.898 69.955,289.209 75.549,288.312 76.860 C 287.155 78.551,287.057 78.500,291.468 78.500 C 295.645 78.500,295.522 78.528,296.173 77.417 C 296.387 77.050,296.704 76.563,296.877 76.333 C 297.437 75.592,299.000 73.134,299.000 72.995 C 299.000 72.922,299.056 72.836,299.125 72.806 C 299.194 72.775,299.532 72.319,299.877 71.792 L 300.503 70.833 307.793 70.840 L 315.083 70.847 315.917 72.180 C 316.375 72.913,317.069 73.959,317.458 74.504 C 317.848 75.049,318.167 75.534,318.167 75.581 C 318.167 75.686,319.614 77.797,319.968 78.208 C 320.400 78.711,327.833 78.648,327.833 78.142 C 327.833 77.829,326.444 75.614,323.849 71.788 C 323.428 71.168,323.008 70.534,322.917 70.380 C 322.825 70.226,322.506 69.741,322.208 69.302 C 321.910 68.863,321.667 68.439,321.667 68.361 C 321.667 68.282,321.517 68.083,321.333 67.917 C 321.150 67.751,321.000 67.557,321.000 67.486 C 321.000 67.318,319.620 65.266,319.458 65.194 C 319.390 65.164,319.333 65.079,319.333 65.006 C 319.333 64.933,318.620 63.796,317.749 62.479 C 316.878 61.161,316.091 59.971,316.002 59.833 C 315.913 59.696,315.450 58.983,314.974 58.250 C 314.498 57.517,314.046 56.892,313.971 56.861 C 313.895 56.831,313.833 56.736,313.833 56.651 C 313.833 56.566,313.583 56.141,313.278 55.706 C 312.972 55.271,312.691 54.839,312.653 54.747 C 312.614 54.654,311.788 53.380,310.816 51.914 C 309.844 50.449,308.850 48.931,308.606 48.542 C 307.962 47.513,307.585 47.580,306.728 48.876 M137.200 49.367 C 137.047 49.519,137.000 53.170,137.000 64.783 L 137.000 80.000 137.358 80.000 C 137.647 80.000,138.985 79.091,139.333 78.658 C 139.379 78.600,139.979 78.078,140.667 77.496 C 141.354 76.914,142.169 76.208,142.477 75.927 C 143.415 75.072,143.851 74.693,147.083 71.917 C 147.617 71.458,148.135 71.005,148.235 70.909 C 148.335 70.812,149.279 69.994,150.333 69.091 C 151.387 68.187,152.389 67.304,152.559 67.129 C 152.895 66.782,152.771 66.696,154.016 68.140 C 154.121 68.263,154.663 68.938,155.219 69.640 C 155.775 70.342,156.318 70.992,156.426 71.083 C 156.534 71.175,157.211 72.000,157.930 72.917 C 158.648 73.833,159.324 74.658,159.430 74.750 C 159.537 74.842,160.094 75.517,160.667 76.250 C 161.241 76.983,161.925 77.790,162.187 78.042 L 162.664 78.500 167.332 78.500 C 172.535 78.500,172.571 78.491,171.529 77.407 C 171.271 77.137,170.347 76.092,169.478 75.083 C 167.344 72.608,167.037 72.253,166.167 71.260 C 165.754 70.789,165.079 69.997,164.667 69.501 C 164.254 69.005,163.767 68.445,163.583 68.258 C 163.400 68.070,162.546 67.092,161.686 66.084 C 160.827 65.075,160.039 64.175,159.936 64.083 C 159.833 63.992,159.429 63.530,159.039 63.058 L 158.330 62.199 158.873 61.744 C 159.310 61.378,160.685 60.169,161.897 59.083 C 162.000 58.992,162.571 58.506,163.167 58.004 C 163.762 57.503,164.442 56.903,164.676 56.671 C 165.160 56.193,166.705 54.855,167.729 54.027 C 168.107 53.722,168.797 53.122,169.261 52.694 C 170.330 51.710,172.079 50.184,172.443 49.918 C 173.327 49.272,172.718 49.167,168.078 49.167 C 163.088 49.167,163.435 49.089,161.750 50.576 C 161.108 51.143,160.328 51.826,160.017 52.095 C 159.705 52.363,159.330 52.702,159.183 52.846 C 158.962 53.064,156.705 55.063,154.017 57.420 C 153.705 57.693,153.330 58.035,153.183 58.179 C 153.037 58.323,152.317 58.957,151.583 59.588 C 150.850 60.218,149.950 61.010,149.583 61.349 C 149.217 61.687,148.709 62.140,148.454 62.357 C 148.200 62.573,147.675 63.039,147.288 63.391 C 146.900 63.744,146.227 64.332,145.792 64.698 L 145.000 65.364 145.000 57.588 C 145.000 52.546,144.939 49.698,144.827 49.489 C 144.616 49.094,137.586 48.981,137.200 49.367 M216.343 49.482 C 216.075 49.982,216.099 78.032,216.367 78.300 C 216.578 78.511,223.378 78.600,223.903 78.399 C 224.137 78.309,224.167 77.625,224.167 72.415 L 224.167 66.532 233.542 66.459 L 242.917 66.386 244.271 65.958 C 246.224 65.341,246.610 65.126,247.764 64.014 C 251.662 60.259,250.470 52.665,245.620 50.351 C 243.370 49.277,243.255 49.269,229.218 49.208 C 216.714 49.154,216.516 49.158,216.343 49.482 M262.500 49.273 C 260.191 49.611,259.466 49.748,258.750 49.982 C 256.444 50.735,254.954 52.311,254.007 55.000 C 253.033 57.765,253.934 61.794,255.985 63.845 C 258.304 66.164,259.162 66.345,268.500 66.495 C 276.859 66.629,276.919 66.637,277.995 67.681 C 279.328 68.975,279.065 71.562,277.500 72.551 C 276.503 73.182,275.822 73.224,264.917 73.321 L 254.250 73.417 254.250 75.917 L 254.250 78.417 266.833 78.417 L 279.417 78.417 280.662 78.025 C 284.773 76.735,286.356 74.542,286.394 70.083 C 286.419 67.101,285.877 65.535,284.308 64.059 C 283.933 63.706,283.506 63.285,283.360 63.125 C 283.213 62.965,283.027 62.833,282.947 62.833 C 282.867 62.833,282.602 62.699,282.359 62.534 C 280.803 61.481,277.975 61.169,269.925 61.163 C 264.252 61.158,263.429 61.073,262.543 60.398 C 260.980 59.205,260.931 56.428,262.455 55.375 C 263.757 54.476,264.179 54.440,274.458 54.375 L 284.000 54.314 284.000 51.841 C 284.000 49.741,283.960 49.354,283.736 49.268 C 283.460 49.162,263.225 49.167,262.500 49.273 M330.874 49.305 C 330.708 49.410,330.674 52.446,330.707 63.927 L 330.750 78.417 334.583 78.417 L 338.417 78.417 338.460 72.456 L 338.504 66.495 343.290 66.539 L 348.076 66.583 349.997 69.445 C 353.395 74.511,354.247 75.749,354.375 75.806 C 354.444 75.836,354.500 75.926,354.500 76.006 C 354.500 76.204,355.375 77.483,355.893 78.042 L 356.317 78.500 360.575 78.500 C 365.463 78.500,365.361 78.541,364.205 77.057 C 363.859 76.613,363.451 76.063,363.299 75.833 C 363.146 75.604,362.527 74.742,361.923 73.917 C 361.320 73.092,360.419 71.854,359.921 71.167 C 356.207 66.035,356.452 66.421,356.867 66.366 C 357.500 66.283,360.126 65.495,360.664 65.226 C 365.247 62.940,365.844 54.769,361.673 51.417 C 360.845 50.751,359.911 50.173,359.658 50.170 C 359.516 50.168,359.323 50.090,359.229 49.996 C 359.059 49.825,358.031 49.613,356.000 49.329 C 354.667 49.143,331.165 49.120,330.874 49.305 M380.500 49.282 C 371.359 50.836,366.049 57.955,367.579 66.603 C 367.908 68.463,369.089 71.329,369.873 72.170 C 370.034 72.344,370.167 72.532,370.167 72.588 C 370.167 72.644,370.260 72.786,370.375 72.902 C 370.490 73.019,370.910 73.471,371.310 73.907 C 372.951 75.696,375.099 77.045,377.750 77.949 L 379.083 78.405 389.546 78.462 L 400.009 78.520 399.963 75.969 L 399.917 73.417 391.667 73.325 C 385.679 73.259,383.234 73.176,382.750 73.022 C 373.373 70.044,373.430 57.567,382.833 54.817 C 383.828 54.526,384.548 54.500,391.749 54.497 C 396.058 54.496,399.679 54.434,399.796 54.360 C 399.957 54.258,399.998 53.615,399.963 51.737 L 399.917 49.250 390.417 49.230 C 385.192 49.220,380.729 49.243,380.500 49.282 M239.993 54.775 C 242.825 55.562,243.314 59.347,240.750 60.631 C 239.565 61.224,225.736 61.733,224.430 61.232 C 224.202 61.145,224.167 60.685,224.167 57.816 L 224.167 54.500 231.586 54.500 C 237.965 54.500,239.143 54.538,239.993 54.775 M354.345 54.769 C 358.278 55.936,357.564 60.510,353.356 61.107 C 351.352 61.391,338.980 61.414,338.700 61.133 C 338.484 60.917,338.401 54.821,338.611 54.611 C 338.878 54.345,353.406 54.490,354.345 54.769 M195.082 62.292 C 195.977 63.644,196.852 64.956,197.026 65.208 L 197.343 65.667 193.505 65.667 C 191.394 65.667,189.667 65.627,189.667 65.577 C 189.667 65.471,190.176 64.662,190.415 64.391 C 190.507 64.285,191.214 63.217,191.985 62.016 C 192.756 60.816,193.402 59.833,193.421 59.833 C 193.439 59.833,194.187 60.940,195.082 62.292 M308.000 59.994 C 308.000 60.082,308.402 60.744,308.894 61.466 C 309.385 62.188,309.816 62.847,309.852 62.931 C 309.888 63.015,310.273 63.621,310.708 64.279 C 311.144 64.937,311.500 65.518,311.500 65.571 C 311.500 65.624,309.811 65.667,307.746 65.667 L 303.991 65.667 304.267 65.133 C 304.419 64.840,304.627 64.507,304.730 64.393 C 304.833 64.280,305.549 63.207,306.322 62.010 C 307.606 60.023,308.000 59.549,308.000 59.994 M238.000 91.994 C 238.000 93.218,238.237 93.401,239.871 93.437 C 241.339 93.469,241.833 93.060,241.833 91.811 C 241.833 90.627,240.886 90.534,240.801 91.708 C 240.773 92.098,240.675 92.417,240.583 92.417 C 240.492 92.417,240.394 92.098,240.365 91.708 C 240.288 90.645,239.333 90.606,239.333 91.667 C 239.333 92.033,239.258 92.333,239.167 92.333 C 239.075 92.333,239.000 92.033,239.000 91.667 C 239.000 91.037,238.972 91.000,238.500 91.000 C 238.000 91.000,238.000 91.001,238.000 91.994 M0.500 94.667 L 0.500 95.667 1.667 95.667 L 2.833 95.667 2.833 94.667 L 2.833 93.667 1.667 93.667 L 0.500 93.667 0.500 94.667 M3.500 94.667 L 3.500 95.667 4.750 95.667 L 6.000 95.667 6.000 94.667 L 6.000 93.667 4.750 93.667 L 3.500 93.667 3.500 94.667 M31.833 97.661 C 31.833 102.214,32.021 101.892,29.419 101.806 C 27.119 101.731,27.013 101.617,27.006 99.208 L 27.000 97.500 25.848 97.500 L 24.695 97.500 24.639 99.430 C 24.591 101.111,24.541 101.391,24.260 101.597 C 23.854 101.893,7.536 101.953,6.989 101.661 C 6.691 101.501,6.667 101.288,6.667 98.827 C 6.667 95.810,6.760 95.970,5.218 96.359 C 4.720 96.484,4.428 96.658,4.375 96.859 C 4.318 97.075,4.139 97.167,3.772 97.169 C 0.147 97.182,-1.540 101.162,1.288 103.027 C 1.879 103.416,3.756 103.453,4.281 103.085 C 4.611 102.853,4.675 102.875,5.202 103.402 C 5.986 104.186,6.158 104.197,16.417 104.136 L 25.250 104.083 25.774 103.690 L 26.298 103.297 26.829 103.690 C 27.335 104.064,27.490 104.083,29.972 104.083 C 34.148 104.083,34.330 103.797,34.332 97.208 L 34.333 93.833 33.083 93.833 L 31.833 93.833 31.833 97.661 M51.500 94.833 L 51.500 95.833 52.667 95.833 L 53.833 95.833 53.833 94.833 L 53.833 93.833 52.667 93.833 L 51.500 93.833 51.500 94.833 M54.667 94.833 L 54.667 95.833 55.833 95.833 L 57.000 95.833 57.000 94.833 L 57.000 93.833 55.833 93.833 L 54.667 93.833 54.667 94.833 M69.167 97.661 C 69.167 102.151,69.329 101.833,67.036 101.833 C 64.436 101.833,64.339 101.736,64.336 99.125 L 64.333 97.500 63.167 97.500 L 62.000 97.500 62.000 99.058 C 62.000 101.684,61.874 101.829,59.583 101.829 C 57.210 101.829,57.000 101.606,57.000 99.092 L 57.000 97.500 55.833 97.500 L 54.667 97.500 54.667 99.333 C 54.667 101.729,54.581 101.833,52.604 101.833 C 49.910 101.833,49.667 101.600,49.667 99.016 L 49.667 97.500 48.510 97.500 L 47.354 97.500 47.302 100.681 L 47.250 103.863 46.782 104.265 C 46.265 104.709,44.789 104.833,44.141 104.486 C 43.650 104.223,43.590 104.393,43.816 105.403 C 44.347 107.776,48.749 107.073,49.522 104.492 L 49.704 103.886 50.560 104.044 C 52.084 104.327,55.208 104.112,55.810 103.683 L 56.325 103.317 56.843 103.700 C 57.628 104.281,62.197 104.287,62.979 103.708 C 63.598 103.251,63.569 103.251,64.168 103.694 C 65.164 104.430,69.581 104.331,70.508 103.551 C 71.429 102.776,71.500 102.369,71.500 97.896 L 71.500 93.833 70.333 93.833 L 69.167 93.833 69.167 97.661 M73.500 99.000 L 73.500 104.167 74.667 104.167 L 75.833 104.167 75.833 99.000 L 75.833 93.833 74.667 93.833 L 73.500 93.833 73.500 99.000 M85.833 94.742 L 85.833 95.667 86.842 95.667 L 87.851 95.667 87.800 94.792 L 87.750 93.917 86.792 93.867 L 85.833 93.817 85.833 94.742 M126.333 97.661 C 126.333 102.218,126.526 101.892,123.890 101.806 C 121.594 101.732,121.509 101.640,121.504 99.208 L 121.500 97.500 120.348 97.500 L 119.195 97.500 119.139 99.430 C 119.068 101.883,119.123 101.833,116.495 101.833 L 114.553 101.833 114.340 100.875 C 114.049 99.563,113.659 98.856,112.783 98.048 C 110.105 95.579,105.167 96.591,105.167 99.608 L 105.167 100.333 106.250 100.333 C 107.196 100.333,107.333 100.294,107.333 100.023 C 107.333 99.567,108.120 98.857,108.758 98.738 C 110.272 98.453,112.167 100.145,112.167 101.780 C 112.167 101.809,109.954 101.833,107.250 101.833 L 102.333 101.833 102.333 99.417 L 102.333 97.000 100.104 97.000 C 97.092 97.000,96.143 97.396,95.381 98.970 C 94.241 101.324,95.779 103.814,98.549 104.098 C 100.128 104.260,99.790 104.636,98.007 104.702 L 96.711 104.750 96.944 105.658 C 97.227 106.762,97.113 106.656,98.152 106.779 C 99.960 106.993,102.167 105.770,102.167 104.553 L 102.167 104.167 110.310 104.167 C 119.257 104.167,119.783 104.136,120.359 103.582 C 120.749 103.207,120.751 103.207,121.109 103.533 C 122.183 104.515,126.879 104.421,127.902 103.398 C 128.636 102.664,128.667 102.443,128.667 97.813 L 128.667 93.833 127.500 93.833 L 126.333 93.833 126.333 97.661 M130.833 99.000 L 130.833 104.167 132.000 104.167 L 133.167 104.167 133.167 99.000 L 133.167 93.833 132.000 93.833 L 130.833 93.833 130.833 99.000 M161.500 97.881 C 161.500 104.514,160.841 104.067,170.720 104.137 C 179.110 104.196,179.787 104.157,180.477 103.577 L 180.950 103.179 181.419 103.669 C 182.377 104.669,183.917 104.750,185.222 103.870 C 185.793 103.484,185.996 103.417,186.063 103.590 C 186.396 104.458,188.636 104.734,189.625 104.030 C 190.534 103.382,190.667 102.840,190.667 99.766 L 190.667 97.000 189.504 97.000 L 188.342 97.000 188.296 99.607 C 188.250 102.190,188.246 102.218,187.822 102.534 C 186.718 103.357,186.167 102.372,186.167 99.575 L 186.167 97.500 185.000 97.500 L 183.833 97.500 183.832 99.375 C 183.831 101.627,183.658 102.375,183.073 102.641 C 181.996 103.132,181.500 102.118,181.500 99.422 L 181.500 97.500 180.333 97.500 L 179.167 97.500 179.167 99.405 C 179.167 100.914,179.112 101.364,178.905 101.571 C 178.586 101.890,164.741 101.974,164.156 101.661 C 163.851 101.498,163.833 101.274,163.833 97.661 L 163.833 93.833 162.667 93.833 L 161.500 93.833 161.500 97.881 M192.667 99.000 L 192.667 104.167 193.833 104.167 L 195.000 104.167 195.000 99.000 L 195.000 93.833 193.833 93.833 L 192.667 93.833 192.667 99.000 M214.333 97.344 C 214.333 102.003,214.435 101.827,211.728 101.831 L 209.873 101.833 209.797 100.292 C 209.668 97.661,208.912 96.833,206.640 96.833 C 204.898 96.833,203.542 97.789,203.508 99.042 C 203.495 99.513,205.583 99.468,205.838 98.991 C 205.982 98.722,206.155 98.659,206.636 98.699 L 207.250 98.750 207.298 100.292 L 207.346 101.833 205.340 101.833 L 203.333 101.833 203.333 103.012 L 203.333 104.190 209.156 104.137 L 214.979 104.083 215.454 103.627 L 215.930 103.171 216.273 103.514 C 216.736 103.977,217.620 104.158,219.435 104.163 C 223.666 104.174,223.875 103.885,223.968 97.875 L 224.030 93.833 222.765 93.833 L 221.500 93.833 221.500 97.661 C 221.500 102.218,221.692 101.892,219.057 101.806 C 216.580 101.726,216.675 101.904,216.670 97.375 L 216.667 93.833 215.500 93.833 L 214.333 93.833 214.333 97.344 M238.833 97.468 C 238.833 101.858,238.887 101.720,237.141 101.794 C 235.368 101.870,235.426 101.967,235.364 98.840 C 235.311 96.219,235.303 96.167,234.947 96.169 C 234.304 96.174,233.085 96.612,233.037 96.856 C 233.005 97.013,232.564 97.161,231.727 97.294 C 229.119 97.709,227.923 99.514,228.842 101.650 C 229.497 103.173,231.721 103.944,232.959 103.077 C 233.304 102.835,233.353 102.850,233.793 103.342 C 234.697 104.354,239.050 104.527,240.060 103.591 L 240.453 103.226 240.888 103.601 C 241.796 104.382,244.898 104.337,245.797 103.530 C 246.694 102.725,246.833 101.936,246.833 97.661 L 246.833 93.833 245.667 93.833 L 244.500 93.833 244.500 97.500 C 244.500 101.907,244.495 101.921,242.796 101.798 C 241.190 101.682,241.175 101.641,241.170 97.375 L 241.167 93.833 240.000 93.833 L 238.833 93.833 238.833 97.468 M248.742 94.044 C 248.698 94.159,248.681 96.465,248.706 99.169 L 248.750 104.083 249.917 104.083 L 251.083 104.083 251.127 98.958 L 251.171 93.833 249.997 93.833 C 249.206 93.833,248.797 93.902,248.742 94.044 M303.167 97.731 L 303.167 101.628 302.792 101.728 C 302.201 101.887,296.232 101.850,295.799 101.685 C 295.166 101.445,294.923 100.822,295.170 100.073 C 295.369 99.469,295.359 99.431,294.903 99.099 C 294.642 98.909,294.315 98.621,294.177 98.460 C 293.555 97.733,292.998 98.531,292.884 100.312 C 292.780 101.940,293.195 102.827,294.417 103.583 L 295.224 104.083 299.574 104.083 C 303.825 104.083,303.936 104.075,304.398 103.711 L 304.872 103.338 305.394 103.711 L 305.917 104.083 315.194 104.083 L 324.472 104.083 324.979 103.708 C 325.593 103.254,325.588 103.255,325.986 103.653 C 326.501 104.168,330.057 104.352,331.176 103.922 C 331.325 103.865,331.634 103.993,331.902 104.224 C 333.130 105.278,335.493 105.208,336.668 104.082 C 337.084 103.683,337.105 103.681,337.921 103.934 C 339.177 104.325,343.000 104.186,343.630 103.727 C 344.713 102.938,344.833 102.355,344.833 97.881 L 344.833 93.833 343.667 93.833 L 342.500 93.833 342.500 97.571 C 342.500 102.112,342.643 101.833,340.321 101.833 C 338.353 101.833,338.102 101.677,337.918 100.346 C 337.596 98.002,335.318 96.645,332.901 97.355 C 331.489 97.770,330.757 98.759,330.426 100.703 C 330.262 101.666,329.988 101.833,328.582 101.833 C 326.230 101.833,326.169 101.712,326.168 97.042 L 326.167 93.833 325.000 93.833 L 323.833 93.833 323.833 97.500 C 323.833 102.438,325.073 101.853,314.731 101.796 L 306.304 101.750 305.902 101.282 C 305.505 100.820,305.500 100.774,305.500 97.324 L 305.500 93.833 304.333 93.833 L 303.167 93.833 303.167 97.731 M346.833 99.000 L 346.833 104.167 348.000 104.167 L 349.167 104.167 349.167 99.000 L 349.167 93.833 348.000 93.833 L 346.833 93.833 346.833 99.000 M373.033 94.228 C 371.297 94.977,370.171 96.574,370.168 98.292 L 370.167 99.167 374.011 99.167 C 376.153 99.167,377.988 99.238,378.155 99.327 C 378.659 99.597,378.909 100.414,378.667 100.999 C 378.318 101.843,378.136 101.855,366.798 101.800 C 354.470 101.741,355.777 102.032,355.694 99.328 L 355.637 97.500 354.485 97.500 L 353.333 97.500 353.333 100.342 C 353.333 104.368,352.509 105.422,350.082 104.500 L 349.643 104.332 349.760 105.291 C 349.888 106.329,349.955 106.415,350.833 106.665 C 352.736 107.208,354.552 106.389,355.326 104.639 L 355.665 103.873 356.390 104.028 C 358.867 104.556,379.667 104.061,379.667 103.473 C 379.667 103.396,379.750 103.333,379.851 103.333 C 380.785 103.333,381.518 100.379,380.931 98.979 C 380.204 97.242,379.248 96.835,375.882 96.828 L 373.250 96.822 373.643 96.494 C 373.979 96.215,374.291 96.167,375.768 96.167 L 377.500 96.167 377.500 95.000 L 377.500 93.833 375.708 93.840 C 374.220 93.846,373.767 93.911,373.033 94.228 M353.333 95.417 L 353.333 96.333 354.500 96.333 L 355.667 96.333 355.667 95.417 L 355.667 94.500 354.500 94.500 L 353.333 94.500 353.333 95.417 M298.495 95.449 C 297.910 95.849,297.839 95.995,297.836 96.792 C 297.834 97.386,297.780 97.500,297.502 97.500 C 297.204 97.500,296.667 98.371,296.667 98.854 C 296.667 99.106,299.950 99.025,300.591 98.758 C 301.871 98.223,301.315 97.272,299.826 97.449 C 299.069 97.538,299.000 97.517,299.000 97.200 C 299.000 96.773,299.298 96.564,299.548 96.815 C 299.951 97.218,301.000 97.041,301.000 96.571 C 301.000 95.496,299.444 94.799,298.495 95.449 M84.333 97.083 L 84.333 98.000 85.417 98.000 L 86.500 98.000 86.500 97.083 L 86.500 96.167 85.417 96.167 L 84.333 96.167 84.333 97.083 M87.000 97.083 L 87.000 98.000 88.083 98.000 L 89.167 98.000 89.167 97.083 L 89.167 96.167 88.083 96.167 L 87.000 96.167 87.000 97.083 M394.792 96.753 C 394.186 96.976,393.545 97.538,393.053 98.277 C 392.921 98.476,392.751 99.259,392.675 100.017 C 392.498 101.771,392.413 101.839,390.426 101.817 C 387.889 101.789,387.702 101.595,387.679 98.958 L 387.667 97.500 386.500 97.500 L 385.333 97.500 385.333 100.428 C 385.333 103.403,385.268 103.783,384.651 104.375 C 384.300 104.712,382.696 104.783,382.141 104.486 C 381.657 104.227,381.612 104.363,381.841 105.387 C 382.393 107.852,386.946 106.994,387.563 104.309 C 387.661 103.883,387.688 103.874,388.374 104.032 C 389.562 104.307,392.919 104.125,393.318 103.764 C 393.640 103.473,393.676 103.475,394.412 103.831 C 397.310 105.234,400.001 103.535,399.999 100.304 C 399.997 97.388,397.569 95.733,394.792 96.753 M282.906 96.835 C 281.594 97.242,280.667 98.882,280.667 100.796 L 280.667 101.866 279.171 101.808 C 277.069 101.726,276.936 101.579,276.860 99.246 L 276.803 97.500 275.651 97.500 L 274.500 97.500 274.500 99.504 C 274.500 102.061,275.285 101.833,266.489 101.833 L 259.333 101.833 259.333 100.420 C 259.333 97.796,258.505 96.833,256.246 96.833 C 254.395 96.833,253.445 97.450,253.104 98.875 L 252.994 99.333 254.123 99.333 C 255.073 99.333,255.286 99.280,255.461 99.000 C 256.145 97.905,257.000 98.778,257.000 100.572 L 257.000 101.833 254.917 101.833 L 252.833 101.833 252.833 103.006 L 252.833 104.178 263.986 104.131 L 275.139 104.083 275.671 103.690 L 276.202 103.297 276.726 103.690 C 277.248 104.082,277.272 104.084,282.708 104.137 L 288.167 104.191 288.167 103.012 L 288.167 101.833 285.583 101.833 L 283.000 101.833 283.000 101.228 C 283.000 99.137,284.752 97.992,285.385 99.668 C 285.569 100.155,285.599 100.167,286.722 100.167 L 287.871 100.167 287.754 99.375 C 287.441 97.255,285.253 96.109,282.906 96.835 M38.003 97.346 C 34.638 98.872,35.500 103.478,39.259 104.059 C 40.898 104.313,40.679 104.667,38.883 104.667 C 37.516 104.667,37.516 104.666,37.931 105.882 C 38.314 107.006,39.748 107.187,41.544 106.337 C 43.038 105.630,43.076 105.501,43.136 100.958 L 43.188 97.000 40.969 97.004 C 39.099 97.007,38.632 97.061,38.003 97.346 M90.971 99.256 C 90.928 101.038,90.864 101.546,90.667 101.671 C 90.401 101.838,84.161 101.894,83.566 101.735 C 82.987 101.579,82.637 100.650,82.939 100.068 C 83.188 99.587,81.926 98.053,81.419 98.221 C 80.702 98.460,80.292 101.171,80.822 102.167 C 81.741 103.893,82.396 104.083,87.417 104.083 C 93.184 104.083,93.216 104.060,93.306 99.708 L 93.362 97.000 92.194 97.000 L 91.026 97.000 90.971 99.256 M136.888 97.301 C 133.458 98.695,134.395 103.705,138.156 104.082 C 139.869 104.254,139.509 104.667,137.646 104.667 C 136.924 104.667,136.333 104.697,136.333 104.735 C 136.333 106.440,137.792 107.211,139.795 106.564 C 141.784 105.922,142.000 105.346,142.000 100.672 L 142.000 97.000 139.792 97.009 C 138.117 97.016,137.415 97.087,136.888 97.301 M157.167 99.244 C 157.167 102.031,157.458 101.833,153.355 101.833 C 149.296 101.833,148.423 101.466,149.109 100.049 C 149.346 99.561,148.474 98.341,147.670 98.035 C 147.079 97.810,146.503 100.681,146.916 101.794 C 147.657 103.791,148.715 104.168,153.550 104.163 C 159.215 104.156,159.667 103.774,159.667 98.992 L 159.667 97.000 158.417 97.000 L 157.167 97.000 157.167 99.244 M199.167 100.228 C 199.167 103.613,199.097 103.942,198.256 104.539 C 198.005 104.717,196.426 104.694,195.928 104.504 C 195.451 104.323,195.386 104.557,195.608 105.665 C 195.888 107.064,199.150 107.207,200.448 105.878 C 201.416 104.887,201.500 104.464,201.500 100.602 L 201.500 97.000 200.333 97.000 L 199.167 97.000 199.167 100.228 M150.500 98.167 L 150.500 99.167 151.667 99.167 L 152.833 99.167 152.833 98.167 L 152.833 97.167 151.667 97.167 L 150.500 97.167 150.500 98.167 M153.500 98.167 L 153.500 99.167 154.667 99.167 L 155.833 99.167 155.833 98.167 L 155.833 97.167 154.667 97.167 L 153.500 97.167 153.500 98.167 M397.281 98.862 C 398.277 99.798,397.607 102.167,396.347 102.167 C 395.387 102.167,395.083 101.726,395.083 100.333 C 395.083 98.603,396.206 97.852,397.281 98.862 M4.332 99.458 C 4.331 100.683,4.054 101.480,3.589 101.597 C 2.050 101.983,1.636 99.870,3.089 99.046 C 4.129 98.457,4.333 98.525,4.332 99.458 M233.000 99.756 C 233.000 101.129,232.695 101.667,231.917 101.667 C 230.476 101.667,230.482 99.727,231.925 98.946 C 232.864 98.438,233.000 98.540,233.000 99.756 M40.833 100.500 L 40.833 101.833 40.208 101.831 C 39.248 101.828,38.917 101.686,38.597 101.145 C 38.007 100.146,38.705 99.167,40.006 99.167 L 40.833 99.167 40.833 100.500 M99.833 100.521 L 99.833 101.876 98.969 101.793 C 96.908 101.595,96.964 99.167,99.029 99.167 L 99.833 99.167 99.833 100.521 M139.667 100.500 L 139.667 101.833 139.011 101.833 C 137.619 101.833,136.900 101.046,137.335 99.996 C 137.606 99.341,137.911 99.178,138.875 99.172 L 139.667 99.167 139.667 100.500 M335.114 99.529 C 336.118 100.472,335.470 102.833,334.207 102.833 C 333.218 102.833,332.917 102.405,332.917 101.000 C 332.917 99.270,334.039 98.519,335.114 99.529 M21.611 104.778 C 21.550 104.839,21.500 105.326,21.500 105.861 L 21.500 106.833 22.667 106.833 L 23.833 106.833 23.833 105.750 L 23.833 104.667 22.778 104.667 C 22.197 104.667,21.672 104.717,21.611 104.778 M24.667 105.750 L 24.667 106.833 25.833 106.833 L 27.000 106.833 27.000 105.750 L 27.000 104.667 25.833 104.667 L 24.667 104.667 24.667 105.750 M61.833 105.750 L 61.833 106.833 63.000 106.833 L 64.167 106.833 64.167 105.750 L 64.167 104.667 63.000 104.667 L 61.833 104.667 61.833 105.750 M119.111 104.778 C 119.050 104.839,119.000 105.326,119.000 105.861 L 119.000 106.833 120.250 106.833 L 121.500 106.833 121.500 105.750 L 121.500 104.667 120.361 104.667 C 119.735 104.667,119.172 104.717,119.111 104.778 M274.500 105.750 L 274.500 106.833 275.667 106.833 L 276.833 106.833 276.833 105.750 L 276.833 104.667 275.667 104.667 L 274.500 104.667 274.500 105.750 M49.667 117.583 L 49.667 123.167 50.250 123.167 C 50.808 123.167,50.833 123.141,50.833 122.570 L 50.833 121.974 51.519 122.561 C 53.104 123.917,55.884 123.396,57.022 121.529 C 57.623 120.544,57.589 117.850,56.964 116.888 C 55.723 114.978,53.067 114.521,51.490 115.945 L 50.833 116.539 50.833 114.269 L 50.833 112.000 50.250 112.000 L 49.667 112.000 49.667 117.583 M65.667 114.175 L 65.667 116.349 65.000 115.814 C 63.488 114.598,60.830 115.049,59.720 116.709 C 57.188 120.498,61.629 125.430,64.986 122.557 L 65.667 121.974 65.667 122.570 C 65.667 123.155,65.680 123.167,66.333 123.167 L 67.000 123.167 67.000 117.583 L 67.000 112.000 66.333 112.000 L 65.667 112.000 65.667 114.175 M78.500 117.583 L 78.500 123.167 79.250 123.167 L 80.000 123.167 80.000 117.583 L 80.000 112.000 79.250 112.000 L 78.500 112.000 78.500 117.583 M82.500 117.583 L 82.500 123.167 83.167 123.167 L 83.833 123.167 83.833 117.583 L 83.833 112.000 83.167 112.000 L 82.500 112.000 82.500 117.583 M95.000 117.583 L 95.000 123.167 95.667 123.167 L 96.333 123.167 96.334 120.542 C 96.336 117.168,96.673 116.516,98.421 116.505 C 100.178 116.494,100.500 117.124,100.500 120.575 L 100.500 123.167 101.180 123.167 L 101.859 123.167 101.805 120.012 C 101.745 116.561,101.706 116.417,100.602 115.594 C 99.902 115.070,97.530 115.091,96.961 115.625 C 96.353 116.196,96.333 116.144,96.333 114.000 L 96.333 112.000 95.667 112.000 L 95.000 112.000 95.000 117.583 M148.667 117.583 L 148.667 123.167 149.333 123.167 L 150.000 123.167 150.000 117.583 L 150.000 112.000 149.333 112.000 L 148.667 112.000 148.667 117.583 M219.667 114.103 L 219.667 116.206 219.063 115.746 C 216.473 113.770,212.905 116.175,213.197 119.699 C 213.453 122.787,217.045 124.525,219.139 122.574 L 219.583 122.159 219.636 122.663 C 219.685 123.140,219.727 123.167,220.427 123.167 L 221.167 123.167 221.167 117.583 L 221.167 112.000 220.417 112.000 L 219.667 112.000 219.667 114.103 M272.000 114.184 L 272.000 116.368 271.424 115.862 C 269.901 114.525,267.167 115.037,265.972 116.883 C 263.577 120.584,268.285 125.415,271.458 122.514 L 272.000 122.019 272.000 122.593 C 272.000 123.151,272.018 123.167,272.667 123.167 L 273.333 123.167 273.333 117.583 L 273.333 112.000 272.667 112.000 L 272.000 112.000 272.000 114.184 M338.500 117.583 L 338.500 123.167 339.250 123.167 L 340.000 123.167 340.000 120.678 C 340.000 117.170,340.344 116.500,342.146 116.500 C 343.820 116.500,344.167 117.234,344.167 120.775 L 344.167 123.167 344.917 123.167 L 345.667 123.167 345.667 120.758 C 345.667 117.708,345.498 116.895,344.674 115.966 L 344.038 115.250 342.561 115.250 C 341.283 115.250,341.010 115.302,340.542 115.636 L 340.000 116.023 340.000 114.011 L 340.000 112.000 339.250 112.000 L 338.500 112.000 338.500 117.583 M10.333 113.083 L 10.333 113.833 11.167 113.833 L 12.000 113.833 12.000 113.083 L 12.000 112.333 11.167 112.333 L 10.333 112.333 10.333 113.083 M41.665 112.875 C 41.483 113.173,41.334 113.471,41.334 113.538 C 41.334 113.605,41.042 114.280,40.686 115.038 C 39.758 117.012,39.153 118.350,38.331 120.250 C 37.934 121.167,37.509 122.065,37.388 122.245 C 36.942 122.908,37.096 123.191,37.871 123.135 C 38.633 123.079,38.591 123.128,39.327 121.440 L 39.737 120.500 42.505 120.500 L 45.273 120.500 45.823 121.833 L 46.374 123.167 47.103 123.167 C 48.094 123.167,48.106 123.228,46.419 119.583 C 46.206 119.125,45.838 118.319,45.600 117.792 C 45.362 117.265,44.986 116.440,44.765 115.958 C 44.545 115.477,44.203 114.708,44.005 114.250 C 43.239 112.471,43.134 112.333,42.543 112.333 C 42.104 112.333,41.930 112.441,41.665 112.875 M191.250 112.476 C 188.434 113.396,188.020 116.711,190.571 117.918 C 191.054 118.146,191.546 118.333,191.665 118.333 C 193.273 118.333,194.988 119.382,194.995 120.369 C 195.007 122.221,191.244 122.616,189.829 120.912 C 189.539 120.563,189.186 120.608,188.824 121.042 C 188.393 121.558,188.421 121.696,189.043 122.112 C 193.004 124.761,198.070 122.531,196.225 118.950 C 195.804 118.132,194.151 117.188,193.114 117.173 C 191.913 117.156,190.345 116.145,190.337 115.383 C 190.321 113.754,192.331 113.223,194.469 114.292 L 195.477 114.795 195.822 114.429 C 196.881 113.302,193.345 111.791,191.250 112.476 M223.500 113.083 L 223.500 113.833 224.250 113.833 L 225.000 113.833 225.000 113.083 L 225.000 112.333 224.250 112.333 L 223.500 112.333 223.500 113.083 M355.037 112.821 C 352.624 113.981,351.493 116.392,352.068 119.149 C 352.210 119.827,352.440 120.508,352.579 120.662 C 352.719 120.817,352.833 121.016,352.833 121.105 C 352.833 121.478,354.144 122.546,355.167 123.007 C 357.489 124.054,362.473 122.308,361.159 120.908 C 360.698 120.418,360.656 120.413,360.225 120.815 C 356.980 123.837,351.983 120.367,353.696 116.281 C 354.794 113.660,357.619 112.945,359.892 114.711 L 360.534 115.210 361.059 114.677 L 361.583 114.144 361.000 113.644 C 359.387 112.263,356.908 111.921,355.037 112.821 M0.000 117.833 L 0.000 123.167 0.667 123.167 L 1.333 123.167 1.333 121.751 L 1.333 120.336 2.350 119.303 C 3.353 118.285,3.371 118.275,3.642 118.613 C 3.793 118.802,4.288 119.435,4.741 120.020 C 5.194 120.605,5.776 121.304,6.033 121.574 C 6.291 121.844,6.670 122.312,6.876 122.615 C 7.219 123.119,7.322 123.164,8.125 123.166 C 9.226 123.167,9.306 123.379,7.201 120.704 C 6.212 119.446,5.197 118.143,4.945 117.809 L 4.487 117.201 6.658 114.976 C 9.156 112.415,9.112 112.500,7.945 112.500 L 7.056 112.500 4.325 115.375 C 2.823 116.956,1.535 118.275,1.463 118.306 C 1.392 118.336,1.333 117.042,1.333 115.431 L 1.333 112.500 0.667 112.500 L 0.000 112.500 0.000 117.833 M108.667 117.833 L 108.667 123.167 109.333 123.167 L 110.000 123.167 110.000 121.347 L 110.000 119.527 112.042 119.469 C 115.435 119.372,116.667 118.443,116.667 115.980 C 116.667 113.356,115.352 112.520,111.208 112.508 L 108.667 112.500 108.667 117.833 M280.333 117.833 L 280.333 123.167 281.000 123.167 L 281.667 123.167 281.667 121.167 L 281.667 119.167 283.125 119.170 L 284.583 119.174 285.083 119.920 C 285.358 120.330,285.640 120.666,285.708 120.666 C 285.777 120.667,285.833 120.743,285.833 120.837 C 285.833 121.570,287.557 123.167,288.349 123.167 C 289.378 123.167,289.384 123.111,288.467 121.972 C 286.210 119.168,286.142 119.010,287.013 118.593 C 288.939 117.670,289.463 115.422,288.131 113.797 C 287.245 112.716,286.394 112.500,283.027 112.500 L 280.333 112.500 280.333 117.833 M127.500 114.167 L 127.500 115.333 127.000 115.333 C 126.540 115.333,126.500 115.380,126.500 115.917 C 126.500 116.454,126.540 116.500,127.000 116.500 L 127.500 116.500 127.500 119.005 C 127.500 122.356,127.806 123.061,129.346 123.261 C 130.699 123.436,131.408 123.171,131.468 122.467 L 131.518 121.863 130.533 121.953 C 129.087 122.084,129.000 121.909,129.000 118.880 L 129.000 116.500 130.250 116.500 L 131.500 116.500 131.500 115.917 L 131.500 115.333 130.250 115.333 L 129.000 115.333 129.000 114.167 L 129.000 113.000 128.250 113.000 L 127.500 113.000 127.500 114.167 M198.833 114.167 L 198.833 115.333 198.333 115.333 C 197.873 115.333,197.833 115.380,197.833 115.917 C 197.833 116.454,197.873 116.500,198.333 116.500 L 198.833 116.500 198.834 119.125 C 198.834 122.302,198.990 122.782,200.141 123.146 C 201.430 123.554,202.570 123.242,202.635 122.465 L 202.686 121.847 201.870 121.943 C 200.367 122.121,200.333 122.059,200.333 119.077 L 200.333 116.500 201.500 116.500 L 202.667 116.500 202.667 115.917 L 202.667 115.333 201.500 115.333 L 200.333 115.333 200.333 114.167 L 200.333 113.000 199.583 113.000 L 198.833 113.000 198.833 114.167 M381.500 114.167 L 381.500 115.333 380.917 115.333 C 380.361 115.333,380.333 115.361,380.333 115.917 C 380.333 116.472,380.361 116.500,380.917 116.500 L 381.500 116.500 381.500 119.385 L 381.500 122.271 381.972 122.723 C 382.956 123.666,385.047 123.491,385.134 122.458 L 385.185 121.855 384.288 121.948 C 382.846 122.097,382.667 121.751,382.667 118.811 L 382.667 116.500 383.917 116.500 L 385.167 116.500 385.167 115.917 L 385.167 115.333 383.917 115.333 L 382.667 115.333 382.667 114.167 L 382.667 113.000 382.083 113.000 L 381.500 113.000 381.500 114.167 M114.077 114.178 C 115.217 114.729,115.618 116.028,114.952 117.017 C 114.350 117.913,113.677 118.149,111.708 118.159 L 110.000 118.167 110.000 115.979 L 110.000 113.791 111.792 113.865 C 112.855 113.909,113.784 114.037,114.077 114.178 M285.762 114.020 C 287.078 114.352,287.679 115.534,287.127 116.704 C 286.738 117.527,286.120 117.731,283.792 117.805 L 281.667 117.873 281.667 115.853 L 281.667 113.833 283.343 113.833 C 284.265 113.833,285.353 113.918,285.762 114.020 M42.833 115.008 C 42.833 115.082,43.105 115.729,43.438 116.446 C 43.771 117.163,44.180 118.069,44.349 118.458 L 44.655 119.167 42.484 119.167 C 41.290 119.167,40.345 119.110,40.382 119.042 C 40.420 118.973,40.655 118.467,40.903 117.917 C 41.152 117.367,41.458 116.692,41.584 116.417 C 41.711 116.142,41.950 115.606,42.115 115.226 C 42.387 114.603,42.833 114.468,42.833 115.008 M16.833 115.354 C 16.604 115.445,16.248 115.679,16.042 115.872 L 15.667 116.225 15.667 115.779 C 15.667 115.370,15.612 115.333,15.000 115.333 L 14.333 115.333 14.333 119.250 L 14.333 123.167 15.000 123.167 L 15.667 123.167 15.667 120.761 C 15.667 117.308,16.084 116.500,17.866 116.500 C 19.564 116.500,19.793 116.984,19.817 120.625 L 19.833 123.167 20.583 123.167 L 21.333 123.167 21.332 120.542 C 21.329 116.967,20.960 115.857,19.602 115.341 C 19.033 115.124,17.390 115.132,16.833 115.354 M25.239 115.335 C 23.123 115.991,22.328 119.374,23.838 121.294 C 24.923 122.673,27.571 122.966,28.965 121.861 L 29.667 121.305 29.663 121.778 C 29.646 123.995,27.294 125.028,24.960 123.844 L 24.004 123.359 23.664 123.791 C 22.528 125.236,27.516 126.244,29.439 124.958 C 30.915 123.972,31.073 123.421,31.139 119.042 L 31.194 115.333 30.431 115.333 C 29.690 115.333,29.667 115.349,29.667 115.841 L 29.667 116.349 29.000 115.814 C 28.272 115.228,26.368 114.986,25.239 115.335 M87.667 115.322 C 86.423 115.570,86.219 115.795,86.588 116.508 C 86.876 117.066,86.925 117.079,87.500 116.750 C 88.403 116.234,90.229 116.421,90.816 117.089 C 91.754 118.157,91.611 118.281,89.458 118.264 C 86.352 118.241,84.904 119.723,85.931 121.876 C 86.577 123.232,89.365 123.822,90.646 122.875 C 91.267 122.416,91.333 122.412,91.333 122.833 C 91.333 123.111,91.444 123.167,92.000 123.167 L 92.667 123.167 92.666 120.125 C 92.664 116.854,92.627 116.693,91.679 115.809 C 91.050 115.223,89.251 115.005,87.667 115.322 M120.303 115.330 C 119.073 115.701,118.058 117.196,117.886 118.888 C 117.700 120.711,118.981 122.755,120.580 123.190 C 122.764 123.783,125.882 122.397,124.752 121.335 L 124.351 120.958 123.693 121.479 C 122.272 122.604,119.773 121.892,119.464 120.274 L 119.380 119.833 122.440 119.833 L 125.500 119.833 125.500 119.303 C 125.500 117.680,124.289 115.640,123.129 115.308 C 122.595 115.156,120.836 115.169,120.303 115.330 M136.167 115.353 C 135.938 115.444,135.469 115.791,135.125 116.126 L 134.500 116.734 134.500 116.034 L 134.500 115.333 133.833 115.333 L 133.167 115.333 133.167 119.250 L 133.167 123.167 133.820 123.167 L 134.473 123.167 134.528 121.125 C 134.605 118.290,135.225 117.140,136.936 116.661 C 137.638 116.465,137.667 116.431,137.667 115.812 C 137.667 115.106,137.172 114.955,136.167 115.353 M141.066 115.299 C 138.580 116.134,137.603 119.523,139.201 121.767 C 140.791 124.000,144.504 123.812,146.048 121.420 C 148.127 118.199,144.757 114.059,141.066 115.299 M154.417 115.287 C 151.772 115.937,151.068 120.264,153.260 122.393 C 154.663 123.756,158.178 123.536,158.981 122.035 C 159.401 121.251,158.478 120.857,157.688 121.483 C 156.302 122.581,154.235 122.065,153.583 120.458 L 153.329 119.833 156.414 119.833 L 159.500 119.833 159.500 119.303 C 159.500 116.378,157.241 114.593,154.417 115.287 M172.833 115.345 C 172.604 115.441,172.248 115.679,172.042 115.872 L 171.667 116.225 171.667 115.779 C 171.667 115.370,171.612 115.333,170.997 115.333 L 170.327 115.333 170.372 119.208 L 170.417 123.083 171.042 123.135 L 171.667 123.187 171.667 120.838 C 171.667 117.467,172.131 116.500,173.750 116.500 C 175.335 116.500,175.667 117.223,175.667 120.678 L 175.667 123.167 176.333 123.167 L 177.000 123.167 177.000 120.593 C 177.000 117.166,177.339 116.500,179.080 116.500 C 179.669 116.500,179.953 116.597,180.299 116.918 L 180.750 117.336 180.805 120.251 L 180.861 123.167 181.608 123.167 L 182.354 123.167 182.302 120.208 C 182.245 116.952,182.081 116.314,181.120 115.603 C 180.082 114.836,177.602 115.110,176.876 116.072 L 176.607 116.430 176.072 115.846 C 175.488 115.208,173.786 114.945,172.833 115.345 M229.245 115.334 C 226.809 116.089,226.104 120.244,228.075 122.216 C 229.631 123.771,232.668 123.689,234.025 122.054 C 234.184 121.862,234.138 121.729,233.792 121.383 L 233.360 120.951 232.647 121.476 C 231.300 122.467,229.523 122.136,228.656 120.733 C 228.098 119.830,228.089 119.833,231.333 119.833 L 234.333 119.833 234.333 118.906 C 234.333 116.175,231.942 114.497,229.245 115.334 M237.417 115.275 C 236.398 115.552,235.654 117.035,236.003 118.091 C 236.245 118.826,236.775 119.191,238.417 119.751 C 239.916 120.262,240.333 120.553,240.333 121.083 C 240.333 122.093,238.433 122.365,237.047 121.553 L 236.285 121.106 235.886 121.570 C 234.577 123.091,239.653 123.993,241.088 122.495 C 241.820 121.731,241.822 120.053,241.091 119.474 C 240.572 119.062,238.942 118.333,238.539 118.333 C 237.614 118.333,236.970 117.176,237.602 116.651 C 238.011 116.312,239.476 116.396,240.278 116.805 L 240.968 117.157 241.247 116.732 C 241.904 115.729,239.336 114.752,237.417 115.275 M249.750 115.264 C 248.300 115.603,248.134 115.709,248.239 116.235 C 248.385 116.968,248.549 117.053,249.248 116.761 C 250.903 116.070,253.000 116.692,253.000 117.874 C 253.000 118.273,252.996 118.274,251.125 118.262 C 248.368 118.244,247.500 118.884,247.500 120.934 C 247.500 123.029,250.347 124.103,252.458 122.806 L 253.000 122.473 253.000 122.820 C 253.000 123.121,253.101 123.167,253.761 123.167 L 254.521 123.167 254.469 120.208 C 254.410 116.873,254.278 116.387,253.240 115.680 C 252.653 115.281,250.684 115.046,249.750 115.264 M259.167 115.345 C 258.938 115.441,258.581 115.679,258.375 115.872 L 258.000 116.225 258.000 115.779 C 258.000 115.370,257.945 115.333,257.333 115.333 L 256.667 115.333 256.667 119.250 L 256.667 123.167 257.333 123.167 L 258.000 123.167 258.000 120.894 C 258.000 117.378,258.454 116.500,260.275 116.500 C 261.890 116.500,262.167 117.096,262.167 120.575 L 262.167 123.167 262.917 123.167 L 263.667 123.167 263.667 120.276 C 263.667 117.082,263.481 116.374,262.443 115.599 C 261.914 115.204,259.880 115.046,259.167 115.345 M292.702 115.276 C 292.084 115.409,290.776 116.831,290.542 117.623 C 289.521 121.079,291.763 123.782,295.221 123.263 C 296.001 123.146,297.505 122.168,297.495 121.784 C 297.481 121.270,296.667 120.943,296.279 121.295 C 294.831 122.613,291.833 121.895,291.833 120.230 L 291.833 119.833 294.853 119.833 L 297.873 119.833 297.803 118.863 C 297.607 116.156,295.495 114.670,292.702 115.276 M300.583 115.400 C 298.371 116.377,298.968 118.901,301.596 119.681 C 303.046 120.112,303.667 120.528,303.667 121.070 C 303.667 122.086,301.776 122.371,300.398 121.564 C 299.676 121.140,299.643 121.136,299.319 121.429 C 298.224 122.420,301.189 123.748,303.250 123.190 C 306.205 122.389,305.090 118.333,301.915 118.333 C 301.470 118.333,300.667 117.629,300.667 117.239 C 300.667 116.365,302.554 116.094,303.700 116.803 L 304.277 117.159 304.661 116.639 L 305.045 116.119 304.648 115.816 C 303.850 115.209,301.551 114.973,300.583 115.400 M309.000 115.282 C 306.027 116.337,305.617 121.265,308.371 122.842 C 310.308 123.952,314.883 122.623,313.382 121.387 L 312.942 121.024 312.232 121.512 C 310.908 122.423,309.020 122.092,308.266 120.815 C 307.689 119.840,307.707 119.833,311.022 119.833 L 314.043 119.833 313.926 118.644 C 313.668 116.022,311.357 114.445,309.000 115.282 M317.167 115.311 C 316.247 115.512,315.790 115.816,315.923 116.138 C 315.986 116.291,316.076 116.548,316.122 116.708 C 316.224 117.064,316.328 117.070,316.939 116.751 C 318.232 116.077,320.667 116.674,320.667 117.666 C 320.667 117.743,320.707 117.912,320.757 118.042 C 320.833 118.238,320.526 118.276,318.966 118.264 C 315.818 118.240,314.209 119.998,315.488 122.064 C 316.288 123.354,318.945 123.757,320.224 122.781 L 320.833 122.316 320.833 122.742 C 320.833 123.136,320.889 123.167,321.604 123.167 L 322.375 123.167 322.301 120.292 C 322.183 115.751,320.892 114.499,317.167 115.311 M327.333 115.353 C 327.104 115.444,326.673 115.754,326.375 116.042 L 325.833 116.565 325.833 115.949 L 325.833 115.333 325.083 115.333 L 324.333 115.333 324.333 119.250 L 324.333 123.167 325.083 123.167 L 325.833 123.167 325.833 120.988 C 325.833 118.088,326.811 116.516,328.625 116.502 C 328.757 116.501,328.833 116.255,328.833 115.833 C 328.833 115.104,328.350 114.950,327.333 115.353 M332.073 115.335 C 328.746 116.365,328.941 122.227,332.333 123.169 C 333.526 123.501,335.798 123.190,335.970 122.673 C 336.002 122.578,336.125 122.500,336.245 122.500 C 336.806 122.500,336.998 121.740,336.550 121.292 L 336.125 120.867 335.383 121.434 C 333.331 123.000,330.628 121.237,331.104 118.642 C 331.480 116.597,333.722 115.724,335.329 116.997 L 336.027 117.549 336.453 117.122 C 337.602 115.974,334.326 114.638,332.073 115.335 M364.898 115.347 C 361.655 116.288,361.923 122.290,365.248 123.190 C 367.382 123.767,370.523 122.372,369.420 121.337 L 369.026 120.966 368.275 121.483 C 366.725 122.549,364.456 121.904,364.097 120.295 L 363.996 119.841 367.039 119.795 L 370.083 119.750 370.034 118.849 C 369.883 116.086,367.636 114.553,364.898 115.347 M374.333 115.354 C 374.104 115.445,373.748 115.679,373.542 115.872 L 373.167 116.225 373.167 115.779 C 373.167 115.370,373.112 115.333,372.500 115.333 L 371.833 115.333 371.833 119.250 L 371.833 123.167 372.489 123.167 L 373.144 123.167 373.197 120.515 L 373.250 117.863 373.767 117.223 C 374.220 116.663,374.385 116.577,375.089 116.531 C 377.066 116.403,377.333 116.872,377.333 120.469 L 377.333 123.167 378.083 123.167 L 378.833 123.167 378.832 120.542 C 378.829 116.967,378.460 115.857,377.102 115.341 C 376.533 115.124,374.890 115.132,374.333 115.354 M388.750 115.287 C 385.391 116.112,385.616 122.355,389.034 123.175 C 391.433 123.750,394.495 122.315,393.074 121.281 C 392.664 120.982,392.650 120.985,392.014 121.489 C 390.633 122.582,388.577 122.063,387.934 120.458 L 387.684 119.833 390.759 119.833 L 393.833 119.833 393.833 119.234 C 393.833 116.358,391.564 114.596,388.750 115.287 M398.728 115.282 C 398.532 115.320,398.063 115.616,397.686 115.939 L 397.000 116.526 397.000 115.930 C 397.000 115.334,396.999 115.333,396.250 115.333 L 395.500 115.333 395.500 119.250 L 395.500 123.167 396.250 123.167 L 397.000 123.167 397.000 121.039 C 397.000 118.160,397.416 117.340,399.196 116.707 C 400.727 116.164,400.334 114.967,398.728 115.282 M10.500 119.250 L 10.500 123.167 11.250 123.167 L 12.000 123.167 12.000 119.250 L 12.000 115.333 11.250 115.333 L 10.500 115.333 10.500 119.250 M69.192 118.375 C 69.256 121.715,69.396 122.219,70.461 122.941 C 71.167 123.419,73.297 123.379,73.979 122.875 C 74.600 122.416,74.667 122.412,74.667 122.833 C 74.667 123.117,74.778 123.167,75.417 123.167 L 76.167 123.167 76.167 119.250 L 76.167 115.333 75.417 115.333 L 74.667 115.333 74.667 117.923 C 74.667 120.667,74.590 120.982,73.750 121.703 C 73.182 122.190,71.823 122.101,71.302 121.542 C 70.559 120.745,70.500 120.474,70.500 117.844 L 70.500 115.333 69.817 115.333 L 69.135 115.333 69.192 118.375 M161.000 117.886 C 161.000 120.935,161.215 121.882,162.078 122.640 C 163.073 123.513,165.127 123.560,166.088 122.730 L 166.583 122.303 166.636 122.735 C 166.683 123.117,166.764 123.167,167.344 123.167 L 168.000 123.167 168.000 119.250 L 168.000 115.333 167.333 115.333 L 166.667 115.333 166.667 117.766 C 166.667 120.414,166.514 121.036,165.706 121.671 C 165.036 122.198,163.810 122.123,163.128 121.514 L 162.583 121.028 162.528 118.181 L 162.472 115.333 161.736 115.333 L 161.000 115.333 161.000 117.886 M204.335 117.958 C 204.338 121.381,204.404 121.737,205.181 122.514 C 206.182 123.516,208.267 123.622,209.333 122.725 L 209.833 122.304 209.833 122.735 C 209.833 123.127,209.894 123.167,210.500 123.167 L 211.167 123.167 211.167 119.250 L 211.167 115.333 210.500 115.333 L 209.833 115.333 209.833 117.993 L 209.833 120.653 209.192 121.326 C 208.152 122.420,206.754 122.264,205.948 120.964 C 205.716 120.591,205.667 120.061,205.667 117.923 L 205.667 115.333 205.000 115.333 L 204.333 115.333 204.335 117.958 M223.667 119.250 L 223.667 123.167 224.333 123.167 L 225.000 123.167 225.000 119.250 L 225.000 115.333 224.333 115.333 L 223.667 115.333 223.667 119.250 M28.667 116.989 C 29.512 117.653,29.818 118.608,29.481 119.530 C 28.476 122.289,24.505 121.634,24.501 118.708 C 24.499 116.701,26.991 115.672,28.667 116.989 M54.965 116.895 C 56.502 117.890,56.482 120.570,54.931 121.633 C 52.798 123.095,50.025 120.442,51.184 118.048 C 51.955 116.455,53.539 115.972,54.965 116.895 M64.476 116.961 C 65.574 117.778,65.922 119.201,65.325 120.434 C 64.314 122.523,61.803 122.568,60.721 120.515 C 59.360 117.935,62.188 115.258,64.476 116.961 M123.274 117.087 C 123.562 117.414,123.830 117.903,123.870 118.174 L 123.942 118.667 121.635 118.667 L 119.327 118.667 119.439 118.208 C 119.875 116.419,122.108 115.767,123.274 117.087 M144.061 116.879 C 144.324 117.065,144.717 117.599,144.934 118.067 C 146.386 121.185,142.287 123.590,140.341 120.761 C 138.623 118.264,141.611 115.144,144.061 116.879 M157.274 117.087 C 157.562 117.414,157.830 117.903,157.870 118.174 L 157.942 118.667 155.646 118.667 L 153.351 118.667 153.531 118.125 C 154.128 116.335,156.122 115.782,157.274 117.087 M217.817 116.500 C 218.928 116.500,220.079 118.661,219.657 119.954 C 219.080 121.722,216.987 122.667,215.843 121.675 C 215.638 121.497,215.420 121.328,215.360 121.300 C 214.688 120.991,214.415 118.469,214.963 117.637 C 215.537 116.767,216.555 116.248,217.305 116.442 C 217.427 116.474,217.658 116.500,217.817 116.500 M232.133 116.876 C 232.520 117.236,232.652 117.478,232.906 118.292 L 233.022 118.667 230.678 118.667 C 229.335 118.667,228.333 118.600,228.333 118.511 C 228.333 116.864,230.922 115.750,232.133 116.876 M270.803 116.895 C 272.957 118.277,271.942 122.000,269.411 122.000 C 266.931 122.000,265.881 118.682,267.809 116.939 C 268.528 116.289,269.829 116.270,270.803 116.895 M295.463 116.876 C 295.830 117.220,296.333 118.171,296.333 118.520 C 296.333 118.601,295.321 118.667,294.083 118.667 C 291.585 118.667,291.450 118.589,292.122 117.536 C 292.906 116.307,294.517 115.989,295.463 116.876 M311.699 116.870 C 311.916 117.079,312.185 117.460,312.297 117.716 C 312.709 118.662,312.700 118.667,310.250 118.667 C 307.652 118.667,307.564 118.597,308.545 117.311 C 309.356 116.248,310.839 116.040,311.699 116.870 M367.774 116.856 C 367.981 117.050,368.261 117.537,368.398 117.938 L 368.646 118.667 366.320 118.667 L 363.994 118.667 364.108 118.208 C 364.516 116.566,366.633 115.784,367.774 116.856 M391.464 116.876 C 391.926 117.308,392.078 117.572,392.230 118.208 L 392.340 118.667 390.012 118.667 L 387.684 118.667 387.865 118.125 C 388.408 116.495,390.340 115.825,391.464 116.876 M91.024 119.500 C 91.409 119.500,91.449 120.297,91.096 120.967 C 90.246 122.582,87.167 122.472,87.167 120.827 C 87.167 119.752,87.978 119.311,89.733 119.432 C 90.273 119.469,90.855 119.500,91.024 119.500 M252.125 119.441 L 253.000 119.546 253.000 120.265 C 253.000 121.957,250.333 122.841,249.214 121.519 C 248.077 120.175,249.540 119.131,252.125 119.441 M319.809 119.440 C 320.923 119.557,321.155 119.988,320.619 120.944 C 319.650 122.673,316.667 122.493,316.667 120.707 C 316.667 119.622,317.671 119.217,319.809 119.440 " stroke="none" fill="#838383" fill-rule="evenodd"></path><path id="path2" d="M63.773 0.292 C 63.727 0.452,63.607 1.558,63.506 2.750 C 63.405 3.942,63.211 6.229,63.075 7.833 C 62.939 9.438,62.677 12.438,62.492 14.500 C 62.307 16.563,62.047 19.525,61.915 21.083 C 61.782 22.642,61.525 25.567,61.343 27.583 C 60.557 36.306,60.310 39.087,60.076 41.833 C 59.786 45.247,59.288 50.775,58.920 54.667 C 58.446 59.685,58.601 62.062,59.493 63.440 C 59.761 63.854,59.015 64.414,65.828 58.681 C 70.367 54.862,75.649 50.427,81.417 45.593 C 86.870 41.023,90.817 37.706,91.532 37.095 L 92.147 36.568 90.939 34.993 C 90.275 34.126,88.239 31.467,86.415 29.083 C 84.590 26.700,81.594 22.791,79.757 20.398 C 77.920 18.004,74.470 13.504,72.090 10.398 C 63.264 -1.122,63.941 -0.299,63.773 0.292 M66.500 0.225 C 66.500 0.404,67.212 0.849,68.625 1.552 C 70.989 2.727,71.236 2.852,71.833 3.169 C 72.063 3.291,72.625 3.573,73.083 3.796 C 73.542 4.018,74.067 4.283,74.250 4.385 C 74.894 4.740,84.958 9.830,88.750 11.719 C 93.405 14.037,96.095 15.007,97.841 14.998 C 98.066 14.997,98.775 15.103,99.417 15.235 C 101.733 15.710,103.601 16.055,104.500 16.174 C 105.432 16.298,106.271 16.443,109.250 16.999 C 111.014 17.327,114.034 17.868,116.250 18.251 C 116.983 18.378,118.408 18.633,119.417 18.818 C 123.733 19.611,124.167 19.637,124.167 19.109 C 124.167 18.980,123.923 18.783,123.625 18.673 C 123.327 18.563,122.837 18.366,122.536 18.236 C 122.235 18.106,121.856 18.000,121.694 18.000 C 121.532 18.000,121.327 17.927,121.237 17.837 C 121.147 17.747,120.664 17.531,120.162 17.356 C 118.880 16.909,118.137 16.639,117.750 16.480 C 117.567 16.404,117.098 16.228,116.708 16.088 C 116.319 15.948,115.681 15.719,115.292 15.579 C 114.902 15.439,114.433 15.263,114.250 15.187 C 114.067 15.112,113.654 14.956,113.333 14.842 C 113.013 14.727,112.075 14.387,111.250 14.085 C 110.425 13.784,109.487 13.442,109.167 13.325 C 108.846 13.208,108.358 13.017,108.083 12.902 C 107.244 12.550,106.112 12.151,105.537 12.005 C 105.236 11.929,104.899 11.792,104.787 11.700 C 104.675 11.609,104.321 11.456,104.000 11.359 C 103.308 11.151,101.937 10.661,100.667 10.167 C 99.703 9.793,97.157 8.846,96.167 8.494 C 95.846 8.380,95.321 8.193,95.000 8.079 C 94.679 7.965,93.817 7.702,93.083 7.496 C 92.350 7.289,91.263 6.975,90.667 6.798 C 90.071 6.621,89.171 6.362,88.667 6.222 C 88.162 6.082,87.300 5.833,86.750 5.669 C 86.200 5.505,85.300 5.243,84.750 5.086 C 84.200 4.929,83.300 4.666,82.750 4.502 C 82.200 4.337,81.262 4.074,80.667 3.917 C 80.071 3.759,79.133 3.491,78.583 3.321 C 78.033 3.151,77.021 2.857,76.333 2.669 C 75.646 2.480,74.858 2.246,74.583 2.147 C 74.308 2.048,73.821 1.911,73.500 1.843 C 73.179 1.775,72.504 1.586,72.000 1.425 C 70.032 0.793,69.573 0.665,69.283 0.666 C 69.118 0.666,68.763 0.553,68.495 0.414 C 67.710 0.008,66.500 -0.107,66.500 0.225 M19.068 36.876 C 18.732 37.567,17.788 39.248,17.595 39.500 C 17.489 39.637,17.230 40.087,17.019 40.500 C 16.808 40.912,16.474 41.525,16.276 41.860 C 15.352 43.428,14.833 44.340,14.250 45.417 C 13.903 46.058,13.518 46.702,13.393 46.846 C 13.269 46.991,13.167 47.192,13.167 47.293 C 13.167 47.394,13.068 47.575,12.948 47.696 C 12.827 47.818,12.523 48.329,12.272 48.833 C 11.669 50.042,11.296 50.688,11.042 50.964 C 10.927 51.089,10.833 51.273,10.833 51.374 C 10.833 51.475,10.731 51.675,10.607 51.820 C 10.482 51.965,10.156 52.496,9.881 53.000 C 9.292 54.083,8.736 55.058,8.315 55.750 C 8.147 56.025,7.893 56.475,7.750 56.750 C 7.499 57.234,7.139 57.872,5.763 60.275 C 4.844 61.879,4.522 62.452,3.952 63.500 C 3.678 64.004,3.366 64.529,3.259 64.667 C 3.152 64.804,2.972 65.104,2.859 65.333 C 2.746 65.563,2.543 65.938,2.408 66.167 C 1.625 67.499,2.754 67.928,5.250 67.246 C 5.708 67.121,6.721 66.860,7.500 66.668 C 8.279 66.475,9.409 66.171,10.012 65.992 C 10.614 65.813,11.245 65.667,11.414 65.667 C 11.712 65.667,12.424 65.482,14.678 64.821 C 15.281 64.645,15.912 64.500,16.081 64.500 C 16.249 64.500,16.769 64.391,17.235 64.258 C 18.323 63.947,20.119 63.497,23.250 62.750 C 24.625 62.422,26.275 62.009,26.917 61.834 C 27.558 61.658,28.758 61.353,29.583 61.156 C 30.408 60.959,31.271 60.705,31.500 60.591 C 31.729 60.477,32.217 60.241,32.583 60.067 C 33.266 59.743,33.921 59.334,34.679 58.758 L 35.107 58.432 31.859 53.841 C 30.073 51.316,27.518 47.712,26.182 45.833 C 24.845 43.954,23.564 42.147,23.334 41.818 C 19.339 36.091,19.410 36.173,19.068 36.876 " stroke="none" fill="#64a44c" fill-rule="evenodd"></path><path id="path3" d="" stroke="none" fill="#d2b85e" fill-rule="evenodd"></path><path id="path4" d="" stroke="none" fill="#b4a47a" fill-rule="evenodd"></path></g></svg>