<?xml version="1.0" standalone="no"?>
<!DOCTYPE svg PUBLIC "-//W3C//DTD SVG 20010904//EN"
 "http://www.w3.org/TR/2001/REC-SVG-20010904/DTD/svg10.dtd">
<svg version="1.0" xmlns="http://www.w3.org/2000/svg"
 width="300.000000pt" height="300.000000pt" viewBox="0 0 300.000000 300.000000"
 preserveAspectRatio="xMidYMid meet">
<metadata>
Created by potrace 1.10, written by Peter Selinger 2001-2011
</metadata>
<g transform="translate(0.000000,300.000000) scale(0.100000,-0.100000)"
fill="#000000" stroke="none">
<path d="M1200 2969 c-288 -60 -551 -202 -759 -410 -119 -119 -202 -235 -276
-384 -99 -200 -159 -417 -153 -554 4 -75 4 -72 33 114 45 293 191 580 405 795
104 105 154 147 245 205 82 52 256 138 335 165 76 26 284 70 338 71 20 1 48 5
62 9 54 17 -138 8 -230 -11z"/>
<path d="M1575 2980 c17 -5 71 -13 120 -20 93 -11 256 -48 265 -59 3 -3 12 -7
20 -9 37 -7 256 -108 265 -122 3 -5 24 -18 48 -29 23 -11 54 -31 69 -43 14
-13 57 -49 95 -80 37 -32 84 -75 103 -95 68 -72 180 -215 180 -229 0 -4 6 -15
14 -23 19 -22 99 -182 129 -261 83 -214 113 -511 74 -740 -21 -123 -73 -292
-120 -390 -48 -100 -159 -272 -211 -328 -23 -24 -42 -47 -44 -52 -6 -16 -197
-181 -230 -199 -11 -6 -27 -17 -34 -23 -29 -27 -176 -108 -195 -108 -7 0 -13
-4 -13 -10 0 -5 -6 -10 -13 -10 -7 0 -48 -14 -92 -31 -74 -29 -200 -65 -235
-67 -8 -1 -26 -4 -40 -6 -14 -3 -68 -10 -120 -16 -108 -13 -307 0 -406 26 -33
9 -92 24 -132 34 -40 11 -83 26 -95 35 -12 8 -27 15 -35 15 -18 0 -139 57
-187 89 -22 14 -47 31 -56 36 -100 63 -136 93 -244 200 -96 96 -144 157 -207
261 -126 208 -189 391 -217 628 -6 49 -13 91 -16 94 -13 13 -3 -150 15 -237
60 -297 187 -537 399 -754 177 -182 361 -298 600 -377 165 -55 264 -70 471
-70 207 0 306 15 471 70 234 77 404 184 585 364 222 223 356 471 414 771 26
135 28 413 4 550 -48 279 -191 559 -394 769 -224 232 -478 372 -791 436 -94
19 -281 28 -214 10z"/>
<path d="M1400 2863 c-19 -2 -41 -12 -48 -21 -10 -14 -16 -14 -32 -4 -26 16
-59 15 -94 -3 -15 -8 -45 -15 -66 -15 -21 0 -40 -5 -42 -11 -2 -6 -26 -15 -53
-20 -28 -5 -62 -18 -78 -30 -15 -11 -32 -17 -37 -14 -24 15 -90 -46 -90 -82
l0 -24 -28 20 -29 20 -74 -56 c-41 -31 -76 -60 -79 -63 -3 -4 -10 -9 -17 -11
-21 -7 -153 -141 -153 -155 0 -8 -4 -14 -9 -14 -16 0 -61 -53 -61 -72 0 -11
-13 -30 -29 -44 -17 -14 -42 -51 -57 -82 -15 -31 -31 -64 -35 -72 -5 -8 -23
-43 -40 -78 -30 -59 -30 -63 -15 -87 9 -14 25 -25 36 -25 21 0 35 -16 21 -24
-5 -4 -12 -2 -16 4 -11 18 -51 11 -73 -13 -13 -14 -22 -36 -22 -56 0 -18 -5
-42 -11 -54 -7 -12 -13 -44 -15 -72 -2 -27 -6 -68 -10 -91 -5 -31 -2 -44 11
-57 15 -15 15 -18 1 -33 -9 -8 -16 -23 -16 -33 0 -24 31 -51 58 -51 11 0 24
-4 27 -10 3 -5 22 -10 41 -10 39 0 54 21 35 52 -8 13 -8 24 -1 38 16 30 12 75
-9 94 -19 18 -19 18 6 40 21 18 27 34 31 79 2 32 8 60 13 63 15 9 10 77 -8 96
-15 17 -15 18 10 18 29 0 51 27 63 75 3 17 15 39 25 50 10 12 20 30 22 41 1
12 11 33 20 48 10 14 15 26 12 26 -5 0 9 17 60 72 18 19 36 44 39 55 3 11 17
26 31 33 13 7 31 28 40 46 8 18 24 36 35 39 10 3 32 20 47 38 16 18 46 41 66
51 20 10 44 28 54 38 17 19 17 21 0 50 -16 28 -23 68 -12 68 3 0 19 -16 36
-35 37 -42 63 -44 125 -10 25 14 52 25 60 25 9 0 28 8 42 19 15 10 43 21 62
24 94 15 120 27 120 58 0 10 9 21 20 24 11 4 20 16 21 28 1 16 4 13 13 -13 19
-60 21 -61 109 -59 45 1 90 6 99 10 11 6 25 5 38 -3 16 -10 24 -10 39 -1 15
10 22 9 30 -1 6 -7 34 -18 63 -24 109 -22 125 -23 138 -7 7 8 21 15 31 15 10
0 21 5 24 10 12 20 20 9 22 -31 1 -44 19 -64 66 -74 15 -4 51 -22 80 -41 28
-19 59 -34 67 -34 9 0 40 -22 68 -50 29 -27 58 -50 64 -50 7 0 26 -18 41 -40
33 -47 76 -63 91 -34 6 10 26 32 44 49 17 18 32 38 32 46 0 15 -59 79 -73 79
-3 0 -27 20 -53 46 -33 31 -50 42 -57 35 -16 -16 -27 -13 -27 7 0 43 -50 55
-93 22 -22 -17 -57 -27 -57 -16 0 2 7 20 15 41 18 40 8 65 -25 65 -10 0 -24 7
-31 17 -8 9 -29 22 -47 30 -32 13 -36 12 -68 -12 l-35 -27 7 26 c8 34 -6 50
-58 66 -24 7 -61 18 -83 25 -51 16 -121 17 -133 2 -5 -7 -13 -25 -17 -42 l-7
-30 -22 44 c-28 58 -48 71 -75 47 -19 -17 -23 -17 -38 -4 -18 15 -50 18 -113
11z m-10 -42 c0 -10 3 -39 6 -65 6 -38 4 -46 -9 -46 -11 0 -16 14 -19 58 -2
31 -3 60 -1 65 8 14 23 7 23 -12z m120 9 c0 -5 -16 -10 -35 -10 -26 0 -35 -4
-35 -16 0 -12 7 -15 30 -12 20 3 30 0 30 -9 0 -8 -12 -13 -30 -13 -47 0 -38
-27 10 -32 39 -3 40 -3 61 50 26 65 48 66 66 3 7 -24 15 -52 18 -62 4 -13 1
-19 -9 -19 -9 0 -16 7 -16 15 0 17 -40 21 -55 6 -6 -5 -36 -11 -68 -13 l-57
-3 0 31 c0 17 -3 46 -6 63 l-6 31 51 0 c28 0 51 -4 51 -10z m-200 -15 c0 -10
-10 -15 -30 -15 -21 0 -30 -5 -30 -16 0 -13 7 -15 30 -10 22 4 30 2 30 -9 0
-10 -10 -15 -26 -15 -24 0 -26 -3 -20 -30 4 -21 2 -30 -8 -30 -13 0 -42 108
-32 118 4 4 57 18 79 21 4 1 7 -6 7 -14z m396 -31 c-3 -26 -6 -55 -6 -65 0
-11 -7 -19 -16 -19 -14 0 -15 7 -10 38 3 20 6 49 6 65 0 18 5 27 16 27 14 0
16 -8 10 -46z m117 19 c18 -11 -6 -21 -38 -16 -44 7 -48 -15 -5 -23 40 -8 39
-26 -2 -22 -42 4 -50 -20 -9 -28 17 -4 34 -10 36 -15 10 -15 -11 -18 -54 -7
-32 8 -41 14 -36 26 3 9 9 36 12 60 l6 43 41 -7 c23 -3 44 -8 49 -11z m-632
-13 c31 -17 23 -32 -15 -25 -39 8 -49 -3 -40 -39 8 -34 35 -43 53 -17 15 23
31 28 31 9 0 -19 -32 -48 -53 -48 -32 0 -57 29 -57 66 0 53 37 77 81 54z m737
-29 c3 -10 -2 -11 -19 -6 -37 11 -41 11 -46 -2 -2 -7 7 -15 21 -19 14 -3 26
-12 26 -20 0 -10 -6 -11 -26 -4 -32 13 -34 13 -34 -2 0 -21 -17 -41 -28 -34
-7 4 -6 22 5 54 8 26 16 52 18 59 5 16 77 -7 83 -26z m-848 -2 c0 -5 -13 -15
-29 -20 -19 -7 -28 -16 -24 -25 4 -11 9 -11 34 2 26 13 29 13 29 -1 0 -8 -11
-17 -25 -21 -14 -3 -25 -13 -25 -21 0 -12 7 -13 27 -8 44 11 45 11 49 0 2 -6
-16 -17 -40 -26 l-43 -16 -19 51 c-25 67 -25 67 16 82 45 16 50 16 50 3z m980
-39 c24 -24 25 -41 5 -80 -17 -32 -49 -39 -86 -20 -43 24 -11 120 41 120 11 0
29 -9 40 -20z m-1094 -15 c20 -15 20 -15 -31 -19 -14 -1 -21 -9 -23 -27 -4
-32 23 -57 46 -43 21 14 28 36 9 28 -26 -10 -27 13 -1 24 22 11 26 9 35 -16
11 -29 12 -34 4 -29 -2 1 -10 -5 -17 -14 -24 -31 -55 -33 -83 -5 -33 33 -32
69 1 95 32 25 35 25 60 6z m1166 -21 c3 -3 -5 -24 -18 -48 l-24 -43 25 -13
c14 -7 25 -17 25 -22 0 -5 21 7 46 27 26 19 51 35 56 35 17 0 18 -26 3 -75
-22 -73 -19 -75 28 -22 l42 48 28 -26 c15 -14 27 -35 27 -46 0 -23 -42 -69
-63 -69 -22 0 -97 60 -97 78 0 21 -36 46 -45 32 -4 -6 -21 -2 -43 10 -68 35
-66 32 -38 89 25 48 35 58 48 45z m-1307 -43 c3 -6 -2 -14 -12 -19 -16 -9 -15
-13 10 -51 31 -47 32 -51 12 -51 -8 0 -25 18 -37 39 -18 32 -26 38 -40 30 -34
-18 -27 9 10 34 42 29 48 31 57 18z m-65 -105 c45 -28 52 -36 37 -42 -10 -3
-21 -4 -24 -1 -11 12 -45 -14 -38 -30 3 -9 0 -20 -7 -24 -9 -6 -17 9 -30 49
-17 55 -17 82 0 82 4 0 32 -15 62 -34z m-100 -14 c0 -4 -5 -13 -12 -20 -9 -9
-4 -20 22 -47 25 -25 31 -38 23 -46 -8 -8 -21 0 -47 28 -28 30 -38 35 -45 24
-5 -8 -14 -10 -22 -6 -9 6 -2 17 27 42 39 33 54 40 54 25z m1808 -89 c2 -1 1
-7 -3 -13 -5 -8 -14 -5 -30 10 -13 12 -29 19 -35 15 -7 -4 -1 -14 15 -27 18
-14 23 -24 16 -31 -7 -7 -16 -3 -30 14 -16 20 -22 22 -33 11 -11 -11 -8 -17
14 -37 17 -15 24 -26 17 -31 -6 -3 -26 9 -45 27 l-34 33 42 43 42 43 30 -28
c17 -15 32 -28 34 -29z m-1878 -3 c0 -5 -8 -10 -19 -10 -20 0 -48 -27 -37 -37
3 -3 21 2 40 12 29 16 37 17 50 6 21 -17 20 -40 -1 -63 -18 -21 -67 -25 -60
-5 2 6 11 11 19 9 17 -3 44 25 34 35 -3 4 -21 0 -39 -9 -55 -26 -89 11 -50 54
17 19 63 25 63 8z m-53 -102 c27 -25 29 -54 6 -80 -22 -24 -62 -23 -90 4 -27
25 -29 45 -7 76 20 28 61 29 91 0z m-101 -93 c4 -8 11 -15 18 -15 19 -1 48
-28 42 -39 -5 -7 -13 -7 -26 2 -16 9 -23 9 -36 -5 -15 -15 -15 -17 5 -27 21
-12 29 -31 12 -31 -12 0 -100 53 -101 60 0 3 9 20 20 38 21 34 56 43 66 17z
m-12 -139 c16 -24 -9 -66 -38 -66 -34 0 -96 30 -96 47 0 18 13 16 55 -8 28
-17 38 -19 50 -9 19 16 12 26 -35 50 -27 14 -38 25 -34 35 5 12 13 11 48 -10
22 -13 45 -31 50 -39z m-134 -82 c-13 -32 -13 -44 0 -44 5 0 12 11 16 25 3 14
13 25 21 25 10 0 13 -5 8 -17 -11 -28 -11 -46 1 -50 7 -2 17 10 22 27 10 28
32 42 32 20 0 -10 -27 -69 -36 -79 -2 -2 -27 7 -57 19 l-54 23 15 38 c8 22 21
39 28 39 10 0 11 -6 4 -26z m-30 -139 c0 -8 -7 -15 -15 -15 -18 0 -20 -31 -3
-48 31 -31 86 0 58 33 -6 8 -8 20 -4 26 10 16 34 -17 34 -48 0 -57 -89 -65
-119 -11 -13 23 -13 29 2 52 19 28 47 35 47 11z m-55 -141 c-5 -27 -3 -34 10
-34 10 0 15 10 15 30 0 19 5 30 14 30 9 0 13 -10 12 -31 -2 -43 22 -50 26 -8
2 18 9 34 16 37 11 3 12 -6 6 -44 -3 -27 -7 -50 -8 -50 0 -1 -29 3 -64 9 -48
9 -61 14 -58 26 3 9 7 31 11 49 4 18 11 29 17 26 5 -4 7 -21 3 -40z m35 -89
c7 -8 10 -24 7 -35 -4 -16 0 -20 19 -20 15 0 24 -6 24 -15 0 -17 -15 -18 -83
-9 l-45 6 5 37 c8 51 45 69 73 36z m50 -105 c0 -6 -7 -13 -15 -16 -20 -8 -19
-44 2 -60 32 -23 5 -26 -54 -7 -76 26 -79 44 -11 70 62 24 78 27 78 13z"/>
<path d="M1571 2803 c-1 -6 -4 -18 -7 -27 -4 -11 -1 -16 10 -16 18 0 19 6 6
35 -5 11 -9 15 -9 8z"/>
<path d="M1988 2685 c-10 -21 -9 -29 5 -43 24 -23 52 -5 52 34 0 40 -40 47
-57 9z"/>
<path d="M2210 2575 c-9 -11 -10 -19 -3 -26 8 -8 13 -5 18 11 9 28 2 35 -15
15z"/>
<path d="M2292 2509 c-13 -16 -21 -33 -17 -39 10 -17 41 -11 60 10 18 20 18
21 -1 39 -19 19 -20 18 -42 -10z"/>
<path d="M710 2528 c0 -18 18 -34 28 -24 3 4 -2 14 -11 23 -16 16 -17 16 -17
1z"/>
<path d="M467 2323 c-25 -24 21 -85 50 -67 25 16 26 31 4 53 -21 21 -42 27
-54 14z"/>
<path d="M387 2206 c-9 -24 17 -38 30 -17 7 11 9 22 6 25 -11 11 -31 6 -36 -8z"/>
<path d="M190 1610 c0 -11 7 -20 15 -20 8 0 15 9 15 20 0 11 -7 20 -15 20 -8
0 -15 -9 -15 -20z"/>
<path d="M215 1500 c-19 -7 -19 -8 -2 -15 19 -8 31 -2 26 13 -2 5 -13 6 -24 2z"/>
<path d="M1420 2619 c-216 -24 -332 -63 -515 -172 -113 -67 -295 -248 -341
-340 -9 -18 -22 -39 -28 -47 -52 -65 -121 -291 -137 -448 -52 -509 278 -1004
771 -1156 127 -39 179 -46 334 -46 151 0 222 11 351 55 80 26 261 116 280 138
6 7 30 28 55 46 168 127 321 360 379 577 67 251 44 513 -67 757 -89 193 -259
381 -442 485 -56 32 -145 74 -189 88 -25 8 -53 18 -61 21 -32 13 -56 17 -175
32 -49 6 -101 13 -115 15 -14 2 -59 0 -100 -5z m288 -45 c491 -101 845 -509
869 -1004 3 -67 1 -152 -6 -204 -37 -277 -194 -545 -420 -717 -83 -63 -263
-152 -361 -179 -366 -99 -755 -2 -1032 258 -401 377 -452 997 -119 1440 157
208 383 349 651 406 91 20 322 20 418 0z"/>
<path d="M1297 2474 c-188 -42 -348 -127 -485 -258 -340 -326 -405 -843 -156
-1243 52 -84 200 -240 275 -291 76 -51 200 -109 295 -138 83 -26 102 -28 269
-28 154 0 191 3 258 22 169 47 324 137 448 261 126 126 213 277 261 451 20 73
23 108 23 250 0 142 -3 177 -23 250 -93 342 -349 604 -688 706 -77 23 -110 27
-249 30 -117 3 -178 -1 -228 -12z m385 -18 c97 -19 212 -59 271 -96 27 -17 53
-30 58 -30 5 0 9 -3 9 -8 0 -4 13 -13 28 -19 37 -17 232 -207 232 -227 0 -3
10 -16 23 -30 41 -45 109 -193 139 -304 31 -111 31 -372 1 -482 -27 -97 -109
-280 -125 -280 -5 0 -8 -5 -8 -11 0 -34 -245 -279 -279 -279 -6 0 -11 -3 -11
-8 0 -16 -191 -101 -290 -128 -49 -14 -103 -18 -225 -19 -136 0 -174 3 -252
24 -51 13 -93 27 -93 32 0 5 -3 8 -7 7 -16 -3 -173 70 -173 81 0 3 -14 12 -32
20 -38 17 -202 179 -246 243 -53 78 -121 221 -143 304 -27 98 -37 325 -20 417
19 99 43 177 52 171 5 -3 6 1 3 9 -5 15 58 141 108 216 52 76 208 223 283 266
38 22 73 39 77 38 4 -2 8 1 8 6 0 14 128 62 220 81 105 23 290 25 392 6z"/>
<path d="M1218 2213 c-48 -22 -80 -43 -84 -55 -8 -27 -8 -1390 1 -1417 6 -21
64 -52 120 -65 17 -4 37 -9 46 -12 9 -2 24 3 33 11 14 15 16 93 16 784 0 583
-3 770 -12 779 -18 18 -35 14 -120 -25z m107 -753 l0 -780 -30 6 c-16 3 -55
16 -85 28 l-55 21 -3 711 -2 711 87 41 c49 22 88 41 88 41 0 1 0 -350 0 -779z"/>
<path d="M1524 2056 c-12 -9 -24 -12 -28 -9 -3 3 -6 1 -6 -6 0 -7 -4 -10 -9
-7 -5 4 -11 3 -13 -1 -1 -5 -16 -15 -33 -23 l-30 -16 -8 -149 c-4 -83 -6 -383
-4 -668 3 -432 6 -520 18 -528 23 -15 175 -11 188 5 8 9 10 204 9 712 l-3 699
-30 3 c-16 1 -40 -4 -51 -12z m66 -696 l0 -700 -85 0 -85 0 0 660 0 661 83 39
c45 21 83 39 85 39 1 1 2 -314 2 -699z"/>
<path d="M1805 1889 c-11 -5 -47 -25 -80 -43 l-60 -32 -3 -566 c-2 -490 0
-567 13 -578 12 -10 28 -8 82 9 38 11 78 27 91 36 l22 16 0 578 c0 519 -2 579
-16 585 -20 8 -24 7 -49 -5z m45 -583 l0 -574 -78 -26 c-42 -14 -80 -26 -85
-26 -4 0 -7 253 -7 563 l0 562 83 37 c45 20 83 37 85 37 1 1 2 -257 2 -573z"/>
<path d="M2010 1858 c-41 -21 -78 -45 -82 -51 -4 -7 -8 -234 -8 -505 0 -473 3
-532 29 -532 10 0 109 67 129 87 7 7 17 13 22 13 4 0 15 16 24 35 14 29 16 77
16 347 -1 352 -8 626 -16 639 -10 16 -38 8 -114 -33z m103 -460 l-3 -483 -37
-34 c-40 -35 -118 -91 -127 -91 -3 0 -6 227 -6 505 l0 506 83 39 c45 21 84 39
87 39 3 1 4 -216 3 -481z"/>
<path d="M1030 1833 c-8 -3 -48 -21 -87 -39 l-73 -33 0 -417 c0 -468 -4 -441
78 -505 73 -56 110 -75 122 -63 12 12 16 1036 5 1054 -7 11 -21 12 -45 3z m30
-528 c0 -283 -3 -515 -6 -515 -9 0 -83 58 -126 99 l-38 35 0 412 0 411 78 36
c42 20 80 36 85 37 4 0 7 -232 7 -515z"/>
<path d="M2476 2375 c-41 -21 -55 -44 -56 -87 0 -27 6 -42 23 -55 13 -10 31
-30 41 -45 11 -17 27 -28 42 -28 25 0 40 -15 24 -25 -5 -3 -10 -15 -10 -25 0
-20 65 -155 87 -181 14 -16 58 -15 69 2 8 14 24 10 24 -6 0 -9 -9 -15 -21 -15
-43 0 -66 -74 -35 -115 8 -11 12 -25 9 -32 -3 -7 0 -19 6 -27 6 -7 10 -22 9
-32 -1 -11 1 -68 6 -129 7 -90 12 -114 29 -132 25 -28 85 -31 117 -5 25 20 38
89 22 118 -7 13 -7 26 -1 36 6 12 5 28 -4 50 -8 18 -12 39 -9 46 2 7 1 20 -3
30 -4 9 -9 36 -10 59 -1 24 -9 53 -18 67 -9 13 -14 32 -11 43 7 26 -19 47 -51
41 -30 -6 -31 -3 -5 29 25 32 25 63 2 94 -11 13 -22 36 -25 50 -4 14 -17 41
-31 60 -13 19 -34 53 -46 77 -12 23 -31 47 -41 53 -10 5 -19 18 -19 28 0 20
-53 71 -73 71 -7 0 -25 -7 -41 -15z m74 -35 c28 -28 25 -64 -6 -89 -33 -26
-58 -27 -84 -1 -27 27 -25 56 5 85 29 30 58 32 85 5z m90 -145 c0 -9 -12 -21
-26 -27 -23 -11 -29 -10 -45 11 -16 20 -22 21 -34 11 -13 -11 -18 -11 -28 0
-7 8 -8 14 -2 16 6 2 30 17 54 34 l45 29 18 -30 c10 -16 18 -36 18 -44z m47
-64 c20 -35 21 -51 3 -51 -4 0 -13 14 -20 31 -8 19 -16 27 -22 21 -6 -6 -6
-18 2 -31 6 -12 8 -26 4 -33 -4 -7 -12 -1 -21 16 -7 14 -17 26 -22 26 -17 0
-19 -14 -6 -41 9 -17 11 -30 5 -34 -5 -3 -19 13 -31 37 -12 23 -18 44 -13 45
5 2 27 14 49 27 22 13 42 25 45 25 3 0 15 -17 27 -38z m45 -102 c16 -22 18
-30 9 -48 -15 -28 -33 -17 -25 15 8 30 -16 42 -52 26 -29 -14 -32 -42 -5 -49
27 -7 36 -33 11 -33 -44 0 -67 62 -32 92 39 34 67 33 94 -3z m55 -135 c2 -6
-18 -17 -44 -25 -30 -8 -48 -20 -48 -29 0 -15 29 -18 84 -9 13 2 26 -1 28 -7
2 -6 -21 -17 -53 -24 -53 -13 -57 -13 -71 6 -26 36 -13 67 37 86 47 18 62 18
67 2z m33 -118 c0 -8 -16 -27 -35 -42 -42 -32 -40 -39 9 -26 28 8 36 8 36 -3
0 -7 -13 -16 -30 -19 -16 -3 -43 -9 -60 -12 -43 -8 -39 17 8 56 24 21 30 30
17 26 -65 -18 -75 -18 -75 -3 0 9 18 18 53 24 74 15 77 15 77 -1z m20 -155 c0
-16 -7 -34 -15 -41 -19 -16 -34 -5 -17 12 17 17 15 48 -3 48 -10 0 -15 -10
-15 -28 0 -48 -34 -67 -64 -36 -20 20 -21 58 -1 74 21 18 32 3 16 -22 -9 -15
-10 -23 -1 -32 13 -13 30 7 30 36 0 9 8 21 17 27 26 14 53 -5 53 -38z m0 -118
c-4 -39 -9 -48 -32 -55 -19 -7 -36 -5 -55 4 -23 11 -29 20 -31 56 l-3 42 63 0
64 0 -6 -47z"/>
<path d="M2480 2315 c-17 -20 -8 -49 16 -53 25 -4 57 30 48 52 -8 20 -47 21
-64 1z"/>
<path d="M2576 2222 c-9 -15 12 -35 29 -28 14 5 15 9 5 21 -14 17 -26 19 -34
7z"/>
<path d="M2740 1506 c0 -40 73 -48 78 -8 3 20 -1 22 -37 22 -28 0 -41 -4 -41
-14z"/>
<path d="M2690 1317 c-18 -14 -41 -125 -33 -156 3 -13 0 -23 -10 -27 -9 -3
-21 -22 -28 -42 -6 -21 -22 -58 -35 -83 -13 -26 -20 -49 -17 -53 3 -3 -4 -14
-15 -25 -24 -20 -28 -41 -11 -58 7 -7 2 -12 -18 -16 -20 -5 -45 -30 -90 -92
-35 -48 -63 -93 -63 -101 0 -8 -8 -14 -18 -14 -10 0 -33 -16 -52 -35 -31 -32
-32 -35 -17 -57 23 -34 85 -98 94 -98 14 0 73 61 73 76 0 7 6 14 14 14 15 0
86 69 86 83 0 4 -11 19 -25 33 -33 33 -32 40 4 15 34 -25 45 -26 61 -6 17 20
4 51 -33 74 -18 11 -27 21 -21 21 6 0 23 -9 37 -20 14 -11 30 -20 37 -20 22 0
60 53 60 84 0 23 6 34 22 41 13 6 24 19 26 30 2 11 11 28 20 38 13 15 14 22 4
37 -16 26 -15 27 8 33 29 7 35 34 15 57 -17 19 -17 20 1 20 46 0 56 40 22 78
-22 24 -22 24 -2 18 28 -9 50 18 59 72 9 55 -3 69 -61 70 -25 0 -51 5 -57 11
-14 14 -18 13 -37 -2z m25 -47 c-6 -33 -4 -40 9 -40 11 0 16 9 16 30 0 21 5
30 16 30 13 0 15 -7 10 -36 -6 -31 -5 -35 11 -32 12 2 19 14 21 36 2 21 9 32
19 32 12 0 14 -9 8 -52 -4 -29 -8 -54 -10 -56 -3 -3 -126 26 -132 31 -2 3 -1
26 2 51 5 31 12 46 22 46 12 0 13 -8 8 -40z m25 -111 c78 -54 72 -69 -27 -69
-55 0 -74 3 -70 13 2 7 23 12 55 12 29 0 52 2 52 5 0 3 -18 15 -40 28 -22 12
-40 29 -40 37 0 22 5 19 70 -26z m-36 -101 c34 -12 62 -22 64 -23 6 -4 -11
-35 -17 -31 -20 13 -112 45 -107 38 2 -4 1 -14 -5 -22 -7 -12 3 -21 46 -40 42
-20 52 -28 45 -40 -8 -12 -16 -11 -55 8 -54 26 -65 27 -65 7 0 -8 -7 -15 -15
-15 -8 0 -15 3 -15 8 0 10 54 131 59 132 2 0 31 -10 65 -22z m-58 -149 c49 -8
61 -14 57 -26 -3 -8 -14 -13 -23 -10 -22 6 -44 -35 -28 -51 6 -6 7 -16 1 -26
-7 -12 -18 -4 -57 40 -28 33 -46 61 -42 69 6 18 12 18 92 4z m-68 -101 c26
-17 49 -33 51 -34 2 -2 1 -10 -3 -19 -4 -13 -14 -9 -54 19 -47 34 -48 35 -61
15 -13 -23 -8 -29 52 -66 29 -19 33 -28 16 -39 -6 -3 -31 8 -56 26 -33 24 -48
29 -56 21 -6 -6 -15 -11 -19 -11 -18 0 -6 27 27 63 18 20 32 37 29 37 -3 0 -2
5 1 10 10 16 23 12 73 -22z m-93 -132 c34 -30 47 -48 40 -55 -12 -12 -118 75
-109 90 9 15 18 11 69 -35z m-32 -34 c40 -40 46 -51 34 -60 -11 -9 -24 -9 -57
3 -61 22 -64 19 -22 -19 26 -24 34 -38 27 -45 -8 -8 -27 6 -65 44 -63 63 -54
77 32 51 l53 -15 -38 35 c-33 31 -41 54 -19 54 4 0 29 -22 55 -48z m-101 -88
c44 -47 51 -65 32 -71 -14 -5 -97 94 -89 107 9 15 11 14 57 -36z"/>
<path d="M2605 870 c14 -15 20 -17 26 -8 8 13 -7 28 -30 28 -11 0 -10 -5 4
-20z"/>
<path d="M190 1307 c-34 -17 -41 -80 -11 -99 17 -10 19 -19 14 -55 -4 -32 -1
-49 13 -70 11 -16 19 -37 20 -48 0 -11 4 -28 7 -37 4 -10 9 -25 12 -34 3 -9
13 -18 24 -21 12 -3 17 -11 14 -26 -2 -12 3 -31 11 -42 15 -20 15 -20 58 2
l43 23 -39 -34 c-39 -34 -40 -34 -22 -60 17 -27 17 -27 44 -8 39 27 63 34 78
21 13 -10 54 3 54 18 0 13 -71 133 -84 140 -7 4 -16 22 -19 38 -11 61 -14 69
-25 73 -7 2 -12 21 -12 41 0 23 -8 48 -20 64 -11 14 -17 32 -14 41 10 26 -14
46 -50 41 -25 -4 -33 -1 -41 17 -13 28 -24 31 -55 15z m40 -22 c0 -8 -7 -15
-15 -15 -8 0 -15 -7 -15 -16 0 -12 6 -15 23 -11 72 18 94 18 100 4 4 -11 -8
-17 -52 -26 -56 -11 -91 -8 -91 9 0 5 -3 15 -6 23 -6 17 21 47 42 47 8 0 14
-7 14 -15z m102 -102 c26 -23 24 -78 -4 -97 -23 -17 -75 -21 -94 -8 -13 9 -34
46 -34 62 0 6 11 22 25 35 29 29 79 33 107 8z m48 -116 c0 -7 -28 -23 -62 -35
-73 -26 -78 -26 -78 -9 0 6 26 22 58 34 68 26 82 27 82 10z m13 -41 c3 -8 -8
-32 -25 -55 -31 -43 -29 -49 12 -26 29 17 50 19 50 5 0 -5 14 -32 30 -58 17
-27 30 -52 30 -56 0 -12 -23 -6 -34 9 -10 14 -17 12 -58 -14 -25 -16 -49 -27
-52 -24 -14 15 -3 30 39 53 36 20 44 28 39 45 -4 11 -8 21 -9 23 -2 2 -27 -9
-55 -23 -70 -36 -82 -19 -34 47 l34 49 -39 -21 c-46 -23 -61 -25 -61 -7 0 6
26 24 58 39 68 32 68 32 75 14z"/>
<path d="M246 1157 c-28 -21 -13 -57 24 -57 26 0 60 22 60 39 0 29 -54 40 -84
18z m54 -16 c0 -15 -19 -23 -38 -16 -14 5 -14 7 -2 15 19 12 40 13 40 1z"/>
<path d="M474 790 c-38 -15 -66 -61 -61 -98 7 -37 24 -58 63 -72 15 -6 24 -13
21 -17 -4 -3 -2 -14 4 -25 8 -14 18 -19 35 -15 20 3 23 1 19 -13 -8 -24 4 -50
23 -50 13 0 13 2 -2 19 -15 16 -15 19 -1 31 18 15 19 32 3 48 -9 9 -17 7 -34
-9 -15 -14 -24 -17 -29 -9 -4 7 12 32 41 61 l48 49 34 -34 c36 -36 38 -69 4
-81 -9 -3 -25 -16 -35 -30 -16 -22 -16 -26 -1 -58 21 -45 126 -121 154 -112
14 4 20 2 20 -9 0 -25 66 -69 94 -62 18 4 25 1 29 -14 3 -11 13 -23 24 -26 10
-3 26 -10 35 -15 10 -5 25 -9 34 -9 9 0 27 -9 41 -20 14 -11 36 -20 49 -20 14
0 33 -5 43 -12 15 -9 26 -9 44 -1 21 10 28 9 43 -8 11 -12 26 -18 37 -15 11 2
28 -1 38 -7 15 -9 24 -9 41 2 18 11 22 11 30 -3 10 -18 43 -22 53 -6 4 7 14 5
28 -5 28 -19 71 -19 101 1 16 10 26 12 31 5 9 -16 45 -13 51 4 5 13 9 13 27 0
15 -10 25 -11 40 -3 11 5 42 11 69 12 73 2 87 27 64 114 -2 9 -5 20 -5 24 -4
34 -87 52 -111 23 -9 -11 -17 -12 -31 -5 -14 8 -21 6 -31 -9 -11 -18 -14 -18
-35 -4 -19 12 -26 13 -38 3 -12 -10 -21 -10 -45 0 -22 9 -37 9 -61 1 -21 -7
-36 -8 -44 -1 -6 5 -46 12 -88 14 -42 3 -85 10 -96 16 -22 11 -61 -4 -61 -25
0 -5 -8 5 -16 22 -13 25 -27 36 -58 44 -22 6 -45 14 -51 17 -24 16 -76 29 -81
21 -3 -5 -10 -9 -15 -9 -6 0 -8 4 -5 9 9 15 -31 43 -52 37 -15 -5 -21 -1 -26
18 -7 28 -42 44 -59 27 -18 -18 -24 -13 -31 21 -8 41 -43 78 -73 78 -14 0 -23
6 -23 16 0 8 -22 37 -50 64 -27 27 -50 53 -50 58 0 5 -11 21 -25 36 -24 26
-53 32 -91 16z m81 -35 c29 -28 31 -46 10 -79 -34 -51 -99 -55 -125 -6 -17 32
-11 57 21 84 38 32 63 33 94 1z m189 -188 c9 -7 21 -29 25 -50 8 -33 7 -36 -9
-27 -10 6 -20 20 -22 32 -5 35 -52 37 -74 3 -16 -25 -16 -27 3 -47 23 -22 52
-16 33 7 -17 21 3 25 28 7 l22 -17 -26 -30 c-16 -20 -27 -26 -30 -17 -3 6 -12
12 -19 12 -23 0 -56 51 -49 74 17 56 77 83 118 53z m101 -166 c-14 -60 -20
-70 -32 -60 -7 7 -12 18 -9 25 7 19 -38 46 -53 31 -7 -7 -14 -8 -21 -1 -7 7 8
25 47 56 48 38 60 43 72 33 11 -11 11 -24 -4 -84z m79 43 c12 -5 16 -21 17
-63 l1 -56 19 43 c19 40 32 51 42 35 3 -5 -9 -36 -27 -70 -37 -74 -53 -72 -58
7 l-3 55 -23 -42 c-14 -27 -27 -40 -36 -37 -10 4 -6 20 18 69 17 35 32 64 33
64 1 1 8 -2 17 -5z m123 -66 c-37 -95 -54 -127 -62 -124 -14 5 -9 34 15 89 12
27 28 47 37 47 8 0 13 -6 10 -12z m90 -30 c15 -12 17 -48 3 -48 -5 0 -14 9
-20 20 -11 20 -50 28 -50 11 0 -6 13 -18 30 -27 35 -21 43 -39 30 -65 -22 -40
-123 -7 -106 36 6 16 9 15 31 -9 25 -27 36 -31 49 -19 4 4 -10 21 -31 39 l-37
31 18 27 c14 23 22 27 44 21 15 -4 33 -11 39 -17z m99 -26 c7 -4 15 -40 19
-80 6 -64 5 -71 -9 -66 -9 3 -16 12 -16 20 0 18 -50 30 -60 14 -4 -6 -14 -10
-22 -8 -12 2 -7 17 24 66 41 64 45 67 64 54z m144 -39 c0 -10 -7 -12 -19 -8
-17 5 -20 0 -26 -42 -4 -26 -8 -54 -10 -60 -6 -19 -36 -3 -31 16 2 9 7 32 10
52 6 31 3 37 -14 42 -11 3 -20 12 -20 19 0 12 9 13 55 5 36 -7 55 -15 55 -24z
m420 22 c18 -22 4 -31 -25 -15 -18 10 -28 11 -36 3 -18 -18 -1 -33 36 -33 45
0 63 -28 37 -60 -22 -27 -67 -30 -90 -6 -22 22 -7 32 23 16 22 -12 28 -12 42
3 15 15 14 16 -8 21 -13 3 -35 7 -49 8 -28 3 -40 39 -20 64 16 19 74 18 90 -1z
m-116 -27 c17 -112 17 -118 -1 -118 -10 0 -30 20 -46 45 -16 25 -31 45 -33 45
-2 0 -1 -20 2 -44 4 -28 2 -46 -5 -51 -17 -10 -17 -9 -25 73 -8 88 7 95 54 27
17 -25 32 -45 34 -45 2 0 0 19 -4 42 -5 24 -6 46 -4 50 11 17 23 6 28 -24z
m-268 -9 c-3 -17 -6 -49 -6 -70 0 -28 -4 -39 -15 -39 -11 0 -15 11 -15 39 0
61 11 101 28 101 11 0 13 -7 8 -31z m124 11 c45 -45 13 -130 -49 -130 -37 0
-61 31 -61 77 0 40 30 73 65 73 14 0 34 -9 45 -20z m-183 -82 c-3 -8 -6 -5 -6
6 -1 11 2 17 5 13 3 -3 4 -12 1 -19z"/>
<path d="M482 734 c-25 -18 -29 -46 -7 -64 12 -10 20 -9 40 4 33 21 41 42 25
61 -16 19 -30 19 -58 -1z m35 -29 c-7 -16 -37 -21 -37 -5 0 10 32 31 39 25 2
-2 1 -11 -2 -20z"/>
<path d="M806 441 c-12 -13 -14 -21 -6 -26 14 -8 15 -7 24 23 9 27 4 28 -18 3z"/>
<path d="M1202 265 c-10 -22 -9 -25 7 -25 14 0 17 6 13 25 -2 14 -5 25 -7 25
-1 0 -7 -11 -13 -25z"/>
<path d="M1471 256 c-7 -8 -11 -27 -9 -43 3 -24 8 -28 33 -28 32 0 41 18 31
61 -7 27 -37 32 -55 10z m37 -34 c2 -15 -2 -22 -12 -22 -11 0 -16 9 -16 26 0
31 23 28 28 -4z"/>
<path d="M591 636 c-14 -17 11 -41 34 -32 13 5 13 9 3 26 -15 24 -22 25 -37 6z"/>
<path d="M2181 526 c-7 -8 -31 -24 -54 -36 -23 -12 -51 -30 -63 -41 -11 -11
-23 -16 -27 -12 -10 10 -47 -28 -47 -49 0 -18 -11 -24 -24 -11 -19 20 -111 -3
-122 -30 -3 -8 6 -42 18 -78 l24 -64 39 2 c23 2 48 11 61 24 12 12 27 18 33
15 15 -10 51 12 51 29 0 10 10 15 28 15 27 0 99 31 111 48 3 4 18 13 34 19 17
8 27 20 27 34 0 16 5 20 19 16 11 -3 29 2 40 10 28 19 16 40 -49 87 -54 39
-81 44 -99 22z m148 -83 c3 -2 0 -8 -7 -15 -8 -8 -15 -8 -24 0 -18 14 -52 -12
-53 -40 0 -48 -22 -24 -38 43 -24 101 -13 111 61 57 32 -23 59 -43 61 -45z
m-156 33 c4 -9 -2 -17 -14 -21 -19 -6 -18 -9 11 -60 25 -43 27 -54 15 -58 -10
-4 -23 9 -42 43 -22 40 -30 47 -44 39 -23 -12 -29 -11 -29 4 1 10 74 64 91 66
4 1 9 -6 12 -13z m15 -61 c-3 -3 -9 2 -12 12 -6 14 -5 15 5 6 7 -7 10 -15 7
-18z m-58 -109 c-6 -6 -15 -5 -24 3 -20 17 -56 -2 -56 -29 0 -11 -6 -20 -14
-20 -20 0 -33 140 -14 151 17 11 122 -91 108 -105z m-16 78 c3 -8 2 -12 -4 -9
-6 3 -10 10 -10 16 0 14 7 11 14 -7z m-151 -26 c25 -19 37 -71 23 -98 -6 -13
-28 -29 -48 -36 l-37 -13 -19 52 c-11 29 -21 59 -24 67 -3 10 6 19 26 27 41
15 59 16 79 1z"/>
<path d="M2225 470 c10 -32 13 -36 25 -24 7 7 3 17 -11 30 -22 19 -22 19 -14
-6z"/>
<path d="M2040 357 c0 -17 5 -27 15 -27 19 0 19 9 0 34 -14 19 -15 19 -15 -7z"/>
<path d="M1903 334 c-9 -4 -9 -13 -1 -37 14 -42 21 -49 41 -41 20 7 23 54 5
72 -12 12 -24 14 -45 6z m32 -34 c3 -5 1 -10 -4 -10 -6 0 -11 5 -11 10 0 6 2
10 4 10 3 0 8 -4 11 -10z"/>
</g>
</svg>
