<svg id="svg" version="1.1" xmlns="http://www.w3.org/2000/svg" xmlns:xlink="http://www.w3.org/1999/xlink" width="400" height="400" viewBox="0, 0, 400,400"><g id="svgg"><path id="path0" d="M185.517 68.160 C 126.618 74.587,78.646 119.758,69.147 177.735 C 54.081 269.688,134.377 347.739,225.719 329.928 C 295.853 316.253,342.340 248.636,330.484 177.543 C 319.047 108.967,254.927 60.586,185.517 68.160 M176.583 205.758 C 176.583 262.764,176.485 309.405,176.365 309.405 C 174.671 309.405,162.093 305.446,156.909 303.282 L 153.933 302.039 154.030 207.029 L 154.127 112.019 164.875 107.097 C 170.787 104.390,175.840 102.161,176.104 102.143 C 176.486 102.118,176.583 123.080,176.583 205.758 M211.900 218.617 L 211.900 311.277 210.077 311.570 C 207.748 311.943,192.210 311.944,190.306 311.571 L 188.866 311.289 188.963 223.556 L 189.060 135.824 200.192 130.738 C 206.315 127.940,211.454 125.720,211.612 125.804 C 211.771 125.888,211.900 167.654,211.900 218.617 M246.833 225.690 L 246.833 302.051 241.939 303.966 C 235.611 306.441,231.077 307.857,225.240 309.180 L 224.184 309.420 224.197 234.460 L 224.210 159.501 235.234 154.451 C 241.297 151.673,246.387 149.384,246.545 149.364 C 246.703 149.344,246.833 183.691,246.833 225.690 M278.424 280.556 C 272.418 286.259,261.162 294.818,259.669 294.818 C 259.188 294.818,259.128 285.900,259.212 227.188 L 259.309 159.558 270.441 154.474 L 281.574 149.391 281.687 213.371 L 281.800 277.351 278.424 280.556 M141.651 225.720 C 141.651 288.326,141.594 294.818,141.047 294.818 C 139.447 294.818,128.383 286.433,122.367 280.662 L 118.615 277.063 118.713 221.990 L 118.810 166.918 129.942 161.808 C 136.065 158.997,141.204 156.681,141.363 156.660 C 141.521 156.639,141.651 187.716,141.651 225.720 M359.506 225.822 C 359.177 226.812,356.952 238.462,357.072 238.568 C 357.339 238.807,374.732 242.287,374.886 242.133 C 375.085 241.934,377.774 228.696,377.639 228.579 C 377.586 228.532,376.835 228.378,375.970 228.235 L 374.397 227.975 373.549 232.318 C 372.345 238.481,372.642 237.966,370.527 237.546 C 369.530 237.348,368.514 237.123,368.270 237.045 C 367.951 236.944,368.084 235.682,368.741 232.582 C 369.244 230.206,369.617 228.227,369.569 228.186 C 369.521 228.145,368.778 227.995,367.919 227.853 L 366.355 227.595 365.651 231.435 C 364.762 236.281,364.811 236.208,362.629 235.881 C 361.064 235.646,360.874 235.516,361.043 234.794 C 361.983 230.769,362.721 226.297,362.482 226.084 C 361.869 225.536,359.666 225.343,359.506 225.822 M27.931 227.034 C 23.473 228.625,22.112 232.302,24.532 236.217 C 26.095 238.746,27.263 238.849,35.866 237.218 C 44.123 235.651,43.335 236.040,42.883 233.753 C 42.660 232.625,42.324 231.888,42.076 231.980 C 40.700 232.492,28.339 234.605,27.839 234.413 C 25.955 233.690,26.557 231.334,28.797 230.663 C 30.406 230.181,30.528 229.897,30.086 227.687 C 29.814 226.327,29.866 226.343,27.931 227.034 M34.933 240.126 C 28.429 241.914,25.762 247.402,28.588 253.180 C 32.579 261.336,46.856 257.806,46.825 248.672 C 46.801 241.962,41.669 238.274,34.933 240.126 M356.153 241.464 L 355.549 243.351 361.460 247.206 C 364.711 249.326,367.371 251.103,367.371 251.154 C 367.371 251.206,364.194 251.197,360.311 251.136 L 353.250 251.023 352.634 252.832 C 351.846 255.144,350.866 254.952,361.899 254.652 L 371.507 254.391 371.934 252.967 C 372.169 252.183,372.361 251.360,372.361 251.137 C 372.361 250.821,358.964 240.833,357.169 239.812 C 356.925 239.673,356.510 240.348,356.153 241.464 M40.973 244.022 C 45.093 245.977,44.029 251.447,39.198 253.152 C 35.271 254.537,32.085 253.482,31.090 250.467 C 29.662 246.141,36.306 241.808,40.973 244.022 M40.307 258.910 C 35.768 260.665,32.091 262.208,32.136 262.340 C 32.181 262.472,32.424 263.270,32.676 264.112 C 33.250 266.028,32.372 266.177,41.936 262.537 C 51.441 258.919,50.772 259.360,49.875 257.294 C 49.012 255.304,50.120 255.117,40.307 258.910 M350.840 257.444 C 350.420 258.424,350.124 259.266,350.182 259.316 C 350.326 259.438,366.716 265.688,367.107 265.770 C 367.279 265.806,367.732 265.029,368.113 264.045 L 368.807 262.255 362.234 259.759 C 358.620 258.386,354.749 256.903,353.633 256.463 L 351.604 255.663 350.840 257.444 M349.160 261.885 C 348.662 263.002,347.281 266.056,346.093 268.672 C 344.905 271.287,343.981 273.468,344.039 273.517 C 344.240 273.686,346.603 274.856,346.743 274.856 C 346.821 274.856,347.379 273.820,347.985 272.553 C 349.331 269.735,348.643 269.686,356.193 273.135 C 363.619 276.527,362.805 276.399,363.809 274.332 L 364.623 272.657 358.031 269.657 C 354.406 268.007,351.313 266.553,351.158 266.425 C 351.004 266.298,351.385 265.119,352.006 263.807 L 353.135 261.420 351.601 260.637 L 350.067 259.855 349.160 261.885 M45.873 263.769 C 43.129 265.056,39.465 266.767,37.731 267.572 L 34.579 269.034 35.236 270.598 C 36.056 272.551,35.546 272.621,41.900 269.674 C 44.859 268.301,47.349 267.179,47.434 267.179 C 47.519 267.179,45.693 269.866,43.375 273.150 L 39.161 279.121 39.973 280.731 C 40.420 281.617,40.830 282.393,40.884 282.455 C 40.938 282.518,43.465 281.414,46.499 280.003 C 49.533 278.592,53.272 276.859,54.809 276.152 L 57.602 274.866 56.816 273.326 C 55.835 271.402,56.329 271.332,50.144 274.264 C 47.267 275.628,44.914 276.660,44.914 276.557 C 44.914 276.454,46.732 273.798,48.955 270.654 L 52.996 264.939 52.141 263.180 C 51.104 261.044,51.832 260.976,45.873 263.769 M56.339 276.162 L 54.927 277.014 56.278 279.257 C 57.908 281.963,58.359 281.417,50.864 285.800 C 47.697 287.652,45.035 289.228,44.948 289.303 C 44.692 289.523,46.216 292.198,46.709 292.395 C 46.957 292.494,49.974 290.908,53.412 288.871 C 58.632 285.779,59.730 285.261,60.062 285.735 C 60.281 286.047,60.935 287.102,61.515 288.079 C 62.627 289.951,62.767 289.974,64.637 288.577 C 65.323 288.064,65.190 287.750,61.985 282.310 C 57.342 274.429,58.009 275.155,56.339 276.162 M340.729 278.925 C 339.551 281.034,338.908 279.952,346.599 288.810 L 352.507 295.615 353.401 294.160 C 354.575 292.250,354.544 291.824,353.123 290.357 L 351.926 289.123 353.545 286.190 C 355.318 282.979,354.933 283.160,358.349 283.926 C 359.060 284.085,361.290 280.928,360.806 280.449 C 360.620 280.266,343.156 277.159,342.312 277.159 C 341.984 277.159,341.272 277.954,340.729 278.925 M351.490 282.648 C 351.605 282.763,351.233 283.653,350.663 284.626 C 349.472 286.658,349.579 286.693,346.638 283.298 L 344.736 281.102 348.009 281.771 C 349.809 282.139,351.375 282.533,351.490 282.648 M334.658 288.787 L 333.639 290.371 341.329 295.501 C 345.558 298.322,349.061 300.575,349.114 300.507 C 349.167 300.439,349.667 299.698,350.226 298.859 L 351.242 297.335 344.047 292.594 C 340.090 289.987,336.588 287.707,336.264 287.528 C 335.821 287.283,335.424 287.594,334.658 288.787 M328.876 297.019 L 324.377 302.990 325.610 303.899 C 327.134 305.024,327.089 305.042,328.913 302.592 L 330.413 300.578 336.196 304.992 C 339.376 307.419,342.144 309.405,342.345 309.405 C 342.676 309.405,344.722 306.996,344.722 306.607 C 344.722 306.517,342.037 304.416,338.755 301.938 C 334.717 298.888,332.895 297.288,333.118 296.988 C 333.299 296.744,334.009 295.814,334.697 294.920 C 336.047 293.165,336.027 292.936,334.430 291.799 L 333.375 291.048 328.876 297.019 M64.274 297.266 C 57.496 300.423,55.543 306.250,59.396 311.828 C 65.174 320.195,80.266 311.178,76.044 301.881 C 73.850 297.051,68.903 295.111,64.274 297.266 M71.346 301.164 C 73.889 303.304,73.562 306.613,70.546 309.262 C 67.230 312.173,63.798 312.225,61.872 309.391 C 58.685 304.701,66.984 297.494,71.346 301.164 M322.467 304.979 C 321.751 305.718,321.240 306.388,321.331 306.467 C 321.423 306.547,324.175 308.906,327.447 311.710 C 330.720 314.514,333.800 317.172,334.291 317.616 L 335.185 318.425 336.557 316.928 C 337.718 315.661,337.841 315.366,337.361 315.009 C 337.048 314.777,333.987 312.169,330.559 309.213 C 323.198 302.866,324.072 303.324,322.467 304.979 M318.869 308.960 C 317.454 310.436,317.375 310.288,322.060 314.959 C 324.376 317.267,326.232 319.194,326.184 319.241 C 326.137 319.288,323.077 318.498,319.383 317.486 L 312.668 315.645 311.137 317.132 L 309.607 318.619 315.932 324.953 C 322.903 331.933,322.626 331.760,324.193 330.125 L 325.305 328.964 320.912 324.559 C 318.496 322.136,316.673 320.154,316.860 320.154 C 317.048 320.154,320.206 320.957,323.877 321.939 L 330.553 323.725 331.879 322.440 C 333.619 320.753,334.096 321.484,326.546 314.265 L 319.887 307.897 318.869 308.960 M73.980 314.696 L 67.546 321.138 68.903 322.454 L 70.260 323.769 72.873 321.176 L 75.486 318.583 77.282 320.504 C 79.533 322.910,79.523 323.365,77.159 326.066 C 74.856 328.698,74.877 328.473,76.761 330.312 L 78.282 331.797 78.700 330.696 C 78.930 330.091,79.887 328.774,80.826 327.770 C 82.038 326.474,82.534 325.620,82.534 324.826 C 82.534 323.783,82.651 323.695,84.290 323.510 C 87.254 323.176,89.473 320.224,88.860 317.431 C 88.593 316.215,81.621 308.253,80.824 308.253 C 80.598 308.253,77.518 311.152,73.980 314.696 M83.246 315.332 C 85.477 317.691,85.614 318.259,84.278 319.595 C 82.903 320.971,82.169 320.778,79.849 318.429 L 77.766 316.320 79.268 314.782 C 81.132 312.873,80.888 312.839,83.246 315.332 M306.363 321.147 C 305.714 321.694,305.182 322.274,305.182 322.436 C 305.182 322.684,311.095 329.595,315.811 334.858 L 317.120 336.320 318.423 335.242 C 320.177 333.793,320.331 334.083,313.876 326.687 C 307.563 319.452,307.997 319.773,306.363 321.147 M91.360 322.795 C 81.466 326.013,80.985 340.883,90.775 340.883 C 92.445 340.883,92.518 340.927,92.114 341.681 C 91.596 342.650,91.835 343.385,92.845 343.925 C 93.512 344.282,93.913 343.952,96.190 341.167 C 97.613 339.427,99.018 337.720,99.314 337.374 C 99.792 336.814,99.536 336.487,96.981 334.399 C 93.694 331.714,93.761 331.732,92.609 333.193 L 91.744 334.290 93.281 335.507 C 95.085 336.937,95.140 337.158,93.840 337.750 C 89.943 339.526,86.038 335.445,87.734 331.370 C 90.400 324.965,98.947 324.499,98.811 330.766 C 98.778 332.293,98.921 332.601,100.076 333.482 C 101.717 334.733,102.177 334.350,102.410 331.544 C 102.857 326.150,96.507 321.121,91.360 322.795 M293.488 331.330 C 292.651 331.959,291.908 332.532,291.838 332.603 C 291.707 332.733,296.729 350.930,296.972 351.208 C 297.422 351.722,300.253 349.194,300.079 348.433 C 299.284 344.950,299.130 345.383,301.856 343.438 C 304.789 341.345,304.572 341.386,306.176 342.610 C 307.757 343.816,307.929 343.810,309.775 342.473 L 311.290 341.375 303.534 335.898 C 294.425 329.466,295.387 329.903,293.488 331.330 M103.382 340.048 C 95.050 346.419,95.454 345.923,97.535 347.236 C 99.238 348.311,98.928 348.371,101.562 346.451 C 102.300 345.913,102.552 345.997,105.112 347.634 C 108.065 349.523,108.072 349.541,107.059 352.294 C 106.775 353.065,109.833 355.959,110.353 355.411 C 110.533 355.222,114.779 337.411,114.779 336.846 C 114.779 336.303,111.958 334.343,111.237 334.386 C 110.968 334.401,107.434 336.949,103.382 340.048 M281.958 338.805 C 275.022 342.911,275.369 342.571,276.396 344.256 L 277.165 345.518 278.986 344.478 C 279.987 343.906,281.035 343.263,281.315 343.049 C 281.675 342.774,281.926 342.822,282.172 343.211 C 282.363 343.514,284.110 346.477,286.054 349.795 L 289.588 355.827 290.955 355.012 C 291.707 354.563,292.459 354.078,292.626 353.935 C 292.793 353.791,291.281 350.875,289.267 347.455 C 284.948 340.122,285.088 340.851,287.716 339.347 C 288.877 338.683,289.827 338.072,289.827 337.989 C 289.827 337.607,288.509 335.127,288.317 335.147 C 288.197 335.160,285.336 336.806,281.958 338.805 M299.351 337.428 C 302.152 339.483,302.121 339.369,300.200 340.640 C 298.107 342.025,298.148 342.055,297.052 338.399 C 296.462 336.434,296.258 335.256,296.536 335.424 C 296.789 335.576,298.056 336.478,299.351 337.428 M109.723 342.633 C 109.274 344.310,108.860 345.740,108.803 345.811 C 108.602 346.059,105.150 343.860,105.262 343.556 C 105.412 343.149,110.252 339.299,110.413 339.459 C 110.482 339.528,110.171 340.957,109.723 342.633 M116.992 348.273 C 114.829 352.548,113.007 356.233,112.944 356.461 C 112.832 356.864,115.795 358.432,116.083 358.121 C 116.163 358.036,117.440 355.547,118.921 352.591 C 122.061 346.325,121.888 346.180,122.341 355.465 L 122.649 361.793 124.303 362.704 C 125.213 363.205,126.014 363.552,126.083 363.477 C 126.153 363.401,128.042 359.672,130.282 355.189 L 134.354 347.039 132.835 346.264 C 132.000 345.838,131.262 345.489,131.194 345.489 C 131.127 345.489,129.873 347.908,128.407 350.864 C 125.417 356.893,125.145 357.157,125.142 354.031 C 125.142 352.817,125.030 349.643,124.894 346.978 L 124.647 342.132 122.966 341.316 C 122.041 340.867,121.204 340.499,121.105 340.499 C 121.006 340.499,119.155 343.997,116.992 348.273 M269.737 345.339 L 267.881 346.305 268.108 348.105 C 268.233 349.094,268.692 353.356,269.127 357.576 C 270.040 366.436,269.802 365.822,271.924 364.791 L 273.581 363.985 273.409 361.909 L 273.237 359.833 275.969 358.611 C 279.313 357.116,279.041 357.110,280.594 358.712 L 281.875 360.034 283.797 359.061 L 285.718 358.087 278.852 351.212 C 275.075 347.431,271.897 344.346,271.789 344.356 C 271.681 344.366,270.758 344.808,269.737 345.339 M136.089 348.170 C 135.967 348.367,134.331 352.174,132.452 356.630 L 129.036 364.733 130.791 365.486 C 131.757 365.900,132.591 366.191,132.646 366.132 C 132.908 365.855,139.779 349.252,139.667 349.167 C 138.986 348.647,136.262 347.889,136.089 348.170 M276.476 354.643 C 276.417 354.781,275.530 355.265,274.505 355.717 L 272.641 356.540 272.396 354.565 C 272.262 353.480,272.049 351.851,271.923 350.945 L 271.694 349.299 274.139 351.846 C 275.483 353.246,276.535 354.505,276.476 354.643 M255.470 351.436 C 251.591 352.491,247.407 354.245,247.529 354.766 C 247.720 355.584,253.334 371.312,253.490 371.468 C 253.927 371.905,262.505 368.360,263.620 367.281 C 267.888 363.156,265.070 352.894,259.224 351.271 C 257.523 350.798,257.872 350.783,255.470 351.436 M142.058 351.949 C 139.644 353.244,138.520 357.189,139.974 359.265 C 140.319 359.757,142.038 361.087,143.794 362.220 C 147.980 364.920,148.814 366.751,146.230 367.571 C 143.776 368.350,139.230 365.274,140.293 363.554 C 140.538 363.158,139.536 362.635,137.603 362.150 C 136.703 361.924,136.660 361.994,136.660 363.701 C 136.660 371.633,150.281 373.776,151.438 366.027 C 151.769 363.808,150.756 362.460,146.711 359.740 C 142.771 357.091,142.431 356.574,143.758 355.248 C 145.538 353.468,149.712 355.447,149.712 358.071 C 149.712 358.589,150.147 358.934,151.196 359.248 C 153.151 359.834,153.069 359.860,153.355 358.560 C 154.361 353.981,146.666 349.478,142.058 351.949 M259.401 355.578 C 261.518 357.515,262.473 362.961,261.020 364.809 C 260.318 365.702,256.282 367.403,255.922 366.959 C 255.668 366.647,252.207 356.715,252.207 356.299 C 252.207 354.811,257.936 354.236,259.401 355.578 M156.412 364.412 C 150.922 372.916,150.913 372.944,153.421 373.344 C 154.969 373.592,155.050 373.551,156.063 372.021 C 157.267 370.201,157.032 370.253,160.382 371.067 C 163.332 371.784,163.916 372.322,163.916 374.328 C 163.916 375.866,164.011 375.937,166.718 376.417 C 168.103 376.663,168.166 376.630,167.979 375.766 C 167.871 375.266,167.415 371.315,166.968 366.987 C 165.926 356.924,166.067 357.351,163.605 356.797 L 161.616 356.349 156.412 364.412 M232.054 357.365 C 228.567 358.214,226.875 360.194,226.873 363.430 C 226.870 367.179,228.989 368.468,235.221 368.505 C 239.183 368.529,240.432 369.745,238.638 371.831 C 237.189 373.515,233.430 373.661,232.261 372.080 C 231.399 370.914,228.020 370.960,228.024 372.138 C 228.042 377.335,239.793 377.821,242.424 372.734 C 244.770 368.197,242.242 365.331,235.509 364.894 C 231.041 364.603,230.326 364.338,230.326 362.968 C 230.326 360.680,234.884 359.539,236.605 361.397 C 237.436 362.294,237.748 362.392,239.029 362.161 C 241.118 361.783,241.151 361.731,240.317 360.096 C 239.045 357.603,235.665 356.486,232.054 357.365 M169.507 359.816 C 169.211 361.667,169.008 361.488,171.942 361.961 C 173.284 362.177,174.457 362.429,174.549 362.521 C 174.641 362.613,174.273 365.748,173.730 369.487 C 173.188 373.226,172.745 376.515,172.745 376.795 C 172.745 377.256,176.009 378.057,176.376 377.685 C 176.512 377.547,178.503 364.219,178.503 363.444 C 178.503 363.196,179.517 363.153,181.339 363.323 L 184.175 363.589 184.324 362.025 C 184.406 361.165,184.469 360.456,184.463 360.449 C 184.458 360.443,181.145 359.957,177.101 359.369 L 169.749 358.300 169.507 359.816 M222.361 359.619 C 221.464 359.684,220.729 359.878,220.729 360.049 C 220.729 360.221,220.997 362.909,221.324 366.022 C 221.651 369.136,221.859 371.743,221.786 371.816 C 221.713 371.889,219.838 369.407,217.619 366.300 L 213.584 360.653 211.686 360.787 C 210.643 360.860,209.723 360.984,209.642 361.062 C 209.561 361.139,209.894 365.283,210.383 370.270 L 211.271 379.337 213.025 379.076 C 213.990 378.932,214.806 378.788,214.839 378.755 C 214.872 378.722,214.651 376.363,214.349 373.512 C 213.520 365.690,213.412 365.726,218.068 372.247 L 222.125 377.927 223.955 377.862 C 226.356 377.777,226.231 378.581,225.317 369.056 C 224.360 359.090,224.478 359.466,222.361 359.619 M184.521 368.810 C 183.638 379.951,183.510 378.887,185.732 378.887 L 187.586 378.887 188.231 370.729 C 189.121 359.471,189.237 360.461,187.026 360.461 L 185.184 360.461 184.521 368.810 M195.585 361.191 C 188.969 364.264,188.699 375.738,195.163 379.175 C 198.766 381.092,204.541 379.536,206.681 376.071 C 211.814 367.765,203.998 357.283,195.585 361.191 M163.126 366.280 L 163.148 368.453 161.189 367.936 C 160.111 367.652,159.178 367.365,159.114 367.299 C 159.051 367.233,159.803 365.865,160.785 364.259 L 162.572 361.339 162.838 362.723 C 162.984 363.485,163.114 365.085,163.126 366.280 M202.106 364.748 C 205.155 367.146,204.822 374.308,201.585 375.982 C 196.552 378.585,192.459 372.296,195.284 366.301 C 196.406 363.919,200.010 363.099,202.106 364.748 " stroke="none" fill="#04acac" fill-rule="evenodd"></path><path id="path1" d="M194.434 21.497 L 188.676 21.689 188.786 27.639 C 188.847 30.912,188.996 34.496,189.118 35.605 L 189.340 37.620 192.309 37.620 C 193.942 37.620,196.599 37.508,198.215 37.372 L 201.152 37.123 201.152 35.784 L 201.152 34.445 196.764 34.715 L 192.377 34.985 192.115 33.236 C 191.688 30.389,191.775 30.326,196.149 30.326 L 200.000 30.326 200.000 28.940 L 200.000 27.555 196.065 27.693 L 192.131 27.831 192.014 26.008 L 191.897 24.184 195.960 24.184 C 200.298 24.184,200.575 24.058,200.317 22.201 L 200.192 21.305 194.434 21.497 M206.216 26.967 C 204.951 29.976,203.481 33.474,202.949 34.741 L 201.982 37.044 203.582 37.237 C 205.201 37.433,205.684 36.984,206.625 34.412 C 206.691 34.232,208.080 34.209,209.712 34.362 L 212.680 34.640 213.103 36.322 C 213.523 37.988,213.543 38.004,215.209 38.004 C 216.134 38.004,216.887 37.874,216.883 37.716 C 216.827 35.458,212.263 22.052,211.476 21.831 C 208.694 21.052,208.710 21.036,206.216 26.967 M183.397 22.192 C 182.599 22.258,181.963 22.515,181.969 22.768 C 182.000 24.115,183.460 38.099,183.582 38.220 C 184.011 38.650,186.563 37.844,186.553 37.282 C 186.525 35.807,185.117 22.232,184.984 22.156 C 184.903 22.110,184.189 22.127,183.397 22.192 M224.950 23.303 C 224.949 23.471,224.438 27.056,223.815 31.270 C 223.191 35.484,222.717 38.966,222.761 39.008 C 222.805 39.050,223.527 39.142,224.366 39.213 L 225.892 39.343 227.026 31.576 C 227.649 27.304,228.085 23.743,227.995 23.663 C 227.626 23.337,224.952 23.021,224.950 23.303 M167.642 24.364 C 165.153 24.846,163.028 25.327,162.922 25.434 C 162.260 26.096,165.622 41.120,166.386 40.914 C 166.822 40.797,167.542 40.699,167.986 40.696 C 168.788 40.691,168.789 40.672,168.211 37.426 C 167.520 33.542,167.267 33.889,171.336 33.142 L 174.626 32.537 174.398 31.336 C 174.273 30.675,174.128 30.082,174.077 30.018 C 174.025 29.954,172.480 30.183,170.643 30.527 C 166.819 31.244,166.958 31.296,166.705 29.049 L 166.514 27.351 170.397 26.668 C 174.432 25.960,174.712 25.757,174.047 24.024 C 173.754 23.259,173.197 23.289,167.642 24.364 M229.974 31.894 C 229.077 36.134,228.401 39.655,228.471 39.717 C 228.541 39.779,230.845 40.294,233.589 40.861 C 236.334 41.428,238.951 41.981,239.406 42.091 C 240.085 42.255,240.279 42.076,240.498 41.080 C 240.848 39.488,240.902 39.521,236.363 38.567 L 232.438 37.741 232.517 36.083 C 232.647 33.341,232.544 33.386,236.643 34.258 C 240.714 35.124,240.591 35.145,240.911 33.545 L 241.139 32.405 237.556 31.696 C 233.315 30.856,233.431 30.943,233.856 28.932 L 234.192 27.346 238.305 28.218 C 242.969 29.206,242.664 29.248,242.743 27.605 L 242.802 26.364 237.812 25.287 C 235.067 24.695,232.547 24.204,232.213 24.197 C 231.729 24.187,231.268 25.771,229.974 31.894 M211.660 30.806 C 211.931 31.929,210.804 32.227,208.562 31.625 L 207.720 31.399 208.506 29.423 C 210.223 25.104,210.010 25.273,210.747 27.639 C 211.109 28.800,211.520 30.226,211.660 30.806 M151.402 27.987 C 146.837 30.060,146.514 38.700,150.864 42.360 C 155.210 46.016,162.332 42.937,162.372 37.385 L 162.380 36.191 160.847 36.600 C 159.545 36.948,159.279 37.196,159.082 38.249 C 158.117 43.393,151.953 41.207,151.023 35.391 C 150.354 31.207,154.200 28.253,156.857 30.910 C 157.814 31.868,160.845 31.744,160.845 30.747 C 160.845 28.041,155.027 26.340,151.402 27.987 M246.064 28.796 C 245.844 29.611,244.824 33.065,243.796 36.470 C 241.943 42.612,241.935 42.664,242.749 42.969 C 245.211 43.889,245.052 44.009,246.021 40.497 C 246.516 38.703,247.006 37.236,247.109 37.236 C 247.213 37.236,248.762 37.683,250.552 38.229 C 252.341 38.774,253.857 39.163,253.921 39.092 C 253.985 39.021,254.153 38.422,254.295 37.760 L 254.552 36.556 251.881 35.744 C 250.411 35.298,249.030 34.933,248.811 34.933 C 248.087 34.933,247.945 34.201,248.366 32.638 C 248.855 30.825,248.821 30.829,252.783 32.059 C 256.628 33.254,256.655 33.253,257.137 31.870 C 257.621 30.484,257.922 30.671,252.783 29.166 C 250.461 28.486,248.089 27.791,247.512 27.621 C 246.533 27.333,246.437 27.412,246.064 28.796 M137.375 32.758 L 132.139 34.752 134.949 42.232 C 136.833 47.247,137.926 49.673,138.265 49.593 C 138.544 49.528,141.130 48.599,144.013 47.529 L 149.254 45.584 148.870 44.480 C 148.301 42.850,148.188 42.851,143.905 44.512 C 141.737 45.353,139.929 46.003,139.887 45.957 C 139.637 45.679,138.580 42.818,138.580 42.419 C 138.580 42.154,140.147 41.372,142.062 40.681 C 145.413 39.473,145.535 39.388,145.298 38.427 C 144.940 36.978,144.597 36.772,143.345 37.255 C 142.730 37.492,141.146 38.096,139.825 38.596 L 137.425 39.506 136.850 38.132 C 136.535 37.377,136.276 36.628,136.276 36.470 C 136.276 36.311,138.004 35.533,140.115 34.741 C 142.226 33.949,143.954 33.161,143.954 32.990 C 143.954 30.407,143.587 30.394,137.375 32.758 M266.219 35.764 C 257.900 40.353,260.277 52.688,269.372 52.128 C 276.006 51.719,279.723 41.582,274.767 37.412 C 272.458 35.469,268.230 34.654,266.219 35.764 M123.606 38.363 C 117.678 40.166,115.838 45.911,119.407 51.473 C 122.443 56.203,129.086 56.398,131.634 51.831 C 132.485 50.305,132.597 50.230,133.067 50.872 C 133.491 51.452,133.735 51.497,134.526 51.136 L 135.475 50.704 133.709 46.945 C 132.738 44.878,131.899 43.132,131.846 43.066 C 131.765 42.965,126.338 45.564,125.993 45.869 C 125.737 46.095,126.839 47.983,127.221 47.971 C 127.451 47.964,128.071 47.711,128.599 47.409 C 130.604 46.263,131.401 48.294,129.763 50.376 C 127.115 53.744,122.594 52.082,121.147 47.210 C 120.573 45.276,120.607 44.751,121.422 43.057 C 122.258 41.322,125.993 40.361,127.032 41.613 C 127.486 42.160,130.518 41.365,130.518 40.700 C 130.518 39.072,126.140 37.592,123.606 38.363 M271.192 38.548 C 273.995 39.719,274.486 43.049,272.384 46.635 C 268.883 52.611,261.961 48.035,265.136 41.843 C 266.817 38.566,268.736 37.521,271.192 38.548 M278.215 47.927 C 276.156 51.691,274.472 54.870,274.472 54.991 C 274.472 55.171,280.365 58.560,283.527 60.198 C 284.232 60.563,284.404 60.458,284.939 59.336 L 285.548 58.059 282.121 56.201 C 280.237 55.180,278.695 54.252,278.695 54.139 C 278.696 54.027,279.836 51.862,281.230 49.328 C 285.320 41.892,285.055 42.732,283.599 41.844 C 282.907 41.423,282.255 41.079,282.150 41.080 C 282.044 41.082,280.274 44.163,278.215 47.927 M102.782 50.328 L 97.502 53.812 98.162 54.929 C 98.968 56.294,98.852 56.295,100.960 54.894 C 101.910 54.263,102.799 53.745,102.935 53.744 C 103.071 53.744,104.761 56.161,106.691 59.117 C 108.620 62.073,110.269 64.491,110.356 64.491 C 110.442 64.491,111.115 64.136,111.851 63.702 L 113.189 62.912 109.533 57.341 C 107.521 54.277,105.936 51.723,106.009 51.667 C 106.082 51.610,106.963 51.009,107.966 50.332 L 109.789 49.099 109.203 47.966 C 108.436 46.483,108.827 46.339,102.782 50.328 M291.363 55.505 C 284.500 60.678,284.470 60.714,286.200 61.809 L 287.371 62.551 288.779 61.549 L 290.187 60.547 292.668 62.163 L 295.148 63.779 294.634 65.488 L 294.119 67.198 295.502 68.138 C 296.263 68.655,296.954 69.008,297.039 68.924 C 297.157 68.806,301.332 53.064,301.341 52.701 C 301.347 52.473,298.424 50.676,298.087 50.701 C 297.873 50.718,294.846 52.879,291.363 55.505 M191.171 54.365 C 78.795 62.483,18.100 186.864,81.140 279.846 C 121.183 338.909,200.165 359.243,264.520 327.057 C 328.402 295.107,359.044 221.282,336.774 152.975 C 316.734 91.507,255.076 49.749,191.171 54.365 M297.330 55.950 C 297.188 56.531,296.812 57.913,296.494 59.021 L 295.915 61.036 294.201 59.857 L 292.487 58.677 294.853 56.786 C 297.611 54.581,297.669 54.561,297.330 55.950 M92.020 57.923 C 91.247 58.474,90.610 59.157,90.605 59.440 C 90.591 60.149,95.223 74.586,95.595 74.991 C 96.141 75.588,98.341 73.617,98.093 72.752 C 97.315 70.044,97.308 70.062,99.713 68.211 L 101.997 66.454 103.397 67.406 C 104.903 68.429,105.518 68.333,106.843 66.868 C 107.394 66.260,107.432 66.040,107.031 65.794 C 106.753 65.625,103.578 63.559,99.976 61.204 L 93.425 56.921 92.020 57.923 M303.122 63.536 C 297.547 70.382,297.795 69.768,299.904 71.485 C 305.769 76.258,307.520 76.739,310.961 74.526 C 317.538 70.297,317.717 65.108,311.461 60.020 C 307.756 57.006,308.799 56.567,303.122 63.536 M97.985 63.648 C 98.776 64.168,99.420 64.700,99.416 64.830 C 99.406 65.131,96.347 67.308,96.193 67.124 C 95.997 66.888,94.434 62.057,94.434 61.686 C 94.434 61.491,94.909 61.640,95.489 62.017 C 96.070 62.394,97.193 63.127,97.985 63.648 M311.078 63.372 C 315.720 67.458,309.014 75.095,304.100 71.319 C 302.057 69.748,301.966 70.088,305.620 65.623 C 309.247 61.192,308.807 61.373,311.078 63.372 M81.105 66.902 L 76.413 71.182 77.237 72.059 C 78.336 73.229,78.604 73.180,80.331 71.497 L 81.807 70.058 83.805 72.169 C 84.904 73.330,86.958 75.576,88.370 77.159 L 90.938 80.038 92.142 78.848 L 93.345 77.658 88.903 72.706 L 84.462 67.754 86.281 66.159 L 88.100 64.564 87.169 63.568 C 85.966 62.280,86.483 61.995,81.105 66.902 M209.021 67.580 C 295.190 73.965,352.629 158.982,326.047 240.793 C 301.228 317.175,214.699 354.302,142.489 319.553 C 51.152 275.599,40.810 149.892,123.708 91.246 C 148.047 74.027,179.242 65.373,209.021 67.580 M315.260 74.026 L 309.845 79.723 314.143 84.009 L 318.441 88.294 319.489 87.246 L 320.538 86.197 317.378 83.021 L 314.218 79.844 315.648 78.414 L 317.079 76.984 319.773 79.658 C 322.592 82.456,323.102 82.594,324.159 80.844 C 324.504 80.272,324.134 79.768,321.774 77.607 L 318.980 75.048 320.231 73.801 L 321.481 72.554 324.464 75.520 L 327.447 78.485 328.503 77.427 L 329.559 76.369 325.493 72.350 C 323.256 70.139,321.258 68.330,321.051 68.330 C 320.845 68.330,318.239 70.893,315.260 74.026 M72.745 75.075 C 67.954 77.561,66.753 83.406,70.621 85.406 C 72.494 86.375,73.728 86.115,76.967 84.069 C 80.695 81.716,83.137 81.869,82.258 84.401 C 81.479 86.644,77.761 88.809,76.948 87.493 C 76.691 87.077,74.472 88.882,74.472 89.505 C 74.472 91.159,79.057 91.247,81.379 89.637 C 85.190 86.997,86.223 83.088,83.854 80.273 C 82.012 78.083,79.903 78.358,75.432 81.370 C 73.202 82.872,72.551 83.034,71.730 82.291 C 69.972 80.701,72.552 77.261,75.187 77.682 C 76.431 77.881,76.791 77.768,77.577 76.929 L 78.503 75.942 77.597 75.207 C 76.494 74.313,74.326 74.254,72.745 75.075 M332.776 86.120 C 326.548 88.413,324.034 93.658,326.856 98.473 C 330.078 103.971,337.248 103.443,341.363 97.403 C 345.115 91.897,338.980 83.835,332.776 86.120 M62.356 86.915 C 57.161 89.177,56.283 96.007,60.677 99.976 C 66.074 104.853,72.678 103.266,74.487 96.659 C 76.046 90.964,67.964 84.472,62.356 86.915 M337.748 89.691 C 340.302 91.344,340.046 94.567,337.160 97.107 C 334.319 99.608,332.014 99.827,329.852 97.802 C 325.912 94.111,333.126 86.700,337.748 89.691 M68.136 90.593 C 71.777 92.844,72.638 96.223,70.150 98.502 C 68.055 100.423,65.800 100.119,62.837 97.517 C 58.002 93.272,62.647 87.202,68.136 90.593 M340.323 102.123 C 336.747 104.452,333.754 106.426,333.671 106.508 C 333.589 106.591,333.935 107.268,334.442 108.013 L 335.363 109.368 337.643 107.852 C 340.421 106.005,340.087 105.987,341.392 108.053 C 344.795 113.440,351.631 112.541,351.631 106.706 C 351.631 105.122,347.888 97.976,347.021 97.905 C 346.914 97.896,343.900 99.794,340.323 102.123 M52.256 100.815 C 51.547 101.312,46.449 108.650,46.449 109.174 C 46.449 109.395,59.922 117.944,60.035 117.795 C 61.839 115.427,61.800 115.174,59.405 113.707 C 58.297 113.029,57.146 112.317,56.847 112.126 C 56.404 111.841,56.532 111.425,57.549 109.840 C 59.157 107.334,59.744 107.183,62.289 108.619 C 64.878 110.081,65.019 110.076,65.996 108.496 C 66.949 106.954,66.978 106.718,66.213 106.718 C 65.893 106.718,64.677 106.179,63.511 105.521 C 61.929 104.628,61.102 104.382,60.254 104.552 C 59.263 104.750,59.117 104.668,59.117 103.915 C 59.117 101.149,54.656 99.134,52.256 100.815 M164.971 107.200 L 153.935 112.236 153.935 207.006 L 153.935 301.776 156.382 302.885 C 161.273 305.103,173.709 309.021,175.858 309.021 C 176.568 309.021,176.583 306.768,176.583 205.566 C 176.583 148.666,176.454 102.123,176.296 102.137 C 176.137 102.151,171.041 104.430,164.971 107.200 M348.330 104.972 C 349.896 108.153,345.800 109.729,343.805 106.714 C 342.479 104.710,342.505 104.602,344.626 103.276 L 346.449 102.136 347.110 102.987 C 347.474 103.456,348.023 104.349,348.330 104.972 M56.142 104.340 C 57.080 105.146,56.993 105.723,55.573 108.097 C 54.134 110.503,54.196 110.483,52.199 109.162 C 50.367 107.950,50.360 107.885,51.832 105.746 C 53.569 103.220,54.489 102.921,56.142 104.340 M348.287 114.523 C 344.653 116.478,341.572 118.185,341.440 118.317 C 341.205 118.552,346.529 128.983,346.883 128.983 C 346.982 128.983,347.573 128.719,348.197 128.396 L 349.331 127.810 347.217 123.851 L 345.103 119.893 346.984 118.869 L 348.864 117.846 350.650 121.303 C 351.632 123.204,352.557 124.759,352.705 124.758 C 353.383 124.751,355.046 123.334,354.757 123.009 C 354.581 122.811,353.724 121.305,352.852 119.662 L 351.267 116.676 352.505 115.921 C 354.309 114.821,354.336 114.841,356.430 118.813 C 357.486 120.816,358.401 122.455,358.464 122.456 C 358.528 122.456,359.097 122.189,359.729 121.862 L 360.878 121.268 358.202 116.209 C 356.730 113.427,355.383 111.110,355.210 111.060 C 355.036 111.010,351.921 112.568,348.287 114.523 M43.625 114.251 C 43.260 115.016,43.012 115.687,43.074 115.743 C 43.136 115.798,45.173 116.831,47.601 118.037 C 54.091 121.263,54.998 122.367,53.363 125.048 C 52.246 126.880,51.086 126.701,45.298 123.800 C 39.473 120.882,40.089 121.023,39.357 122.438 C 38.451 124.190,38.445 124.183,44.170 127.049 C 51.525 130.730,53.728 130.574,55.973 126.211 C 58.494 121.313,57.543 119.550,50.276 115.654 C 44.231 112.413,44.477 112.464,43.625 114.251 M200.192 130.872 L 189.443 135.781 189.347 223.498 L 189.250 311.215 191.610 311.462 C 194.640 311.778,205.559 311.776,208.925 311.458 L 211.516 311.213 211.516 218.563 C 211.516 167.605,211.387 125.923,211.228 125.937 C 211.070 125.951,206.104 128.171,200.192 130.872 M356.046 126.427 C 350.862 128.139,348.486 131.415,349.385 135.608 C 350.143 139.140,354.159 142.026,356.882 140.997 C 358.260 140.477,357.025 137.940,355.395 137.940 C 352.608 137.940,351.119 134.130,353.055 131.952 C 357.102 127.396,365.915 130.042,362.424 134.764 C 360.855 136.886,362.472 139.596,364.185 137.716 C 369.041 132.384,363.073 124.106,356.046 126.427 M34.778 132.863 C 33.571 135.841,32.638 138.319,32.703 138.368 C 33.058 138.637,47.427 144.247,47.523 144.155 C 47.586 144.094,48.653 141.568,49.894 138.540 L 52.150 133.035 50.960 132.535 C 49.470 131.908,49.492 131.883,47.762 136.276 C 46.972 138.282,46.271 139.991,46.204 140.075 C 46.102 140.201,42.656 139.042,42.305 138.763 C 42.243 138.713,42.827 137.085,43.603 135.145 C 45.064 131.495,45.042 131.008,43.403 130.817 C 42.503 130.712,41.980 131.645,39.826 137.201 C 39.661 137.627,38.058 137.258,37.135 136.581 C 36.498 136.114,36.535 135.900,37.752 133.013 C 39.763 128.240,39.749 128.363,38.343 127.873 C 37.671 127.639,37.088 127.447,37.047 127.447 C 37.006 127.447,35.985 129.884,34.778 132.863 M365.045 147.172 C 356.963 149.468,355.994 150.283,356.333 154.504 C 356.856 161.023,359.578 162.101,368.963 159.505 L 374.202 158.056 373.727 156.475 C 373.466 155.606,373.095 154.922,372.903 154.956 C 372.710 154.990,370.204 155.663,367.334 156.452 C 361.260 158.122,360.320 158.065,359.448 155.978 C 358.202 152.998,359.181 152.242,367.078 150.083 C 371.540 148.863,371.582 148.841,371.340 147.842 C 370.748 145.403,371.131 145.443,365.045 147.172 M30.320 149.424 C 25.790 152.503,26.401 159.282,31.445 161.900 C 38.716 165.675,46.217 160.620,43.582 153.720 C 42.891 151.910,40.528 149.704,39.946 150.325 C 39.053 151.276,39.128 153.008,40.102 153.922 C 43.214 156.846,39.808 160.775,35.079 159.716 C 29.874 158.551,28.286 153.812,32.481 151.957 C 33.407 151.547,34.167 151.004,34.170 150.750 C 34.173 150.496,34.280 149.899,34.407 149.424 C 34.619 148.635,34.508 148.560,33.115 148.560 C 32.168 148.560,31.111 148.887,30.320 149.424 M235.125 154.689 L 224.376 159.621 224.279 234.483 L 224.182 309.345 228.502 308.217 C 234.168 306.737,235.721 306.230,241.555 303.958 L 246.449 302.051 246.449 225.881 C 246.449 183.988,246.320 149.722,246.161 149.735 C 246.003 149.747,241.036 151.976,235.125 154.689 M270.250 154.655 L 259.693 159.530 259.596 227.174 C 259.542 264.378,259.592 294.818,259.707 294.818 C 260.950 294.818,272.819 285.679,277.772 280.909 L 281.766 277.062 281.766 213.387 C 281.766 162.685,281.668 149.719,281.286 149.746 C 281.022 149.764,276.056 151.973,270.250 154.655 M129.942 161.966 L 119.194 166.875 119.097 222.171 L 118.999 277.467 123.305 281.387 C 129.275 286.822,139.782 294.818,140.955 294.818 C 141.126 294.818,141.267 263.810,141.267 225.912 C 141.267 188.013,141.137 157.017,140.979 157.031 C 140.821 157.045,135.854 159.265,129.942 161.966 M366.987 163.110 L 359.501 164.518 359.561 165.780 C 359.645 167.567,359.550 167.552,364.864 166.620 C 367.515 166.155,369.863 165.834,370.082 165.907 C 370.300 165.980,368.311 167.848,365.661 170.058 C 360.881 174.045,360.845 174.086,361.082 175.426 C 361.438 177.434,361.226 177.422,369.582 175.911 L 377.356 174.506 377.111 173.145 C 376.976 172.397,376.820 171.731,376.764 171.665 C 376.658 171.539,368.068 173.020,366.891 173.367 C 365.477 173.782,366.384 172.811,370.832 169.144 C 373.501 166.943,375.432 165.069,375.432 164.681 C 375.432 163.562,374.967 161.609,374.712 161.657 C 374.580 161.682,371.104 162.336,366.987 163.110 M25.336 163.864 C 25.336 163.962,24.893 166.536,24.352 169.584 C 23.810 172.633,23.421 175.167,23.488 175.217 C 23.862 175.497,38.470 177.786,38.880 177.628 C 39.338 177.453,41.394 166.391,41.030 166.059 C 40.949 165.985,40.350 165.811,39.699 165.671 L 38.515 165.418 37.780 169.753 L 37.044 174.088 35.317 173.962 C 34.367 173.892,33.434 173.685,33.245 173.502 C 32.943 173.211,33.469 168.442,34.013 166.541 C 34.146 166.075,33.872 165.832,33.001 165.640 C 31.455 165.301,31.544 165.147,30.799 169.456 L 30.157 173.167 28.610 172.912 C 27.759 172.772,26.990 172.589,26.901 172.507 C 26.756 172.372,27.394 167.590,27.901 165.018 C 28.083 164.098,27.978 163.994,26.718 163.847 C 25.958 163.758,25.336 163.766,25.336 163.864 M371.144 178.706 C 369.990 179.333,369.500 180.578,368.902 184.413 C 368.389 187.701,367.983 188.484,366.790 188.484 C 364.538 188.484,363.602 183.746,365.547 182.195 C 366.866 181.143,367.109 178.503,365.887 178.503 C 361.656 178.503,360.480 188.222,364.380 190.954 C 367.799 193.349,370.887 191.087,371.787 185.528 C 372.524 180.977,374.640 179.519,375.777 182.780 C 376.431 184.655,376.293 185.378,375.048 186.623 C 373.914 187.757,373.670 188.600,374.129 189.796 C 374.792 191.523,377.754 189.344,378.498 186.582 C 379.984 181.065,375.548 176.315,371.144 178.706 M24.861 179.488 C 23.403 180.279,22.770 181.702,22.484 184.837 C 22.349 186.315,22.152 188.226,22.047 189.084 L 21.855 190.644 28.106 191.115 C 31.544 191.373,35.189 191.688,36.205 191.814 L 38.053 192.044 37.933 190.360 L 37.812 188.676 35.893 188.575 C 32.271 188.386,32.422 188.550,32.559 184.939 C 32.753 179.870,29.024 177.229,24.861 179.488 M29.339 182.945 C 29.965 183.571,30.219 187.510,29.655 187.837 C 29.496 187.929,28.354 187.916,27.116 187.809 L 24.865 187.614 25.034 185.577 C 25.287 182.529,27.543 181.149,29.339 182.945 M29.659 196.106 L 21.890 199.040 21.886 201.023 L 21.881 203.005 29.963 205.702 L 38.044 208.399 37.928 206.609 C 37.816 204.879,37.760 204.805,36.276 204.391 L 34.741 203.964 34.630 200.895 L 34.520 197.827 36.070 197.363 C 37.610 196.901,37.620 196.886,37.620 194.994 C 37.620 193.947,37.577 193.109,37.524 193.131 C 37.471 193.153,33.932 194.492,29.659 196.106 M363.035 197.232 C 362.580 204.696,364.532 207.048,371.209 207.084 C 377.288 207.117,378.887 205.310,378.887 198.408 L 378.887 193.858 373.608 193.855 C 370.705 193.854,367.192 193.745,365.800 193.613 L 363.270 193.374 363.035 197.232 M376.200 199.201 C 376.200 202.951,375.265 203.839,371.324 203.838 C 367.278 203.837,365.468 202.268,365.457 198.752 L 365.451 196.929 370.825 196.929 L 376.200 196.929 376.200 199.201 M31.862 200.939 L 31.862 203.030 29.846 202.434 C 28.738 202.106,27.313 201.627,26.679 201.369 L 25.528 200.899 28.407 199.904 C 29.990 199.357,31.416 198.895,31.574 198.879 C 31.732 198.862,31.862 199.789,31.862 200.939 " stroke="none" fill="#fafbfb" fill-rule="evenodd"></path><path id="path2" d="M185.797 0.259 C 70.485 8.622,-13.544 111.901,1.581 226.679 C 15.315 330.909,109.074 407.232,214.012 399.606 C 331.596 391.062,416.338 283.987,397.487 167.778 C 380.941 65.780,288.712 -7.204,185.797 0.259 M200.384 22.649 L 200.384 24.184 198.177 24.188 C 196.963 24.189,195.062 24.300,193.954 24.433 L 191.939 24.675 191.939 26.182 L 191.939 27.689 195.970 27.568 L 200.002 27.447 200.001 28.837 C 200.000 30.434,199.255 30.698,194.722 30.706 L 192.322 30.710 192.322 32.617 L 192.322 34.525 196.833 34.633 L 201.344 34.741 201.344 36.084 L 201.344 37.428 195.202 37.681 C 191.823 37.820,189.036 37.906,189.006 37.873 C 188.977 37.839,188.828 34.149,188.674 29.671 L 188.395 21.531 191.415 21.399 C 193.075 21.327,195.773 21.233,197.409 21.190 L 200.384 21.113 200.384 22.649 M214.860 29.910 C 217.572 39.138,217.555 38.593,215.120 38.145 C 213.431 37.834,213.284 37.711,212.883 36.276 L 212.454 34.741 209.554 34.630 L 206.654 34.519 206.045 36.069 C 205.457 37.567,205.375 37.620,203.678 37.620 C 201.425 37.620,201.352 38.061,205.086 29.094 L 208.253 21.489 210.349 21.589 L 212.444 21.689 214.860 29.910 M185.436 22.937 C 185.449 23.517,185.767 27.102,186.143 30.902 C 186.931 38.876,187.018 38.388,184.814 38.388 C 183.152 38.388,183.109 38.357,183.086 37.140 C 183.073 36.454,182.767 32.831,182.407 29.090 C 181.681 21.560,181.569 22.018,184.165 21.926 C 185.276 21.886,185.415 21.997,185.436 22.937 M174.332 24.568 C 174.672 26.231,175.056 26.000,170.593 26.811 L 166.795 27.501 166.919 29.006 C 167.083 31.001,166.913 30.946,170.833 30.276 L 174.270 29.689 174.518 31.009 C 174.828 32.663,174.604 32.807,170.741 33.434 C 167.982 33.883,167.725 33.999,167.897 34.718 C 168.322 36.488,168.945 40.396,168.823 40.518 C 168.751 40.590,167.971 40.811,167.089 41.009 L 165.487 41.369 165.100 39.399 C 164.404 35.855,162.814 27.085,162.692 26.112 C 162.575 25.184,162.693 25.138,167.754 24.138 C 174.027 22.899,173.990 22.897,174.332 24.568 M227.920 23.345 C 228.349 23.617,226.454 38.933,225.926 39.461 C 225.478 39.909,222.649 39.037,222.646 38.450 C 222.642 37.688,224.570 24.202,224.781 23.512 C 224.942 22.986,227.167 22.867,227.920 23.345 M238.299 25.194 L 243.392 26.216 243.142 27.599 C 242.805 29.465,243.104 29.410,238.535 28.451 C 236.296 27.981,234.412 27.650,234.348 27.714 C 233.615 28.462,233.796 30.698,234.605 30.886 C 235.904 31.188,241.096 32.246,241.282 32.246 C 241.506 32.246,241.022 34.686,240.734 35.011 C 240.603 35.160,238.950 34.944,237.062 34.532 C 235.173 34.119,233.504 33.781,233.352 33.781 C 233.106 33.781,232.184 37.302,232.378 37.497 C 232.421 37.540,234.384 37.969,236.739 38.450 L 241.022 39.325 240.806 40.488 C 240.412 42.605,241.014 42.618,229.896 40.257 L 228.122 39.881 229.607 32.704 C 230.424 28.757,231.187 25.121,231.302 24.624 C 231.468 23.912,231.693 23.768,232.359 23.946 C 232.825 24.071,235.497 24.633,238.299 25.194 M209.696 26.871 C 209.481 27.399,209.025 28.500,208.683 29.318 C 207.811 31.402,207.851 31.478,209.819 31.478 L 211.577 31.478 211.305 30.239 C 210.527 26.696,210.118 25.840,209.696 26.871 M157.504 27.390 C 158.870 27.961,161.364 30.564,161.043 31.084 C 160.550 31.882,157.730 31.954,156.880 31.190 C 152.367 27.134,148.795 35.543,153.227 39.789 C 155.322 41.796,158.925 40.570,158.925 37.851 C 158.925 37.165,159.249 36.877,160.409 36.529 C 162.436 35.922,162.380 35.890,162.380 37.664 C 162.380 44.222,152.943 46.522,149.341 40.841 C 144.604 33.372,150.109 24.300,157.504 27.390 M252.120 28.794 C 258.156 30.576,257.726 30.329,257.397 31.830 C 257.030 33.498,256.925 33.508,252.807 32.272 L 249.093 31.157 248.782 31.989 C 247.840 34.508,247.702 34.327,251.436 35.445 C 253.338 36.015,254.894 36.538,254.894 36.609 C 254.894 38.997,253.743 39.446,250.350 38.383 C 247.000 37.333,247.063 37.304,246.303 40.234 C 245.357 43.881,245.335 43.905,243.433 43.393 C 242.558 43.157,241.843 42.828,241.843 42.660 C 241.843 42.381,245.837 28.848,246.248 27.735 C 246.483 27.097,246.197 27.045,252.120 28.794 M143.810 31.726 C 144.513 33.408,144.640 33.300,139.983 34.980 L 136.588 36.205 136.823 37.380 C 137.196 39.241,137.492 39.273,141.242 37.862 L 144.786 36.528 145.352 37.883 C 146.031 39.507,146.204 39.303,143.165 40.455 C 141.804 40.970,140.224 41.573,139.653 41.793 L 138.615 42.194 139.209 43.938 C 139.923 46.032,139.446 46.010,144.273 44.171 L 148.236 42.660 148.809 44.029 C 149.123 44.782,149.239 45.529,149.067 45.688 C 148.615 46.105,137.837 50.061,137.671 49.871 C 137.285 49.429,132.006 34.852,132.172 34.687 C 132.311 34.548,141.956 30.736,143.110 30.364 C 143.173 30.343,143.488 30.956,143.810 31.726 M271.440 35.381 C 277.479 37.455,279.012 43.445,274.961 49.142 C 270.527 55.378,260.866 52.330,260.922 44.712 C 260.968 38.344,266.299 33.615,271.440 35.381 M129.296 39.105 C 131.513 40.684,129.273 42.933,126.779 41.632 C 123.684 40.018,120.379 42.863,121.070 46.546 C 121.973 51.357,126.203 53.452,129.251 50.598 C 131.299 48.679,130.776 46.490,128.541 47.630 C 127.687 48.066,126.941 48.367,126.883 48.299 C 126.825 48.232,126.508 47.647,126.179 47.000 L 125.581 45.823 128.440 44.409 C 130.012 43.631,131.467 42.994,131.673 42.994 C 132.006 42.994,135.509 50.000,135.509 50.666 C 135.509 51.413,133.494 51.840,133.021 51.194 C 132.587 50.600,132.494 50.639,132.010 51.626 C 128.374 59.050,117.466 54.529,117.466 45.598 C 117.466 39.871,124.754 35.871,129.296 39.105 M267.505 38.971 C 264.983 40.341,263.658 45.822,265.368 47.809 C 268.121 51.009,273.683 47.487,273.701 42.532 C 273.712 39.279,270.420 37.387,267.505 38.971 M284.834 42.714 C 284.832 42.974,283.464 45.651,281.793 48.663 L 278.754 54.140 281.508 55.651 C 285.613 57.906,285.786 58.062,285.256 59.052 C 284.542 60.385,284.944 60.139,291.758 55.067 L 298.230 50.249 299.787 51.279 C 300.643 51.846,301.351 52.502,301.360 52.738 C 301.396 53.676,297.314 69.098,297.030 69.098 C 296.863 69.098,296.116 68.709,295.371 68.234 C 293.975 67.344,293.932 67.136,294.644 64.655 C 294.831 64.001,294.443 63.577,292.477 62.285 L 290.083 60.711 288.760 61.720 L 287.438 62.729 286.233 62.011 C 285.571 61.616,282.561 59.924,279.545 58.250 L 274.060 55.207 275.545 52.459 C 276.361 50.948,278.138 47.702,279.494 45.245 L 281.958 40.778 283.397 41.510 C 284.189 41.913,284.836 42.455,284.834 42.714 M109.336 47.850 L 110.170 49.058 108.252 50.289 C 105.854 51.828,105.725 51.223,109.777 57.435 C 113.393 62.977,113.403 63.022,111.391 64.203 L 110.247 64.875 106.628 59.317 L 103.010 53.759 100.944 55.061 L 98.878 56.364 98.035 55.149 C 97.570 54.481,97.305 53.821,97.444 53.682 C 97.807 53.320,108.407 46.468,108.459 46.562 C 108.483 46.606,108.877 47.185,109.336 47.850 M214.680 54.731 C 297.172 63.243,355.493 139.221,342.394 221.113 C 329.593 301.136,252.797 355.105,173.129 340.065 C 95.823 325.471,44.393 251.270,57.778 173.643 C 68.961 108.790,122.411 59.949,188.292 54.385 C 193.191 53.972,209.374 54.184,214.680 54.731 M295.202 56.674 C 294.040 57.595,293.049 58.479,292.999 58.637 C 292.907 58.929,295.574 60.811,295.759 60.584 C 295.920 60.386,297.474 55.117,297.389 55.055 C 297.347 55.024,296.363 55.753,295.202 56.674 M100.703 61.464 C 104.328 63.810,107.434 65.860,107.606 66.018 C 107.778 66.177,107.245 66.841,106.422 67.493 L 104.925 68.679 103.490 67.704 L 102.055 66.729 100.644 67.725 C 97.184 70.166,97.328 69.943,97.975 71.841 L 98.554 73.540 97.047 74.623 C 96.218 75.219,95.498 75.645,95.447 75.569 C 95.395 75.494,94.191 71.804,92.771 67.370 L 90.189 59.309 91.640 58.065 C 93.404 56.552,92.720 56.296,100.703 61.464 M311.547 59.911 C 313.334 61.403,315.067 63.037,315.398 63.543 C 318.829 68.779,310.859 77.986,305.074 75.470 C 303.689 74.868,298.081 70.362,298.081 69.851 C 298.081 69.543,307.922 57.219,308.180 57.205 C 308.246 57.201,309.761 58.419,311.547 59.911 M94.434 61.573 C 94.434 61.996,96.078 66.234,96.363 66.546 C 96.656 66.866,99.040 65.363,99.040 64.859 C 99.040 64.718,98.004 63.876,96.737 62.987 C 95.470 62.098,94.434 61.462,94.434 61.573 M305.693 65.751 C 302.293 69.997,302.313 69.871,304.783 71.583 C 307.218 73.270,309.792 72.154,311.948 68.475 C 313.201 66.336,312.980 65.312,310.830 63.316 C 308.807 61.437,309.354 61.178,305.693 65.751 M86.506 66.175 L 84.694 67.816 88.985 72.584 C 93.771 77.902,93.694 77.734,92.007 79.125 L 90.787 80.130 86.409 75.203 L 82.032 70.277 80.121 71.877 L 78.210 73.477 77.303 72.343 C 76.135 70.884,75.742 71.454,81.316 66.507 L 86.180 62.189 87.250 63.362 L 88.319 64.534 86.506 66.175 M329.367 76.429 C 329.367 76.563,328.997 77.142,328.545 77.717 L 327.723 78.762 324.594 75.649 L 321.465 72.536 320.346 73.704 L 319.228 74.871 321.994 77.655 L 324.760 80.440 323.713 81.487 L 322.667 82.533 319.873 79.758 L 317.079 76.983 315.641 78.441 L 314.203 79.898 317.370 82.921 C 320.912 86.303,320.901 86.281,319.598 87.505 L 318.658 88.388 314.224 84.239 C 311.784 81.957,309.789 79.907,309.789 79.685 C 309.789 79.462,312.334 76.730,315.446 73.614 L 321.102 67.948 325.234 72.067 C 327.507 74.333,329.367 76.296,329.367 76.429 M77.874 75.092 L 78.759 75.713 77.517 76.994 C 76.539 78.003,76.130 78.198,75.591 77.909 C 74.007 77.062,71.287 79.206,71.477 81.151 C 71.645 82.875,72.907 82.917,75.373 81.280 C 79.511 78.532,81.258 78.093,83.143 79.328 C 89.014 83.175,81.466 93.623,75.168 90.366 L 73.983 89.753 75.330 88.407 C 76.481 87.255,76.791 87.122,77.469 87.484 C 78.532 88.053,79.844 87.518,81.128 85.992 C 83.513 83.158,81.731 81.321,78.561 83.344 C 73.174 86.783,71.922 86.970,69.635 84.683 C 65.155 80.203,72.674 71.450,77.874 75.092 M339.124 86.899 C 343.396 90.157,343.931 94.859,340.476 98.784 C 335.853 104.035,329.237 103.581,326.262 97.808 C 322.729 90.953,333.009 82.234,339.124 86.899 M69.149 87.166 C 73.852 89.565,76.050 94.433,74.128 98.192 C 71.231 103.857,65.622 104.672,60.497 100.173 C 53.365 93.910,60.713 82.863,69.149 87.166 M332.761 89.835 C 328.485 92.094,327.647 97.149,331.298 98.662 C 333.591 99.611,337.454 97.731,338.729 95.046 C 340.651 90.995,336.849 87.675,332.761 89.835 M63.485 90.004 C 60.409 91.319,60.138 94.413,62.860 97.132 C 65.847 100.116,69.118 100.357,70.845 97.721 C 73.112 94.261,67.439 88.314,63.485 90.004 M348.876 100.288 C 353.118 106.585,353.040 109.039,348.527 111.341 C 345.752 112.757,343.972 112.056,341.646 108.630 L 340.082 106.328 337.817 107.866 C 335.080 109.725,335.363 109.715,334.188 107.986 L 333.224 106.567 340.028 102.069 C 343.771 99.595,346.871 97.556,346.917 97.538 C 346.964 97.520,347.845 98.757,348.876 100.288 M56.399 100.416 C 58.023 101.066,59.117 102.361,59.117 103.633 C 59.117 104.279,59.367 104.416,60.557 104.421 C 61.456 104.425,62.717 104.855,63.916 105.566 C 64.971 106.192,66.151 106.708,66.538 106.711 C 67.192 106.717,67.181 106.818,66.381 108.157 C 65.066 110.357,65.070 110.356,62.795 109.072 C 59.954 107.469,59.390 107.527,57.984 109.570 C 56.468 111.773,56.429 111.653,59.216 113.414 C 60.534 114.247,61.675 114.972,61.752 115.025 C 61.997 115.196,60.221 117.850,59.861 117.850 C 59.672 117.850,56.505 115.928,52.825 113.578 L 46.133 109.306 47.230 107.532 C 50.459 102.308,51.694 100.761,52.996 100.310 C 54.718 99.713,54.634 99.710,56.399 100.416 M344.437 103.557 C 342.493 104.810,342.514 104.670,343.956 106.660 C 346.480 110.144,350.007 107.489,347.587 103.928 C 346.428 102.223,346.495 102.231,344.437 103.557 M52.005 105.800 C 51.248 106.984,50.681 107.985,50.746 108.023 C 50.811 108.062,51.584 108.555,52.465 109.118 L 54.066 110.143 55.248 108.301 C 56.611 106.176,56.771 104.624,55.687 104.044 C 54.164 103.229,53.424 103.582,52.005 105.800 M358.180 115.808 L 360.951 121.058 360.087 121.758 C 358.670 122.905,358.299 122.621,356.240 118.813 L 354.269 115.169 353.046 115.791 C 352.374 116.133,351.759 116.469,351.680 116.539 C 351.601 116.609,352.333 118.208,353.307 120.094 C 355.167 123.695,355.167 123.735,353.302 124.702 C 352.536 125.099,352.365 124.917,350.912 122.162 C 348.639 117.852,348.846 118.062,347.556 118.760 C 345.219 120.023,345.228 119.791,347.354 123.736 C 349.695 128.077,349.672 127.909,348.027 128.693 L 346.725 129.314 344.024 124.254 C 342.538 121.471,341.267 118.974,341.199 118.706 C 341.110 118.358,354.414 110.702,355.343 110.566 C 355.379 110.561,356.655 112.920,358.180 115.808 M50.212 115.436 C 57.414 119.271,58.596 121.244,56.404 125.774 C 54.067 130.600,51.381 130.928,44.214 127.259 C 37.668 123.909,38.174 124.381,39.128 122.510 L 39.938 120.923 45.300 123.610 C 51.270 126.600,51.816 126.722,52.931 125.304 C 55.037 122.627,54.356 121.680,47.999 118.448 C 42.578 115.691,42.695 115.816,43.641 113.833 C 44.444 112.150,43.695 111.967,50.212 115.436 M361.727 126.430 C 366.161 128.283,367.555 135.416,364.026 138.192 C 362.719 139.220,362.676 139.203,361.899 137.354 C 361.245 135.797,361.247 135.730,361.995 134.934 C 363.047 133.814,362.979 131.963,361.837 130.636 C 359.660 128.106,352.730 130.549,352.369 133.973 C 352.149 136.056,353.555 137.812,355.443 137.812 C 356.636 137.812,357.774 139.231,357.774 140.718 C 357.774 141.805,353.594 141.300,351.900 140.008 C 344.575 134.421,352.998 122.783,361.727 126.430 M38.336 131.988 C 36.667 136.092,36.668 136.387,38.360 136.977 C 39.434 137.351,40.691 136.043,40.691 134.550 C 40.691 131.793,43.255 129.854,45.010 131.283 C 45.169 131.412,44.683 133.044,43.931 134.910 C 42.462 138.552,42.469 138.598,44.596 139.472 L 46.006 140.051 47.614 136.053 C 48.535 133.760,49.441 132.054,49.736 132.054 C 50.866 132.054,52.236 132.960,52.016 133.562 C 50.185 138.574,47.698 144.332,47.364 144.335 C 46.568 144.340,32.630 138.492,32.630 138.152 C 32.630 137.967,33.590 135.414,34.765 132.479 L 36.899 127.144 38.369 127.721 L 39.838 128.298 38.336 131.988 M371.337 147.155 C 371.785 149.050,371.909 148.971,365.835 150.646 C 360.195 152.202,359.309 152.712,359.309 154.403 C 359.309 157.836,360.526 158.117,367.343 156.258 C 370.481 155.403,373.146 154.702,373.266 154.702 C 373.653 154.702,374.346 157.863,374.020 158.143 C 373.397 158.680,363.298 161.228,361.800 161.227 C 358.527 161.224,356.143 158.187,356.085 153.950 C 356.032 150.055,356.996 149.291,364.861 146.996 C 370.792 145.266,370.891 145.268,371.337 147.155 M34.692 149.232 C 34.139 151.519,33.812 152.015,32.859 152.015 C 28.865 152.015,29.872 157.977,34.078 159.237 C 39.295 160.801,43.671 156.672,39.792 153.846 C 38.940 153.225,38.903 153.057,39.272 151.445 C 39.744 149.385,39.875 149.356,41.657 150.921 C 47.168 155.759,43.265 164.182,35.866 163.418 C 28.075 162.614,24.503 155.874,29.022 150.503 C 31.041 148.104,35.190 147.174,34.692 149.232 M375.173 161.900 C 375.267 162.059,375.452 162.879,375.585 163.724 L 375.828 165.259 371.208 169.058 C 368.667 171.148,366.647 172.917,366.720 172.990 C 366.793 173.063,369.118 172.720,371.887 172.227 L 376.921 171.332 377.174 172.832 C 377.506 174.795,378.005 174.572,369.980 176.048 C 360.691 177.757,360.845 177.784,360.845 174.444 C 360.845 174.165,362.928 172.182,365.475 170.037 C 368.022 167.893,370.051 166.084,369.984 166.017 C 369.917 165.950,367.622 166.310,364.883 166.815 C 359.479 167.813,359.516 167.819,359.158 165.804 L 358.915 164.430 366.310 163.058 C 374.478 161.544,374.927 161.485,375.173 161.900 M27.143 163.759 L 28.279 163.986 27.585 168.061 C 26.829 172.497,26.893 172.728,28.887 172.739 C 29.467 172.742,29.951 172.702,29.962 172.649 C 29.972 172.596,30.283 170.912,30.651 168.906 L 31.321 165.259 32.647 165.392 C 33.377 165.465,34.041 165.590,34.123 165.670 C 34.267 165.809,33.551 170.872,33.141 172.620 C 32.967 173.362,33.147 173.485,34.749 173.726 C 36.948 174.055,36.970 174.026,37.576 169.947 C 38.225 165.576,38.278 165.450,39.469 165.457 C 41.532 165.469,41.553 165.608,40.454 172.004 C 39.895 175.262,39.392 177.980,39.337 178.046 C 39.185 178.227,23.730 175.490,23.477 175.236 C 23.267 175.027,24.888 164.435,25.224 163.820 C 25.414 163.472,25.670 163.464,27.143 163.759 M366.960 180.364 C 366.975 180.896,366.514 181.707,365.835 182.342 C 364.082 183.979,364.403 187.715,366.349 188.333 C 367.506 188.700,368.385 187.360,368.694 184.755 C 369.322 179.460,370.314 178.119,373.601 178.119 C 376.965 178.119,378.887 180.500,378.887 184.668 C 378.887 187.863,376.703 190.787,374.318 190.787 C 373.431 190.787,373.844 187.660,374.856 186.723 C 376.094 185.576,376.193 183.103,375.048 181.958 C 373.464 180.374,372.590 181.381,371.991 185.476 C 371.300 190.203,370.002 191.939,367.160 191.939 C 361.066 191.939,359.441 180.144,365.314 178.543 C 366.509 178.218,366.909 178.660,366.960 180.364 M30.647 179.430 C 32.308 180.289,32.832 181.697,32.743 185.064 L 32.665 188.038 35.526 188.306 L 38.388 188.574 38.382 189.776 C 38.370 192.113,38.337 192.122,31.606 191.604 C 28.263 191.347,24.690 191.033,23.667 190.907 L 21.806 190.678 22.068 186.798 C 22.355 182.533,23.223 180.051,24.672 179.352 C 25.914 178.752,29.425 178.798,30.647 179.430 M26.020 183.013 C 24.996 184.187,24.891 187.226,25.866 187.487 C 28.897 188.301,29.942 187.559,29.942 184.597 C 29.942 182.775,27.196 181.666,26.020 183.013 M38.004 194.978 C 38.004 196.857,37.997 196.867,36.372 197.409 L 34.741 197.953 34.741 200.800 L 34.741 203.647 36.372 204.211 C 37.986 204.768,38.004 204.795,38.004 206.610 C 38.004 207.619,37.916 208.445,37.808 208.445 C 37.700 208.445,33.986 207.215,29.554 205.712 L 21.497 202.978 21.497 201.006 L 21.497 199.033 29.271 196.090 C 38.642 192.541,38.004 192.623,38.004 194.978 M379.214 198.177 C 379.008 205.341,377.315 207.294,371.307 207.294 C 364.835 207.294,362.764 205.018,362.764 197.908 L 362.764 193.474 371.057 193.474 L 379.350 193.474 379.214 198.177 M365.835 199.070 C 365.835 205.462,375.721 205.851,376.127 199.475 L 376.289 196.929 371.062 196.929 L 365.835 196.929 365.835 199.070 M28.412 200.157 L 25.922 201.022 28.664 201.854 C 30.171 202.312,31.508 202.687,31.633 202.687 C 31.759 202.687,31.862 201.910,31.862 200.960 C 31.862 198.958,31.863 198.959,28.412 200.157 M362.511 226.112 C 362.688 226.272,362.472 228.174,362.031 230.338 C 360.943 235.669,360.932 235.583,362.790 235.897 C 364.749 236.228,364.538 236.549,365.549 231.713 L 366.409 227.604 367.945 227.857 C 368.790 227.997,369.526 228.149,369.580 228.197 C 369.633 228.244,369.317 230.049,368.876 232.209 C 367.918 236.907,367.961 237.065,370.273 237.411 C 372.520 237.748,372.446 237.862,373.531 232.342 L 374.396 227.943 375.955 228.193 C 376.813 228.330,377.577 228.504,377.653 228.580 C 377.804 228.732,375.106 241.912,374.876 242.142 C 374.697 242.321,357.340 238.850,357.072 238.582 C 356.907 238.417,359.035 227.280,359.510 225.822 C 359.670 225.330,361.880 225.543,362.511 226.112 M30.084 227.351 C 30.662 229.505,30.403 230.131,28.695 230.722 C 26.849 231.360,26.213 233.141,27.461 234.177 C 28.017 234.638,37.259 233.245,41.912 232.000 C 42.465 231.852,43.340 234.638,43.066 235.676 C 42.988 235.972,30.184 238.383,28.676 238.385 C 22.324 238.395,21.414 228.989,27.583 227.090 C 29.923 226.370,29.818 226.359,30.084 227.351 M41.114 239.976 C 47.534 242.126,49.085 251.378,43.680 255.294 C 37.040 260.104,29.097 257.628,27.587 250.278 C 26.245 243.746,34.224 237.670,41.114 239.976 M364.672 245.126 C 368.901 248.198,372.361 250.899,372.361 251.127 C 372.361 251.355,372.169 252.184,371.934 252.967 L 371.507 254.393 364.579 254.643 C 357.068 254.916,352.015 254.967,352.015 254.771 C 352.015 254.703,352.289 253.843,352.624 252.860 L 353.233 251.073 360.112 250.968 L 366.990 250.864 361.234 247.079 C 358.068 244.997,355.544 243.183,355.627 243.048 C 355.709 242.913,355.973 242.068,356.214 241.171 C 356.764 239.122,355.765 238.654,364.672 245.126 M36.016 243.914 C 31.027 245.257,29.272 249.899,32.670 252.758 C 35.966 255.532,43.378 252.471,43.378 248.336 C 43.378 244.470,40.459 242.717,36.016 243.914 M49.875 257.294 C 50.775 259.366,51.425 258.936,41.937 262.542 C 32.374 266.176,33.250 266.028,32.676 264.112 C 32.424 263.270,32.181 262.470,32.136 262.334 C 32.064 262.119,48.071 255.761,48.864 255.690 C 49.031 255.675,49.486 256.396,49.875 257.294 M362.039 259.682 L 368.801 262.270 368.110 264.052 C 367.731 265.033,367.247 265.795,367.035 265.747 C 366.538 265.633,350.322 259.452,350.182 259.323 C 350.124 259.270,350.420 258.424,350.840 257.444 L 351.604 255.663 353.441 256.378 C 354.452 256.772,358.321 258.259,362.039 259.682 M352.638 262.486 C 352.343 263.061,351.839 264.161,351.519 264.930 L 350.937 266.328 357.783 269.486 L 364.629 272.644 363.812 274.326 C 362.801 276.406,363.587 276.528,356.084 273.129 C 348.481 269.685,349.277 269.741,348.016 272.553 C 347.447 273.820,346.926 274.856,346.858 274.856 C 346.506 274.856,343.954 273.666,343.954 273.502 C 343.954 273.298,349.162 261.701,349.768 260.556 C 350.103 259.922,350.211 259.928,351.650 260.662 C 353.140 261.422,353.163 261.466,352.638 262.486 M52.156 263.211 C 53.014 264.975,53.016 265.016,52.304 265.994 C 48.256 271.560,44.978 276.392,45.250 276.392 C 45.435 276.392,47.947 275.272,50.834 273.903 L 56.083 271.415 56.788 273.040 C 57.669 275.070,58.387 274.529,49.070 278.852 C 39.744 283.179,40.903 282.932,39.957 280.792 L 39.187 279.051 43.376 273.115 C 45.680 269.850,47.502 267.179,47.424 267.179 C 47.347 267.179,44.915 268.301,42.020 269.674 C 35.845 272.601,35.951 272.584,35.200 270.729 C 34.461 268.905,33.851 269.356,42.802 265.119 C 51.881 260.821,51.075 260.986,52.156 263.211 M61.764 281.858 C 63.714 285.181,65.201 288.076,65.068 288.291 C 64.798 288.727,62.562 289.954,62.392 289.760 C 62.332 289.691,61.727 288.642,61.047 287.428 C 60.368 286.214,59.698 285.280,59.560 285.352 C 59.422 285.424,56.588 287.083,53.261 289.039 C 49.935 290.995,46.999 292.510,46.736 292.405 C 46.221 292.200,44.687 289.532,44.948 289.296 C 45.035 289.218,47.524 287.730,50.480 285.990 C 53.436 284.250,56.252 282.577,56.738 282.274 L 57.623 281.721 56.276 279.314 L 54.930 276.906 56.352 276.093 C 57.134 275.646,57.874 275.400,57.996 275.548 C 58.119 275.695,59.814 278.535,61.764 281.858 M351.823 278.695 C 356.560 279.539,360.624 280.230,360.854 280.230 C 361.084 280.230,360.788 281.104,360.195 282.172 C 359.047 284.241,359.097 284.225,356.135 283.481 C 355.258 283.261,355.033 283.496,353.550 286.182 L 351.926 289.123 353.123 290.357 C 354.544 291.824,354.575 292.250,353.400 294.161 L 352.506 295.615 346.599 288.787 C 343.349 285.031,340.474 281.679,340.208 281.339 C 339.550 280.495,341.350 277.159,342.464 277.159 C 342.875 277.159,347.087 277.850,351.823 278.695 M346.563 283.205 C 349.478 286.683,349.474 286.682,350.634 284.606 C 351.840 282.447,352.024 282.686,348.610 281.968 C 344.809 281.169,344.840 281.150,346.563 283.205 M343.562 292.251 L 351.223 297.362 350.217 298.873 C 349.663 299.704,349.172 300.434,349.125 300.496 C 349.047 300.599,334.507 291.191,333.894 290.641 C 333.672 290.442,335.465 287.152,335.801 287.143 C 335.856 287.141,339.349 289.440,343.562 292.251 M335.287 292.482 C 336.009 293.279,336.003 293.305,334.739 294.916 C 334.036 295.812,333.315 296.737,333.138 296.972 C 332.926 297.252,334.860 298.953,338.768 301.923 C 342.043 304.411,344.722 306.520,344.722 306.608 C 344.722 306.992,342.677 309.405,342.352 309.405 C 342.154 309.405,339.380 307.428,336.188 305.011 L 330.384 300.617 328.931 302.564 C 328.132 303.635,327.389 304.601,327.280 304.710 C 327.050 304.940,324.335 303.168,324.475 302.879 C 324.526 302.774,326.544 300.064,328.959 296.858 C 333.613 290.680,333.640 290.662,335.287 292.482 M71.656 297.151 C 77.567 300.013,78.381 308.032,73.188 312.242 C 66.856 317.376,59.942 315.722,57.597 308.512 C 55.391 301.731,65.027 293.943,71.656 297.151 M65.835 300.828 C 60.543 303.609,59.496 309.311,63.938 311.167 C 67.459 312.638,72.932 308.565,72.935 304.472 C 72.938 301.034,69.146 299.088,65.835 300.828 M329.380 308.165 C 332.238 310.641,335.319 313.302,336.227 314.077 L 337.878 315.486 336.532 316.955 L 335.185 318.425 334.291 317.628 C 333.602 317.014,327.636 311.888,321.537 306.670 C 321.166 306.353,323.164 303.716,323.800 303.682 C 324.012 303.670,326.522 305.688,329.380 308.165 M88.705 317.036 C 89.701 319.929,87.098 323.608,84.056 323.608 C 82.616 323.608,82.534 323.671,82.534 324.777 C 82.534 325.629,82.073 326.437,80.826 327.770 C 79.887 328.774,78.930 330.091,78.700 330.696 L 78.282 331.797 76.761 330.312 C 74.877 328.473,74.856 328.698,77.159 326.066 C 79.523 323.365,79.533 322.910,77.282 320.504 L 75.486 318.583 72.873 321.176 L 70.260 323.769 68.903 322.454 L 67.545 321.138 74.176 314.490 L 80.806 307.841 84.532 311.790 C 86.582 313.962,88.459 316.323,88.705 317.036 M333.205 320.894 C 333.205 321.037,332.606 321.736,331.873 322.446 L 330.541 323.737 324.484 322.126 C 321.152 321.240,317.994 320.412,317.466 320.286 C 316.763 320.119,317.683 321.249,320.915 324.520 L 325.323 328.983 323.981 330.325 L 322.638 331.668 316.122 325.144 L 309.607 318.619 311.137 317.130 L 312.668 315.640 319.386 317.478 C 323.081 318.490,326.141 319.281,326.187 319.236 C 326.233 319.192,324.376 317.267,322.060 314.959 C 317.375 310.288,317.454 310.436,318.869 308.960 L 319.887 307.897 326.546 314.265 C 330.209 317.767,333.205 320.750,333.205 320.894 M79.268 314.782 L 77.766 316.320 79.849 318.429 C 82.191 320.800,82.926 320.982,84.279 319.522 C 85.590 318.108,85.490 317.706,83.246 315.332 C 80.888 312.839,81.132 312.873,79.268 314.782 M314.214 327.076 L 320.071 333.771 318.673 335.008 C 317.904 335.688,317.188 336.240,317.083 336.235 C 316.876 336.225,307.017 324.968,305.783 323.333 L 305.040 322.349 306.293 321.230 C 307.951 319.749,307.540 319.445,314.214 327.076 M97.369 323.347 C 101.433 325.448,104.059 331.795,101.799 334.055 C 101.043 334.811,98.543 332.561,98.778 331.335 C 99.495 327.580,94.707 324.895,91.340 327.164 C 85.963 330.787,86.319 338.196,91.870 338.196 C 94.768 338.196,95.328 337.129,93.281 335.507 L 91.744 334.290 92.609 333.193 C 93.774 331.715,93.841 331.734,97.026 334.396 L 99.810 336.723 98.090 338.899 C 97.144 340.096,95.717 341.827,94.919 342.747 L 93.467 344.419 92.525 343.656 C 91.687 342.977,91.633 342.781,92.040 341.888 C 92.497 340.884,92.495 340.883,90.760 340.883 C 86.487 340.883,82.804 336.321,83.474 331.858 C 84.463 325.262,92.067 320.605,97.369 323.347 M303.578 335.901 L 311.362 341.375 309.562 342.654 L 307.763 343.934 306.321 342.792 C 304.535 341.378,304.923 341.321,301.901 343.434 C 299.121 345.377,299.281 344.937,300.079 348.433 C 300.254 349.196,297.427 351.717,296.968 351.208 C 296.678 350.886,291.702 332.738,291.861 332.579 C 294.899 329.542,294.290 329.369,303.578 335.901 M113.252 335.368 C 115.134 336.613,115.186 335.672,112.655 346.310 C 110.172 356.752,110.645 355.832,108.508 354.362 L 106.789 353.179 107.333 351.373 C 107.954 349.310,108.088 349.518,104.805 347.459 C 102.523 346.029,102.251 345.946,101.542 346.465 C 98.861 348.424,99.169 348.364,97.500 347.259 C 95.463 345.912,95.054 346.414,103.380 340.042 C 111.579 333.768,111.145 333.974,113.252 335.368 M289.155 336.310 C 290.094 337.959,290.075 337.997,287.716 339.347 C 285.094 340.847,284.944 340.078,289.288 347.412 C 291.315 350.832,292.826 353.758,292.647 353.913 C 292.469 354.069,291.701 354.567,290.940 355.021 L 289.558 355.846 285.803 349.420 C 283.737 345.886,282.005 342.943,281.953 342.881 C 281.902 342.819,280.846 343.380,279.606 344.128 C 276.856 345.786,277.060 345.788,276.254 344.098 C 275.449 342.409,274.814 342.997,282.051 338.726 C 289.099 334.566,288.315 334.833,289.155 336.310 M297.046 338.381 C 298.137 342.019,298.242 342.088,300.307 340.525 L 301.765 339.421 299.347 337.591 C 298.017 336.585,296.735 335.615,296.497 335.436 C 296.260 335.257,296.507 336.582,297.046 338.381 M107.746 341.350 C 106.355 342.466,105.209 343.464,105.200 343.570 C 105.178 343.825,108.642 346.007,108.778 345.824 C 109.005 345.519,110.520 339.567,110.401 339.448 C 110.332 339.379,109.137 340.235,107.746 341.350 M122.968 341.317 L 124.651 342.134 124.895 345.827 C 125.030 347.858,125.153 350.643,125.169 352.015 C 125.220 356.395,125.481 356.292,128.372 350.756 C 129.830 347.965,131.065 345.626,131.117 345.559 C 131.302 345.318,134.405 347.071,134.286 347.349 C 134.085 347.820,126.198 363.331,126.098 363.453 C 126.046 363.516,125.224 363.188,124.270 362.724 L 122.536 361.882 122.294 356.853 C 122.160 354.087,121.948 350.789,121.822 349.526 L 121.593 347.228 118.757 352.890 L 115.921 358.552 114.390 357.771 C 113.549 357.341,112.860 356.807,112.860 356.582 C 112.860 356.123,120.897 340.499,121.133 340.499 C 121.217 340.499,122.042 340.867,122.968 341.317 M278.852 351.212 L 285.718 358.087 283.806 359.056 L 281.893 360.025 280.516 358.647 L 279.138 357.270 276.192 358.577 L 273.247 359.885 273.448 361.907 L 273.650 363.930 271.758 364.889 C 270.717 365.416,269.865 365.715,269.865 365.553 C 269.865 365.392,269.433 361.200,268.906 356.238 C 268.379 351.276,267.947 347.004,267.947 346.744 C 267.946 346.361,271.066 344.422,271.789 344.356 C 271.897 344.346,275.075 347.431,278.852 351.212 M138.087 348.453 C 138.886 348.816,139.600 349.151,139.675 349.197 C 139.818 349.285,132.785 366.219,132.606 366.219 C 132.548 366.219,131.713 365.881,130.749 365.468 L 128.997 364.717 130.362 361.533 C 131.112 359.782,132.707 355.977,133.905 353.078 C 135.104 350.179,136.208 347.804,136.359 347.800 C 136.511 347.796,137.288 348.090,138.087 348.453 M271.992 351.056 C 272.124 351.900,272.348 353.481,272.489 354.568 L 272.745 356.545 274.763 355.520 L 276.782 354.494 274.266 352.007 L 271.751 349.520 271.992 351.056 M259.521 351.247 C 265.470 352.899,267.943 364.278,263.132 367.856 C 262.146 368.589,253.736 371.715,253.469 371.447 C 253.292 371.270,247.729 355.616,247.531 354.737 C 247.445 354.356,248.827 353.704,252.207 352.531 C 257.454 350.711,257.540 350.696,259.521 351.247 M148.355 351.878 C 151.758 353.038,153.974 356.126,153.371 358.871 L 153.130 359.968 151.421 359.354 C 150.248 358.932,149.712 358.520,149.712 358.039 C 149.712 355.644,145.272 353.538,143.647 355.163 C 142.473 356.337,143.115 357.360,146.353 359.474 C 150.312 362.059,151.263 363.069,151.491 364.933 C 152.178 370.552,144.527 372.837,139.040 368.652 C 136.465 366.688,135.378 361.591,137.657 362.163 C 139.991 362.749,140.499 363.117,140.499 364.223 C 140.499 366.331,144.349 368.397,146.474 367.429 C 148.488 366.512,147.678 364.792,144.146 362.486 C 140.150 359.878,139.347 358.941,139.347 356.882 C 139.347 352.355,143.303 350.157,148.355 351.878 M253.839 355.341 C 251.852 356.044,251.839 355.519,253.990 361.684 C 256.135 367.834,255.634 367.257,258.146 366.465 C 261.780 365.319,262.694 362.812,261.053 358.492 C 259.620 354.719,257.818 353.932,253.839 355.341 M164.111 356.840 C 165.975 357.189,166.026 357.362,166.978 366.603 C 167.424 370.931,167.882 374.947,167.994 375.528 C 168.228 376.730,167.766 376.849,165.409 376.194 C 164.115 375.835,164.000 375.677,163.681 373.820 C 163.344 371.855,163.319 371.826,161.560 371.379 C 157.095 370.245,157.158 370.236,156.059 372.112 L 155.065 373.809 153.444 373.416 C 152.553 373.200,151.679 372.894,151.503 372.736 C 151.327 372.578,153.122 369.450,155.493 365.783 C 157.864 362.117,160.222 358.455,160.733 357.646 C 161.295 356.755,161.868 356.254,162.186 356.376 C 162.474 356.486,163.340 356.695,164.111 356.840 M237.885 357.753 C 239.434 358.456,241.517 361.316,240.784 361.733 C 239.392 362.526,237.511 362.375,236.605 361.397 C 234.868 359.523,230.326 360.684,230.326 363.002 C 230.326 364.267,231.169 364.555,235.548 364.785 C 240.829 365.062,242.095 365.769,243.007 368.952 C 244.831 375.312,232.325 379.603,228.802 373.826 C 227.284 371.336,230.218 369.851,232.304 372.054 C 234.575 374.453,240.596 372.366,239.158 369.678 C 238.657 368.743,237.992 368.594,233.542 368.424 C 228.550 368.233,226.724 366.820,226.724 363.148 C 226.724 358.494,232.921 355.499,237.885 357.753 M178.022 359.447 C 185.158 360.458,184.590 360.217,184.352 362.133 L 184.168 363.613 181.402 363.354 L 178.637 363.095 177.788 369.167 C 176.445 378.765,176.768 377.856,174.786 377.632 C 172.445 377.369,172.502 377.758,173.637 369.799 C 174.200 365.857,174.613 362.585,174.556 362.528 C 174.499 362.471,173.355 362.248,172.012 362.032 C 169.058 361.556,169.153 361.641,169.475 359.735 C 169.715 358.315,169.819 358.204,170.760 358.376 C 171.324 358.479,174.592 358.961,178.022 359.447 M225.282 368.453 C 226.289 378.407,226.367 377.871,223.916 377.903 L 222.129 377.927 218.070 372.305 C 215.838 369.212,213.960 366.819,213.897 366.985 C 213.834 367.152,214.051 369.840,214.378 372.958 C 214.706 376.077,214.895 378.707,214.800 378.802 C 214.294 379.308,211.133 379.341,211.139 378.841 C 211.142 378.549,210.761 374.474,210.291 369.785 C 209.330 360.184,209.219 360.886,211.725 360.752 L 213.605 360.653 217.627 366.302 C 219.840 369.410,221.703 371.899,221.768 371.834 C 221.832 371.770,221.625 369.252,221.307 366.240 C 220.571 359.267,220.521 359.768,221.977 359.583 C 224.488 359.264,224.300 358.759,225.282 368.453 M188.918 360.639 C 189.075 360.796,188.858 363.970,187.887 375.720 L 187.625 378.887 185.815 378.887 C 183.446 378.887,183.579 379.609,184.321 370.753 C 184.681 366.464,184.987 362.394,185.002 361.708 C 185.027 360.541,188.006 359.727,188.918 360.639 M203.290 361.187 C 209.571 364.040,209.809 376.129,203.642 379.055 C 196.872 382.268,190.598 378.020,190.637 370.250 C 190.677 362.517,196.707 358.197,203.290 361.187 M160.772 364.327 L 158.972 367.353 160.580 367.765 C 161.464 367.991,162.404 368.249,162.668 368.337 C 163.201 368.516,163.270 366.210,162.826 363.088 L 162.572 361.301 160.772 364.327 M197.022 364.424 C 193.923 366.145,193.517 372.702,196.346 375.336 C 200.608 379.305,205.654 373.883,203.825 367.299 C 203.039 364.468,199.577 363.005,197.022 364.424 " stroke="none" fill="#04444c" fill-rule="evenodd"></path><path id="path3" d="M197.989 21.385 C 198.467 21.477,199.158 21.473,199.525 21.377 C 199.892 21.281,199.501 21.206,198.656 21.210 C 197.812 21.214,197.512 21.293,197.989 21.385 M188.588 25.336 C 188.588 26.286,188.663 26.675,188.755 26.200 C 188.846 25.725,188.846 24.947,188.755 24.472 C 188.663 23.997,188.588 24.386,188.588 25.336 M192.090 30.870 C 191.975 31.169,191.955 31.903,192.044 32.501 C 192.184 33.431,192.216 33.384,192.265 32.173 C 192.319 30.831,192.399 30.749,193.762 30.606 L 195.202 30.455 193.750 30.391 C 192.805 30.349,192.226 30.516,192.090 30.870 M147.506 34.357 C 147.510 35.202,147.589 35.502,147.680 35.024 C 147.772 34.547,147.769 33.856,147.673 33.489 C 147.577 33.122,147.501 33.512,147.506 34.357 M193.762 34.820 C 194.237 34.911,195.014 34.911,195.489 34.820 C 195.964 34.728,195.576 34.653,194.626 34.653 C 193.676 34.653,193.287 34.728,193.762 34.820 M188.957 36.468 C 188.957 37.207,189.036 37.510,189.132 37.140 C 189.229 36.771,189.229 36.166,189.132 35.797 C 189.036 35.427,188.957 35.729,188.957 36.468 M197.985 37.507 C 198.460 37.598,199.237 37.598,199.712 37.507 C 200.187 37.416,199.798 37.341,198.848 37.341 C 197.898 37.341,197.510 37.416,197.985 37.507 M196.851 67.464 C 198.603 67.536,201.367 67.535,202.993 67.464 C 204.620 67.392,203.186 67.333,199.808 67.334 C 196.430 67.334,195.099 67.393,196.851 67.464 M314.189 74.952 L 312.284 76.967 314.299 75.062 C 316.172 73.292,316.491 72.937,316.204 72.937 C 316.144 72.937,315.237 73.844,314.189 74.952 M319.002 74.976 C 319.002 75.042,319.563 75.604,320.250 76.224 L 321.497 77.351 320.370 76.104 C 319.319 74.941,319.002 74.680,319.002 74.976 M342.507 93.282 C 342.507 94.021,342.586 94.323,342.683 93.954 C 342.780 93.584,342.780 92.980,342.683 92.610 C 342.586 92.241,342.507 92.543,342.507 93.282 M97.685 96.449 L 95.393 98.848 97.793 96.557 C 100.021 94.429,100.368 94.050,100.084 94.050 C 100.025 94.050,98.945 95.130,97.685 96.449 M351.721 106.718 C 351.721 107.457,351.800 107.759,351.896 107.390 C 351.993 107.020,351.993 106.416,351.896 106.046 C 351.800 105.677,351.721 105.979,351.721 106.718 M211.516 218.349 L 211.708 311.132 211.805 218.638 C 211.858 167.766,211.772 126.014,211.613 125.855 C 211.454 125.696,211.411 167.319,211.516 218.349 M189.045 135.988 C 188.945 136.252,188.907 175.854,188.961 223.992 L 189.060 311.516 189.251 223.512 C 189.357 175.110,189.395 135.509,189.335 135.509 C 189.276 135.509,189.145 135.725,189.045 135.988 M246.353 198.177 C 246.406 225.043,246.494 259.463,246.548 274.664 C 246.602 289.866,246.688 267.884,246.740 225.816 C 246.791 183.748,246.703 149.328,246.545 149.328 C 246.387 149.328,246.300 171.310,246.353 198.177 M141.455 225.720 C 141.455 263.829,141.500 279.419,141.555 260.365 C 141.610 241.310,141.610 210.130,141.555 191.075 C 141.500 172.020,141.455 187.610,141.455 225.720 M259.294 159.789 C 259.194 160.053,259.156 190.585,259.211 227.639 L 259.309 295.010 259.501 227.159 C 259.607 189.842,259.644 159.309,259.585 159.309 C 259.525 159.309,259.395 159.525,259.294 159.789 M36.180 163.412 C 36.550 163.509,37.155 163.509,37.524 163.412 C 37.893 163.316,37.591 163.237,36.852 163.237 C 36.113 163.237,35.811 163.316,36.180 163.412 M118.795 167.083 C 118.695 167.346,118.657 192.179,118.711 222.265 L 118.810 276.967 119.002 221.785 C 119.107 191.435,119.145 166.603,119.086 166.603 C 119.026 166.603,118.896 166.819,118.795 167.083 M361.701 184.645 C 361.701 185.384,361.780 185.686,361.877 185.317 C 361.973 184.947,361.973 184.343,361.877 183.973 C 361.780 183.604,361.701 183.906,361.701 184.645 M332.158 192.706 C 332.158 193.656,332.233 194.045,332.325 193.570 C 332.416 193.095,332.416 192.318,332.325 191.843 C 332.233 191.368,332.158 191.756,332.158 192.706 M67.294 193.474 C 67.294 194.635,67.366 195.110,67.453 194.530 C 67.541 193.949,67.541 192.999,67.453 192.418 C 67.366 191.838,67.294 192.313,67.294 193.474 M55.785 195.010 C 55.785 196.382,55.855 196.943,55.940 196.257 C 56.025 195.571,56.025 194.448,55.940 193.762 C 55.855 193.076,55.785 193.637,55.785 195.010 M362.893 196.161 C 362.893 197.745,362.961 198.393,363.044 197.601 C 363.126 196.809,363.126 195.513,363.044 194.722 C 362.961 193.930,362.893 194.578,362.893 196.161 M368.439 193.758 C 369.554 193.835,371.282 193.835,372.278 193.756 C 373.274 193.677,372.361 193.613,370.250 193.614 C 368.138 193.615,367.323 193.680,368.439 193.758 M379.006 195.969 C 379.008 197.236,379.080 197.708,379.165 197.018 C 379.250 196.328,379.249 195.292,379.161 194.715 C 379.073 194.138,379.004 194.702,379.006 195.969 M365.566 198.848 C 365.566 200.010,365.638 200.485,365.726 199.904 C 365.814 199.323,365.814 198.373,365.726 197.793 C 365.638 197.212,365.566 197.687,365.566 198.848 M55.788 201.344 C 55.790 202.821,55.859 203.379,55.942 202.583 C 56.025 201.786,56.024 200.577,55.939 199.895 C 55.854 199.214,55.786 199.866,55.788 201.344 M67.294 206.142 C 67.294 207.303,67.366 207.778,67.453 207.198 C 67.541 206.617,67.541 205.667,67.453 205.086 C 67.366 204.506,67.294 204.981,67.294 206.142 M332.158 207.294 C 332.158 208.244,332.233 208.632,332.325 208.157 C 332.416 207.682,332.416 206.905,332.325 206.430 C 332.233 205.955,332.158 206.344,332.158 207.294 M293.464 293.762 L 290.787 296.545 293.570 293.868 C 296.155 291.382,296.528 290.979,296.247 290.979 C 296.188 290.979,294.936 292.231,293.464 293.762 M105.758 293.666 C 106.798 294.722,107.735 295.585,107.841 295.585 C 107.946 295.585,107.182 294.722,106.142 293.666 C 105.102 292.610,104.165 291.747,104.060 291.747 C 103.954 291.747,104.718 292.610,105.758 293.666 M208.541 311.589 C 208.911 311.686,209.515 311.686,209.885 311.589 C 210.254 311.492,209.952 311.413,209.213 311.413 C 208.474 311.413,208.172 311.492,208.541 311.589 M198.369 311.991 C 199.477 312.069,201.291 312.069,202.399 311.991 C 203.508 311.914,202.601 311.850,200.384 311.850 C 198.167 311.850,197.260 311.914,198.369 311.991 M189.928 332.325 C 190.405 332.417,191.096 332.414,191.463 332.317 C 191.830 332.221,191.440 332.146,190.595 332.151 C 189.750 332.155,189.450 332.233,189.928 332.325 M208.354 332.325 C 208.831 332.417,209.522 332.414,209.889 332.317 C 210.256 332.221,209.866 332.146,209.021 332.151 C 208.177 332.155,207.876 332.233,208.354 332.325 M198.360 332.715 C 199.041 332.799,200.251 332.801,201.047 332.718 C 201.844 332.635,201.286 332.565,199.808 332.564 C 198.330 332.562,197.678 332.630,198.360 332.715 M192.418 342.299 C 192.788 342.396,193.393 342.396,193.762 342.299 C 194.131 342.203,193.829 342.124,193.090 342.124 C 192.351 342.124,192.049 342.203,192.418 342.299 M206.238 342.299 C 206.607 342.396,207.212 342.396,207.582 342.299 C 207.951 342.203,207.649 342.124,206.910 342.124 C 206.171 342.124,205.869 342.203,206.238 342.299 " stroke="none" fill="#8cacb4" fill-rule="evenodd"></path><path id="path4" d="M194.914 21.384 C 195.389 21.476,196.166 21.476,196.641 21.384 C 197.116 21.293,196.727 21.218,195.777 21.218 C 194.827 21.218,194.439 21.293,194.914 21.384 M192.615 24.456 C 193.092 24.548,193.783 24.544,194.150 24.448 C 194.517 24.352,194.127 24.277,193.282 24.281 C 192.438 24.285,192.137 24.364,192.615 24.456 M154.611 27.143 C 155.089 27.235,155.779 27.231,156.147 27.135 C 156.514 27.039,156.123 26.964,155.278 26.968 C 154.434 26.972,154.133 27.051,154.611 27.143 M188.580 28.215 C 188.585 29.060,188.663 29.360,188.755 28.882 C 188.847 28.405,188.844 27.714,188.747 27.347 C 188.651 26.980,188.576 27.370,188.580 28.215 M195.681 30.597 C 196.156 30.689,196.934 30.689,197.409 30.597 C 197.884 30.506,197.495 30.431,196.545 30.431 C 195.595 30.431,195.206 30.506,195.681 30.597 M201.204 35.956 C 201.175 36.625,200.936 37.259,200.672 37.366 C 200.296 37.517,200.299 37.566,200.684 37.590 C 201.316 37.629,201.643 36.768,201.426 35.633 C 201.293 34.936,201.245 35.007,201.204 35.956 M189.539 37.891 C 190.014 37.982,190.792 37.982,191.267 37.891 C 191.742 37.799,191.353 37.725,190.403 37.725 C 189.453 37.725,189.064 37.799,189.539 37.891 M310.920 78.215 L 309.597 79.655 311.036 78.332 C 312.376 77.100,312.653 76.775,312.359 76.775 C 312.295 76.775,311.647 77.423,310.920 78.215 M311.308 81.478 C 312.899 83.173,313.244 83.478,313.244 83.189 C 313.244 83.128,312.423 82.307,311.420 81.366 L 309.597 79.655 311.308 81.478 M68.035 81.382 C 68.035 82.121,68.114 82.423,68.211 82.054 C 68.307 81.684,68.307 81.080,68.211 80.710 C 68.114 80.341,68.035 80.643,68.035 81.382 M301.711 96.065 C 302.653 97.068,303.473 97.889,303.535 97.889 C 303.823 97.889,303.518 97.544,301.823 95.953 L 300.000 94.242 301.711 96.065 M365.924 133.589 C 365.924 134.328,366.003 134.631,366.100 134.261 C 366.196 133.892,366.196 133.287,366.100 132.917 C 366.003 132.548,365.924 132.850,365.924 133.589 M32.726 184.069 C 32.731 184.914,32.809 185.214,32.901 184.736 C 32.993 184.259,32.989 183.568,32.893 183.201 C 32.797 182.834,32.722 183.225,32.726 184.069 M55.751 191.555 C 55.751 192.294,55.830 192.596,55.927 192.226 C 56.023 191.857,56.023 191.252,55.927 190.883 C 55.830 190.513,55.751 190.816,55.751 191.555 M344.103 198.273 C 344.104 201.017,344.165 202.090,344.239 200.656 C 344.313 199.222,344.312 196.976,344.238 195.665 C 344.163 194.355,344.102 195.528,344.103 198.273 M375.144 193.754 C 375.936 193.837,377.231 193.837,378.023 193.754 C 378.815 193.671,378.167 193.603,376.583 193.603 C 375.000 193.603,374.352 193.671,375.144 193.754 M379.002 200.000 C 379.002 201.161,379.074 201.636,379.162 201.056 C 379.250 200.475,379.250 199.525,379.162 198.944 C 379.074 198.364,379.002 198.839,379.002 200.000 M21.607 201.344 C 21.610 202.399,21.684 202.786,21.773 202.202 C 21.861 201.618,21.858 200.755,21.767 200.283 C 21.676 199.810,21.604 200.288,21.607 201.344 M55.751 204.990 C 55.751 205.729,55.830 206.032,55.927 205.662 C 56.023 205.293,56.023 204.688,55.927 204.319 C 55.830 203.949,55.751 204.251,55.751 204.990 M359.981 254.781 C 360.456 254.873,361.233 254.873,361.708 254.781 C 362.183 254.690,361.795 254.615,360.845 254.615 C 359.894 254.615,359.506 254.690,359.981 254.781 M94.818 297.241 C 94.818 297.307,95.379 297.869,96.065 298.489 L 97.313 299.616 96.185 298.369 C 95.134 297.206,94.818 296.944,94.818 297.241 M99.808 302.303 C 100.524 303.042,101.197 303.647,101.302 303.647 C 101.408 303.647,100.908 303.042,100.192 302.303 C 99.476 301.564,98.803 300.960,98.698 300.960 C 98.592 300.960,99.092 301.564,99.808 302.303 M235.609 364.955 C 236.087 365.047,236.778 365.043,237.145 364.947 C 237.512 364.851,237.121 364.776,236.276 364.780 C 235.432 364.784,235.132 364.863,235.609 364.955 " stroke="none" fill="#4b96a4" fill-rule="evenodd"></path></g></svg>